<ttFont>
    <TTGlyph name="A" xMin="29" yMin="-42" xMax="1090" yMax="1419">
      <contour>
        <pt x="1090" y="29" on="1"/>
        <pt x="1090" y="21" on="0"/>
        <pt x="1070" y="20" on="0"/>
        <pt x="1059" y="20" on="1"/>
        <pt x="1054" y="19" on="0"/>
        <pt x="1049" y="18" on="1"/>
        <pt x="1044" y="16" on="0"/>
        <pt x="1033" y="13" on="0"/>
        <pt x="1028" y="8" on="1"/>
        <pt x="1030" y="-2" on="0"/>
        <pt x="1029" y="-13" on="0"/>
        <pt x="1029" y="-16" on="1"/>
        <pt x="1028" y="-20" on="1"/>
        <pt x="1025" y="-24" on="0"/>
        <pt x="1007" y="-29" on="0"/>
        <pt x="997" y="-29" on="1"/>
        <pt x="995" y="-29" on="0"/>
        <pt x="991" y="-28" on="1"/>
        <pt x="984" y="-26" on="0"/>
        <pt x="977" y="-18" on="1"/>
        <pt x="960" y="-13" on="0"/>
        <pt x="937" y="-8" on="1"/>
        <pt x="925" y="-5" on="0"/>
        <pt x="911" y="-2" on="1"/>
        <pt x="900" y="1" on="0"/>
        <pt x="884" y="27" on="0"/>
        <pt x="871" y="62" on="0"/>
        <pt x="860" y="99" on="0"/>
        <pt x="856" y="113" on="1"/>
        <pt x="758" y="422" on="1"/>
        <pt x="736" y="422" on="0"/>
        <pt x="669" y="421" on="0"/>
        <pt x="593" y="420" on="0"/>
        <pt x="515" y="417" on="0"/>
        <pt x="483" y="416" on="1"/>
        <pt x="283" y="406" on="1"/>
        <pt x="166" y="100" on="1"/>
        <pt x="163" y="95" on="0"/>
        <pt x="152" y="65" on="0"/>
        <pt x="140" y="32" on="0"/>
        <pt x="130" y="3" on="0"/>
        <pt x="129" y="0" on="1"/>
        <pt x="127" y="-8" on="0"/>
        <pt x="107" y="-12" on="0"/>
        <pt x="100" y="-14" on="1"/>
        <pt x="94" y="-16" on="0"/>
        <pt x="86" y="-34" on="0"/>
        <pt x="78" y="-37" on="1"/>
        <pt x="70" y="-42" on="0"/>
        <pt x="46" y="-34" on="0"/>
        <pt x="37" y="-25" on="1"/>
        <pt x="29" y="-15" on="0"/>
        <pt x="33" y="16" on="0"/>
        <pt x="33" y="33" on="1"/>
        <pt x="33" y="50" on="0"/>
        <pt x="32" y="80" on="0"/>
        <pt x="37" y="94" on="1"/>
        <pt x="39" y="100" on="0"/>
        <pt x="60" y="163" on="0"/>
        <pt x="92" y="252" on="0"/>
        <pt x="130" y="357" on="0"/>
        <pt x="150" y="406" on="1"/>
        <pt x="132" y="406" on="0"/>
        <pt x="125" y="416" on="1"/>
        <pt x="120" y="424" on="0"/>
        <pt x="106" y="427" on="0"/>
        <pt x="98" y="430" on="1"/>
        <pt x="90" y="432" on="0"/>
        <pt x="84" y="446" on="0"/>
        <pt x="86" y="451" on="1"/>
        <pt x="88" y="457" on="0"/>
        <pt x="78" y="465" on="0"/>
        <pt x="78" y="479" on="1"/>
        <pt x="78" y="485" on="0"/>
        <pt x="97" y="496" on="0"/>
        <pt x="125" y="504" on="0"/>
        <pt x="160" y="510" on="0"/>
        <pt x="176" y="512" on="1"/>
        <pt x="179" y="512" on="0"/>
        <pt x="188" y="512" on="0"/>
        <pt x="193" y="514" on="1"/>
        <pt x="215" y="567" on="0"/>
        <pt x="271" y="690" on="0"/>
        <pt x="330" y="818" on="0"/>
        <pt x="390" y="946" on="0"/>
        <pt x="444" y="1059" on="0"/>
        <pt x="489" y="1153" on="0"/>
        <pt x="504" y="1184" on="1"/>
        <pt x="492" y="1221" on="0"/>
        <pt x="473" y="1283" on="0"/>
        <pt x="459" y="1329" on="0"/>
        <pt x="451" y="1356" on="0"/>
        <pt x="451" y="1358" on="1"/>
        <pt x="450" y="1360" on="0"/>
        <pt x="451" y="1362" on="1"/>
        <pt x="453" y="1367" on="0"/>
        <pt x="461" y="1368" on="1"/>
        <pt x="453" y="1383" on="0"/>
        <pt x="453" y="1390" on="1"/>
        <pt x="453" y="1394" on="0"/>
        <pt x="455" y="1395" on="1"/>
        <pt x="457" y="1397" on="0"/>
        <pt x="473" y="1401" on="0"/>
        <pt x="491" y="1404" on="0"/>
        <pt x="507" y="1405" on="0"/>
        <pt x="510" y="1405" on="1"/>
        <pt x="511" y="1405" on="0"/>
        <pt x="515" y="1404" on="1"/>
        <pt x="521" y="1402" on="0"/>
        <pt x="532" y="1395" on="1"/>
        <pt x="533" y="1400" on="0"/>
        <pt x="536" y="1404" on="0"/>
        <pt x="538" y="1406" on="1"/>
        <pt x="541" y="1409" on="1"/>
        <pt x="547" y="1412" on="0"/>
        <pt x="561" y="1409" on="0"/>
        <pt x="567" y="1409" on="1"/>
        <pt x="573" y="1409" on="0"/>
        <pt x="578" y="1419" on="0"/>
        <pt x="588" y="1419" on="1"/>
        <pt x="601" y="1419" on="0"/>
        <pt x="610" y="1391" on="1"/>
        <pt x="611" y="1386" on="0"/>
        <pt x="637" y="1321" on="0"/>
        <pt x="677" y="1216" on="0"/>
        <pt x="730" y="1078" on="0"/>
        <pt x="788" y="923" on="0"/>
        <pt x="847" y="758" on="0"/>
        <pt x="874" y="678" on="1"/>
        <pt x="930" y="515" on="0"/>
        <pt x="1006" y="291" on="0"/>
        <pt x="1053" y="149" on="0"/>
        <pt x="1076" y="79" on="0"/>
        <pt x="1079" y="72" on="1"/>
        <pt x="1084" y="56" on="0"/>
        <pt x="1090" y="37" on="0"/>
      </contour>
      <contour>
        <pt x="659" y="713" on="1"/>
        <pt x="633" y="787" on="0"/>
        <pt x="572" y="971" on="0"/>
        <pt x="543" y="1061" on="1"/>
        <pt x="526" y="1017" on="0"/>
        <pt x="478" y="893" on="0"/>
        <pt x="425" y="761" on="0"/>
        <pt x="375" y="635" on="0"/>
        <pt x="356" y="590" on="1"/>
        <pt x="328" y="524" on="1"/>
        <pt x="508" y="535" on="1"/>
        <pt x="531" y="535" on="0"/>
        <pt x="563" y="536" on="1"/>
        <pt x="617" y="537" on="0"/>
        <pt x="719" y="539" on="1"/>
      </contour>
    </TTGlyph>
    <TTGlyph name="AE" xMin="-22" yMin="-39" xMax="1733" yMax="1430">
      <contour>
        <pt x="1733" y="186" on="1"/>
        <pt x="1733" y="182" on="0"/>
        <pt x="1723" y="160" on="0"/>
        <pt x="1710" y="136" on="0"/>
        <pt x="1695" y="115" on="0"/>
        <pt x="1690" y="113" on="1"/>
        <pt x="1686" y="111" on="0"/>
        <pt x="1639" y="94" on="0"/>
        <pt x="1561" y="71" on="0"/>
        <pt x="1456" y="45" on="0"/>
        <pt x="1333" y="22" on="0"/>
        <pt x="1194" y="7" on="0"/>
        <pt x="1122" y="6" on="1"/>
        <pt x="1062" y="4" on="0"/>
        <pt x="958" y="0" on="0"/>
        <pt x="913" y="0" on="1"/>
        <pt x="889" y="0" on="0"/>
        <pt x="843" y="2" on="0"/>
        <pt x="823" y="4" on="1"/>
        <pt x="795" y="7" on="0"/>
        <pt x="769" y="11" on="1"/>
        <pt x="746" y="15" on="0"/>
        <pt x="697" y="27" on="0"/>
        <pt x="680" y="37" on="1"/>
        <pt x="675" y="38" on="0"/>
        <pt x="671" y="42" on="1"/>
        <pt x="663" y="48" on="0"/>
        <pt x="664" y="59" on="1"/>
        <pt x="654" y="64" on="0"/>
        <pt x="650" y="70" on="1"/>
        <pt x="648" y="73" on="0"/>
        <pt x="647" y="74" on="1"/>
        <pt x="647" y="76" on="0"/>
        <pt x="648" y="79" on="1"/>
        <pt x="649" y="83" on="0"/>
        <pt x="657" y="94" on="1"/>
        <pt x="646" y="95" on="0"/>
        <pt x="642" y="105" on="1"/>
        <pt x="639" y="109" on="0"/>
        <pt x="639" y="115" on="1"/>
        <pt x="638" y="121" on="0"/>
        <pt x="640" y="127" on="1"/>
        <pt x="644" y="140" on="0"/>
        <pt x="657" y="152" on="1"/>
        <pt x="657" y="165" on="0"/>
        <pt x="660" y="171" on="1"/>
        <pt x="662" y="175" on="0"/>
        <pt x="664" y="176" on="1"/>
        <pt x="665" y="179" on="0"/>
        <pt x="679" y="185" on="0"/>
        <pt x="697" y="189" on="0"/>
        <pt x="716" y="191" on="0"/>
        <pt x="723" y="190" on="1"/>
        <pt x="725" y="188" on="1"/>
        <pt x="731" y="422" on="1"/>
        <pt x="706" y="422" on="0"/>
        <pt x="644" y="421" on="0"/>
        <pt x="579" y="420" on="0"/>
        <pt x="515" y="417" on="0"/>
        <pt x="487" y="416" on="1"/>
        <pt x="319" y="408" on="1"/>
        <pt x="291" y="352" on="0"/>
        <pt x="238" y="248" on="0"/>
        <pt x="196" y="165" on="0"/>
        <pt x="169" y="113" on="0"/>
        <pt x="166" y="109" on="1"/>
        <pt x="161" y="103" on="0"/>
        <pt x="145" y="70" on="0"/>
        <pt x="129" y="34" on="0"/>
        <pt x="115" y="3" on="0"/>
        <pt x="113" y="0" on="1"/>
        <pt x="111" y="-8" on="0"/>
        <pt x="90" y="-12" on="0"/>
        <pt x="84" y="-14" on="1"/>
        <pt x="78" y="-16" on="0"/>
        <pt x="69" y="-34" on="0"/>
        <pt x="61" y="-37" on="1"/>
        <pt x="57" y="-39" on="0"/>
        <pt x="36" y="-39" on="0"/>
        <pt x="12" y="-36" on="0"/>
        <pt x="-10" y="-30" on="0"/>
        <pt x="-14" y="-25" on="1"/>
        <pt x="-22" y="-15" on="0"/>
        <pt x="-18" y="16" on="0"/>
        <pt x="-18" y="33" on="1"/>
        <pt x="-18" y="50" on="0"/>
        <pt x="-9" y="80" on="0"/>
        <pt x="-4" y="94" on="1"/>
        <pt x="176" y="403" on="1"/>
        <pt x="170" y="403" on="1"/>
        <pt x="162" y="405" on="0"/>
        <pt x="134" y="408" on="0"/>
        <pt x="129" y="416" on="1"/>
        <pt x="124" y="424" on="0"/>
        <pt x="110" y="427" on="0"/>
        <pt x="102" y="430" on="1"/>
        <pt x="94" y="432" on="0"/>
        <pt x="88" y="446" on="0"/>
        <pt x="90" y="451" on="1"/>
        <pt x="92" y="457" on="0"/>
        <pt x="82" y="465" on="0"/>
        <pt x="82" y="479" on="1"/>
        <pt x="82" y="485" on="0"/>
        <pt x="101" y="501" on="0"/>
        <pt x="129" y="515" on="0"/>
        <pt x="164" y="526" on="0"/>
        <pt x="180" y="528" on="1"/>
        <pt x="190" y="528" on="0"/>
        <pt x="225" y="533" on="0"/>
        <pt x="248" y="535" on="1"/>
        <pt x="278" y="589" on="0"/>
        <pt x="352" y="715" on="0"/>
        <pt x="430" y="848" on="0"/>
        <pt x="511" y="982" on="0"/>
        <pt x="585" y="1105" on="0"/>
        <pt x="650" y="1211" on="0"/>
        <pt x="674" y="1249" on="1"/>
        <pt x="643" y="1249" on="1"/>
        <pt x="631" y="1249" on="0"/>
        <pt x="621" y="1252" on="1"/>
        <pt x="612" y="1254" on="0"/>
        <pt x="596" y="1264" on="0"/>
        <pt x="592" y="1274" on="1"/>
        <pt x="576" y="1276" on="0"/>
        <pt x="561" y="1284" on="0"/>
        <pt x="557" y="1288" on="1"/>
        <pt x="553" y="1292" on="0"/>
        <pt x="553" y="1298" on="1"/>
        <pt x="555" y="1309" on="0"/>
        <pt x="564" y="1321" on="0"/>
        <pt x="580" y="1329" on="1"/>
        <pt x="597" y="1335" on="0"/>
        <pt x="611" y="1354" on="0"/>
        <pt x="621" y="1356" on="1"/>
        <pt x="623" y="1357" on="0"/>
        <pt x="670" y="1365" on="0"/>
        <pt x="747" y="1378" on="0"/>
        <pt x="847" y="1393" on="0"/>
        <pt x="958" y="1408" on="0"/>
        <pt x="1074" y="1420" on="0"/>
        <pt x="1128" y="1423" on="1"/>
        <pt x="1198" y="1428" on="0"/>
        <pt x="1335" y="1430" on="0"/>
        <pt x="1395" y="1430" on="1"/>
        <pt x="1435" y="1430" on="0"/>
        <pt x="1505" y="1429" on="0"/>
        <pt x="1559" y="1427" on="0"/>
        <pt x="1594" y="1424" on="0"/>
        <pt x="1599" y="1423" on="1"/>
        <pt x="1606" y="1421" on="0"/>
        <pt x="1613" y="1416" on="1"/>
        <pt x="1618" y="1411" on="0"/>
        <pt x="1630" y="1394" on="0"/>
        <pt x="1634" y="1380" on="1"/>
        <pt x="1642" y="1376" on="0"/>
        <pt x="1650" y="1369" on="0"/>
        <pt x="1652" y="1366" on="1"/>
        <pt x="1655" y="1362" on="0"/>
        <pt x="1655" y="1360" on="1"/>
        <pt x="1655" y="1354" on="0"/>
        <pt x="1655" y="1337" on="0"/>
        <pt x="1653" y="1331" on="1"/>
        <pt x="1652" y="1329" on="0"/>
        <pt x="1649" y="1327" on="1"/>
        <pt x="1642" y="1323" on="0"/>
        <pt x="1634" y="1319" on="1"/>
        <pt x="1635" y="1305" on="0"/>
        <pt x="1633" y="1289" on="0"/>
        <pt x="1631" y="1284" on="1"/>
        <pt x="1629" y="1279" on="0"/>
        <pt x="1626" y="1276" on="1"/>
        <pt x="1620" y="1271" on="0"/>
        <pt x="1587" y="1266" on="0"/>
        <pt x="1542" y="1266" on="1"/>
        <pt x="1533" y="1266" on="0"/>
        <pt x="1469" y="1265" on="0"/>
        <pt x="1375" y="1263" on="0"/>
        <pt x="1256" y="1261" on="0"/>
        <pt x="1126" y="1258" on="0"/>
        <pt x="992" y="1255" on="0"/>
        <pt x="930" y="1253" on="1"/>
        <pt x="926" y="1211" on="0"/>
        <pt x="918" y="1079" on="0"/>
        <pt x="910" y="940" on="0"/>
        <pt x="904" y="814" on="0"/>
        <pt x="903" y="778" on="1"/>
        <pt x="941" y="788" on="0"/>
        <pt x="1032" y="801" on="0"/>
        <pt x="1070" y="805" on="1"/>
        <pt x="1115" y="809" on="0"/>
        <pt x="1159" y="811" on="1"/>
        <pt x="1188" y="813" on="0"/>
        <pt x="1243" y="813" on="0"/>
        <pt x="1268" y="813" on="1"/>
        <pt x="1368" y="813" on="0"/>
        <pt x="1477" y="805" on="0"/>
        <pt x="1485" y="803" on="1"/>
        <pt x="1490" y="802" on="0"/>
        <pt x="1504" y="788" on="0"/>
        <pt x="1517" y="769" on="0"/>
        <pt x="1526" y="746" on="0"/>
        <pt x="1526" y="737" on="1"/>
        <pt x="1526" y="720" on="0"/>
        <pt x="1507" y="692" on="0"/>
        <pt x="1501" y="680" on="1"/>
        <pt x="1497" y="674" on="0"/>
        <pt x="1486" y="661" on="0"/>
        <pt x="1474" y="650" on="0"/>
        <pt x="1462" y="644" on="0"/>
        <pt x="1458" y="645" on="1"/>
        <pt x="1455" y="645" on="0"/>
        <pt x="1412" y="647" on="0"/>
        <pt x="1347" y="650" on="0"/>
        <pt x="1270" y="652" on="0"/>
        <pt x="1199" y="654" on="0"/>
        <pt x="1141" y="655" on="0"/>
        <pt x="1128" y="655" on="1"/>
        <pt x="1112" y="655" on="0"/>
        <pt x="1082" y="652" on="1"/>
        <pt x="1056" y="650" on="0"/>
        <pt x="968" y="640" on="0"/>
        <pt x="899" y="631" on="1"/>
        <pt x="897" y="591" on="0"/>
        <pt x="897" y="494" on="0"/>
        <pt x="897" y="440" on="1"/>
        <pt x="897" y="371" on="0"/>
        <pt x="900" y="236" on="0"/>
        <pt x="905" y="182" on="1"/>
        <pt x="1008" y="182" on="1"/>
        <pt x="1065" y="182" on="0"/>
        <pt x="1176" y="185" on="0"/>
        <pt x="1223" y="188" on="1"/>
        <pt x="1290" y="193" on="0"/>
        <pt x="1411" y="205" on="0"/>
        <pt x="1507" y="215" on="0"/>
        <pt x="1570" y="220" on="0"/>
        <pt x="1579" y="219" on="1"/>
        <pt x="1586" y="217" on="0"/>
        <pt x="1614" y="219" on="0"/>
        <pt x="1644" y="223" on="0"/>
        <pt x="1671" y="227" on="0"/>
        <pt x="1679" y="229" on="1"/>
        <pt x="1687" y="230" on="0"/>
        <pt x="1705" y="221" on="0"/>
        <pt x="1721" y="206" on="0"/>
        <pt x="1732" y="190" on="0"/>
      </contour>
      <contour>
        <pt x="512" y="551" on="1"/>
        <pt x="537" y="551" on="0"/>
        <pt x="570" y="552" on="1"/>
        <pt x="628" y="554" on="0"/>
        <pt x="733" y="555" on="1"/>
        <pt x="735" y="589" on="0"/>
        <pt x="736" y="607" on="1"/>
        <pt x="737" y="618" on="0"/>
        <pt x="737" y="627" on="1"/>
        <pt x="741" y="721" on="0"/>
        <pt x="748" y="825" on="1"/>
        <pt x="754" y="914" on="0"/>
        <pt x="774" y="1136" on="0"/>
        <pt x="788" y="1251" on="1"/>
        <pt x="776" y="1251" on="1"/>
        <pt x="770" y="1242" on="0"/>
        <pt x="759" y="1227" on="0"/>
        <pt x="756" y="1221" on="1"/>
        <pt x="751" y="1213" on="0"/>
        <pt x="715" y="1144" on="0"/>
        <pt x="661" y="1043" on="0"/>
        <pt x="596" y="921" on="0"/>
        <pt x="529" y="796" on="0"/>
        <pt x="466" y="680" on="0"/>
        <pt x="442" y="637" on="1"/>
        <pt x="430" y="617" on="0"/>
        <pt x="405" y="570" on="0"/>
        <pt x="391" y="545" on="1"/>
      </contour>
    </TTGlyph>
    <TTGlyph name="AEacute" xMin="-22" yMin="-39" xMax="1733" yMax="1856">
      <component glyphName="AE" x="0" y="0" flags="0x204"/>
      <component glyphName="acute" x="739" y="588" flags="0x4"/>
    </TTGlyph>
    <TTGlyph name="Aacute" xMin="29" yMin="-42" xMax="1090" yMax="1843">
      <component glyphName="A" x="0" y="0" flags="0x204"/>
      <component glyphName="acute" x="164" y="575" flags="0x4"/>
    </TTGlyph>
    <TTGlyph name="Abreve" xMin="29" yMin="-42" xMax="1090" yMax="1847">
      <component glyphName="A" x="0" y="0" flags="0x204"/>
      <component glyphName="breve" x="104" y="575" flags="0x4"/>
    </TTGlyph>
    <TTGlyph name="Acircumflex" xMin="29" yMin="-42" xMax="1090" yMax="1839">
      <component glyphName="A" x="0" y="0" flags="0x204"/>
      <component glyphName="circumflex" x="94" y="575" flags="0x4"/>
    </TTGlyph>
    <TTGlyph name="Adieresis" xMin="29" yMin="-42" xMax="1090" yMax="1761">
      <component glyphName="A" x="0" y="0" flags="0x204"/>
      <component glyphName="dieresis" x="94" y="575" flags="0x4"/>
    </TTGlyph>
    <TTGlyph name="Agrave" xMin="29" yMin="-42" xMax="1090" yMax="1837">
      <component glyphName="A" x="0" y="0" flags="0x204"/>
      <component glyphName="grave" x="-1" y="575" flags="0x4"/>
    </TTGlyph>
    <TTGlyph name="Amacron" xMin="29" yMin="-42" xMax="1090" yMax="1746">
      <component glyphName="A" x="0" y="0" flags="0x204"/>
      <component glyphName="macron" x="94" y="575" flags="0x4"/>
    </TTGlyph>
    <TTGlyph name="Aogonek" xMin="29" yMin="-420" xMax="1151" yMax="1419">
      <contour>
        <pt x="1090" y="35" on="1"/>
        <pt x="1090" y="27" on="0"/>
        <pt x="1070" y="19" on="0"/>
        <pt x="1044" y="8" on="1"/>
        <pt x="988" y="-16" on="0"/>
        <pt x="901" y="-75" on="0"/>
        <pt x="842" y="-138" on="0"/>
        <pt x="811" y="-201" on="0"/>
        <pt x="811" y="-229" on="1"/>
        <pt x="811" y="-261" on="0"/>
        <pt x="863" y="-293" on="0"/>
        <pt x="895" y="-293" on="1"/>
        <pt x="926" y="-293" on="0"/>
        <pt x="980" y="-281" on="0"/>
        <pt x="1026" y="-263" on="0"/>
        <pt x="1065" y="-242" on="0"/>
        <pt x="1081" y="-233" on="1"/>
        <pt x="1085" y="-232" on="0"/>
        <pt x="1103" y="-225" on="0"/>
        <pt x="1118" y="-233" on="0"/>
        <pt x="1126" y="-264" on="0"/>
        <pt x="1120" y="-299" on="1"/>
        <pt x="1118" y="-311" on="0"/>
        <pt x="1128" y="-321" on="0"/>
        <pt x="1140" y="-328" on="0"/>
        <pt x="1151" y="-336" on="0"/>
        <pt x="1151" y="-344" on="1"/>
        <pt x="1151" y="-355" on="0"/>
        <pt x="1136" y="-370" on="0"/>
        <pt x="1128" y="-375" on="1"/>
        <pt x="1090" y="-396" on="0"/>
        <pt x="973" y="-420" on="0"/>
        <pt x="901" y="-420" on="1"/>
        <pt x="854" y="-420" on="0"/>
        <pt x="773" y="-397" on="0"/>
        <pt x="713" y="-355" on="0"/>
        <pt x="678" y="-295" on="0"/>
        <pt x="678" y="-258" on="1"/>
        <pt x="678" y="-216" on="0"/>
        <pt x="708" y="-145" on="0"/>
        <pt x="767" y="-81" on="0"/>
        <pt x="856" y="-22" on="0"/>
        <pt x="915" y="10" on="1"/>
        <pt x="908" y="19" on="0"/>
        <pt x="897" y="45" on="0"/>
        <pt x="888" y="74" on="0"/>
        <pt x="880" y="102" on="0"/>
        <pt x="877" y="113" on="1"/>
        <pt x="874" y="121" on="0"/>
        <pt x="857" y="177" on="0"/>
        <pt x="831" y="259" on="0"/>
        <pt x="798" y="364" on="0"/>
        <pt x="780" y="422" on="1"/>
        <pt x="765" y="422" on="0"/>
        <pt x="695" y="422" on="0"/>
        <pt x="609" y="421" on="0"/>
        <pt x="519" y="418" on="0"/>
        <pt x="483" y="416" on="1"/>
        <pt x="283" y="406" on="1"/>
        <pt x="166" y="100" on="1"/>
        <pt x="163" y="95" on="0"/>
        <pt x="152" y="65" on="0"/>
        <pt x="140" y="32" on="0"/>
        <pt x="130" y="3" on="0"/>
        <pt x="129" y="0" on="1"/>
        <pt x="127" y="-8" on="0"/>
        <pt x="107" y="-12" on="0"/>
        <pt x="100" y="-14" on="1"/>
        <pt x="94" y="-16" on="0"/>
        <pt x="86" y="-34" on="0"/>
        <pt x="78" y="-37" on="1"/>
        <pt x="70" y="-42" on="0"/>
        <pt x="46" y="-34" on="0"/>
        <pt x="37" y="-25" on="1"/>
        <pt x="29" y="-15" on="0"/>
        <pt x="33" y="16" on="0"/>
        <pt x="33" y="33" on="1"/>
        <pt x="33" y="50" on="0"/>
        <pt x="32" y="80" on="0"/>
        <pt x="37" y="94" on="1"/>
        <pt x="39" y="100" on="0"/>
        <pt x="60" y="163" on="0"/>
        <pt x="92" y="252" on="0"/>
        <pt x="130" y="357" on="0"/>
        <pt x="150" y="406" on="1"/>
        <pt x="132" y="406" on="0"/>
        <pt x="125" y="416" on="1"/>
        <pt x="120" y="424" on="0"/>
        <pt x="106" y="427" on="0"/>
        <pt x="98" y="430" on="1"/>
        <pt x="90" y="432" on="0"/>
        <pt x="84" y="446" on="0"/>
        <pt x="86" y="451" on="1"/>
        <pt x="88" y="457" on="0"/>
        <pt x="78" y="465" on="0"/>
        <pt x="78" y="479" on="1"/>
        <pt x="78" y="485" on="0"/>
        <pt x="97" y="496" on="0"/>
        <pt x="125" y="504" on="0"/>
        <pt x="160" y="510" on="0"/>
        <pt x="176" y="512" on="1"/>
        <pt x="179" y="512" on="0"/>
        <pt x="188" y="512" on="0"/>
        <pt x="193" y="514" on="1"/>
        <pt x="219" y="574" on="0"/>
        <pt x="282" y="716" on="0"/>
        <pt x="349" y="862" on="0"/>
        <pt x="416" y="1003" on="0"/>
        <pt x="472" y="1119" on="0"/>
        <pt x="513" y="1203" on="0"/>
        <pt x="522" y="1219" on="1"/>
        <pt x="504" y="1279" on="0"/>
        <pt x="481" y="1355" on="0"/>
        <pt x="481" y="1358" on="1"/>
        <pt x="480" y="1360" on="0"/>
        <pt x="481" y="1362" on="1"/>
        <pt x="483" y="1367" on="0"/>
        <pt x="489" y="1368" on="1"/>
        <pt x="485" y="1376" on="0"/>
        <pt x="483" y="1387" on="0"/>
        <pt x="483" y="1390" on="1"/>
        <pt x="483" y="1394" on="0"/>
        <pt x="485" y="1395" on="1"/>
        <pt x="488" y="1400" on="0"/>
        <pt x="505" y="1405" on="0"/>
        <pt x="510" y="1405" on="1"/>
        <pt x="511" y="1405" on="0"/>
        <pt x="515" y="1404" on="1"/>
        <pt x="521" y="1402" on="0"/>
        <pt x="532" y="1395" on="1"/>
        <pt x="533" y="1400" on="0"/>
        <pt x="536" y="1404" on="0"/>
        <pt x="538" y="1406" on="1"/>
        <pt x="541" y="1409" on="1"/>
        <pt x="546" y="1412" on="0"/>
        <pt x="558" y="1409" on="0"/>
        <pt x="563" y="1409" on="1"/>
        <pt x="569" y="1409" on="0"/>
        <pt x="574" y="1419" on="0"/>
        <pt x="582" y="1419" on="1"/>
        <pt x="593" y="1419" on="0"/>
        <pt x="602" y="1391" on="1"/>
        <pt x="604" y="1386" on="0"/>
        <pt x="629" y="1321" on="0"/>
        <pt x="670" y="1216" on="0"/>
        <pt x="724" y="1078" on="0"/>
        <pt x="782" y="923" on="0"/>
        <pt x="842" y="758" on="0"/>
        <pt x="870" y="678" on="1"/>
        <pt x="927" y="515" on="0"/>
        <pt x="1004" y="291" on="0"/>
        <pt x="1053" y="149" on="0"/>
        <pt x="1076" y="79" on="0"/>
        <pt x="1079" y="72" on="1"/>
        <pt x="1084" y="56" on="0"/>
        <pt x="1090" y="38" on="0"/>
      </contour>
      <contour>
        <pt x="684" y="713" on="1"/>
        <pt x="670" y="753" on="0"/>
        <pt x="639" y="848" on="0"/>
        <pt x="606" y="949" on="0"/>
        <pt x="574" y="1052" on="0"/>
        <pt x="559" y="1100" on="1"/>
        <pt x="356" y="590" on="1"/>
        <pt x="328" y="524" on="1"/>
        <pt x="508" y="535" on="1"/>
        <pt x="534" y="535" on="0"/>
        <pt x="569" y="536" on="1"/>
        <pt x="629" y="537" on="0"/>
        <pt x="743" y="539" on="1"/>
      </contour>
    </TTGlyph>
    <TTGlyph name="Aring" xMin="29" yMin="-42" xMax="1090" yMax="1933">
      <component glyphName="A" x="0" y="0" flags="0x204"/>
      <component glyphName="ring" x="102" y="575" flags="0x4"/>
    </TTGlyph>
    <TTGlyph name="Atilde" xMin="29" yMin="-42" xMax="1090" yMax="1824">
      <component glyphName="A" x="0" y="0" flags="0x204"/>
      <component glyphName="tilde" x="94" y="575" flags="0x4"/>
    </TTGlyph>
    <TTGlyph name="B" xMin="23" yMin="-37" xMax="1026" yMax="1460">
      <contour>
        <pt x="334" y="1206" on="1"/>
        <pt x="334" y="1182" on="0"/>
        <pt x="332" y="1107" on="0"/>
        <pt x="329" y="1011" on="0"/>
        <pt x="325" y="900" on="0"/>
        <pt x="324" y="840" on="1"/>
        <pt x="353" y="857" on="0"/>
        <pt x="434" y="890" on="0"/>
        <pt x="523" y="928" on="0"/>
        <pt x="612" y="972" on="0"/>
        <pt x="649" y="999" on="1"/>
        <pt x="740" y="1068" on="0"/>
        <pt x="831" y="1181" on="0"/>
        <pt x="831" y="1229" on="1"/>
        <pt x="831" y="1249" on="0"/>
        <pt x="818" y="1277" on="0"/>
        <pt x="809" y="1288" on="1"/>
        <pt x="786" y="1301" on="0"/>
        <pt x="695" y="1319" on="0"/>
        <pt x="629" y="1319" on="1"/>
        <pt x="567" y="1319" on="0"/>
        <pt x="442" y="1300" on="0"/>
        <pt x="326" y="1271" on="0"/>
        <pt x="225" y="1237" on="0"/>
        <pt x="147" y="1207" on="0"/>
        <pt x="99" y="1184" on="0"/>
        <pt x="94" y="1182" on="1"/>
        <pt x="89" y="1180" on="0"/>
        <pt x="76" y="1171" on="0"/>
        <pt x="70" y="1171" on="1"/>
        <pt x="57" y="1171" on="0"/>
        <pt x="47" y="1191" on="0"/>
        <pt x="49" y="1202" on="1"/>
        <pt x="41" y="1205" on="0"/>
        <pt x="31" y="1222" on="0"/>
        <pt x="25" y="1242" on="0"/>
        <pt x="23" y="1261" on="0"/>
        <pt x="23" y="1266" on="1"/>
        <pt x="23" y="1286" on="0"/>
        <pt x="58" y="1317" on="0"/>
        <pt x="86" y="1329" on="1"/>
        <pt x="93" y="1332" on="0"/>
        <pt x="140" y="1354" on="0"/>
        <pt x="213" y="1383" on="0"/>
        <pt x="305" y="1415" on="0"/>
        <pt x="409" y="1442" on="0"/>
        <pt x="519" y="1460" on="0"/>
        <pt x="573" y="1460" on="1"/>
        <pt x="612" y="1459" on="0"/>
        <pt x="700" y="1452" on="0"/>
        <pt x="786" y="1430" on="0"/>
        <pt x="861" y="1390" on="0"/>
        <pt x="887" y="1356" on="1"/>
        <pt x="915" y="1334" on="0"/>
        <pt x="958" y="1259" on="0"/>
        <pt x="958" y="1206" on="1"/>
        <pt x="958" y="1169" on="0"/>
        <pt x="945" y="1110" on="0"/>
        <pt x="940" y="1098" on="1"/>
        <pt x="914" y="1033" on="0"/>
        <pt x="833" y="939" on="0"/>
        <pt x="740" y="872" on="0"/>
        <pt x="646" y="826" on="0"/>
        <pt x="608" y="811" on="1"/>
        <pt x="650" y="811" on="0"/>
        <pt x="739" y="803" on="0"/>
        <pt x="826" y="782" on="0"/>
        <pt x="906" y="742" on="0"/>
        <pt x="940" y="711" on="1"/>
        <pt x="962" y="687" on="0"/>
        <pt x="980" y="659" on="1"/>
        <pt x="995" y="635" on="0"/>
        <pt x="1020" y="570" on="0"/>
        <pt x="1020" y="532" on="1"/>
        <pt x="1026" y="508" on="0"/>
        <pt x="1026" y="477" on="1"/>
        <pt x="1026" y="442" on="0"/>
        <pt x="1020" y="399" on="1"/>
        <pt x="1015" y="361" on="0"/>
        <pt x="975" y="259" on="0"/>
        <pt x="891" y="151" on="0"/>
        <pt x="756" y="48" on="0"/>
        <pt x="655" y="10" on="1"/>
        <pt x="592" y="-15" on="0"/>
        <pt x="488" y="-37" on="0"/>
        <pt x="446" y="-37" on="1"/>
        <pt x="426" y="-37" on="0"/>
        <pt x="379" y="-29" on="0"/>
        <pt x="338" y="-14" on="0"/>
        <pt x="311" y="8" on="0"/>
        <pt x="311" y="23" on="1"/>
        <pt x="311" y="31" on="0"/>
        <pt x="301" y="38" on="0"/>
        <pt x="295" y="43" on="1"/>
        <pt x="290" y="26" on="0"/>
        <pt x="277" y="6" on="0"/>
        <pt x="270" y="0" on="1"/>
        <pt x="262" y="-7" on="0"/>
        <pt x="254" y="-10" on="1"/>
        <pt x="250" y="-10" on="0"/>
        <pt x="247" y="-8" on="1"/>
        <pt x="241" y="-7" on="0"/>
        <pt x="238" y="0" on="1"/>
        <pt x="234" y="-8" on="0"/>
        <pt x="221" y="-25" on="0"/>
        <pt x="215" y="-25" on="1"/>
        <pt x="212" y="-25" on="0"/>
        <pt x="201" y="-24" on="0"/>
        <pt x="190" y="2" on="0"/>
        <pt x="179" y="65" on="0"/>
        <pt x="170" y="192" on="0"/>
        <pt x="164" y="394" on="0"/>
        <pt x="164" y="545" on="1"/>
        <pt x="164" y="606" on="0"/>
        <pt x="164" y="741" on="0"/>
        <pt x="166" y="872" on="0"/>
        <pt x="171" y="993" on="0"/>
        <pt x="180" y="1092" on="0"/>
        <pt x="194" y="1159" on="0"/>
        <pt x="205" y="1171" on="1"/>
        <pt x="213" y="1181" on="0"/>
        <pt x="254" y="1199" on="0"/>
        <pt x="294" y="1214" on="0"/>
        <pt x="324" y="1223" on="0"/>
        <pt x="322" y="1225" on="1"/>
        <pt x="327" y="1223" on="0"/>
        <pt x="334" y="1214" on="0"/>
      </contour>
      <contour>
        <pt x="369" y="690" on="1"/>
        <pt x="362" y="690" on="0"/>
        <pt x="335" y="706" on="0"/>
        <pt x="319" y="717" on="1"/>
        <pt x="316" y="633" on="0"/>
        <pt x="310" y="465" on="0"/>
        <pt x="304" y="314" on="0"/>
        <pt x="301" y="186" on="0"/>
        <pt x="301" y="143" on="1"/>
        <pt x="313" y="162" on="0"/>
        <pt x="341" y="197" on="0"/>
        <pt x="368" y="224" on="0"/>
        <pt x="391" y="240" on="0"/>
        <pt x="397" y="240" on="1"/>
        <pt x="399" y="240" on="0"/>
        <pt x="401" y="239" on="1"/>
        <pt x="403" y="238" on="0"/>
        <pt x="410" y="231" on="1"/>
        <pt x="412" y="231" on="0"/>
        <pt x="416" y="233" on="0"/>
        <pt x="418" y="233" on="1"/>
        <pt x="426" y="233" on="0"/>
        <pt x="434" y="219" on="0"/>
        <pt x="434" y="199" on="1"/>
        <pt x="434" y="188" on="0"/>
        <pt x="422" y="172" on="0"/>
        <pt x="407" y="159" on="0"/>
        <pt x="392" y="147" on="0"/>
        <pt x="389" y="141" on="1"/>
        <pt x="397" y="139" on="0"/>
        <pt x="413" y="137" on="0"/>
        <pt x="430" y="137" on="1"/>
        <pt x="439" y="138" on="0"/>
        <pt x="494" y="143" on="0"/>
        <pt x="580" y="168" on="0"/>
        <pt x="693" y="222" on="0"/>
        <pt x="760" y="272" on="1"/>
        <pt x="817" y="315" on="0"/>
        <pt x="887" y="405" on="0"/>
        <pt x="924" y="484" on="0"/>
        <pt x="936" y="544" on="0"/>
        <pt x="936" y="557" on="1"/>
        <pt x="932" y="594" on="0"/>
        <pt x="877" y="655" on="0"/>
        <pt x="786" y="699" on="0"/>
        <pt x="664" y="723" on="0"/>
        <pt x="594" y="723" on="1"/>
        <pt x="547" y="723" on="0"/>
        <pt x="475" y="713" on="0"/>
        <pt x="420" y="700" on="0"/>
        <pt x="382" y="690" on="0"/>
      </contour>
    </TTGlyph>
    <TTGlyph name="C" xMin="70" yMin="-8" xMax="1237" yMax="1399">
      <contour>
        <pt x="827" y="1399" on="1"/>
        <pt x="863" y="1399" on="0"/>
        <pt x="952" y="1387" on="0"/>
        <pt x="1039" y="1359" on="0"/>
        <pt x="1113" y="1314" on="0"/>
        <pt x="1133" y="1280" on="1"/>
        <pt x="1158" y="1262" on="0"/>
        <pt x="1178" y="1227" on="1"/>
        <pt x="1196" y="1189" on="0"/>
        <pt x="1196" y="1155" on="1"/>
        <pt x="1196" y="1117" on="0"/>
        <pt x="1169" y="1053" on="0"/>
        <pt x="1127" y="1001" on="0"/>
        <pt x="1078" y="961" on="0"/>
        <pt x="1032" y="934" on="0"/>
        <pt x="998" y="920" on="0"/>
        <pt x="993" y="920" on="1"/>
        <pt x="988" y="920" on="0"/>
        <pt x="965" y="930" on="0"/>
        <pt x="954" y="937" on="1"/>
        <pt x="941" y="944" on="0"/>
        <pt x="926" y="954" on="1"/>
        <pt x="926" y="955" on="0"/>
        <pt x="964" y="977" on="0"/>
        <pt x="1011" y="1023" on="0"/>
        <pt x="1049" y="1098" on="0"/>
        <pt x="1049" y="1153" on="1"/>
        <pt x="1040" y="1171" on="0"/>
        <pt x="1008" y="1204" on="0"/>
        <pt x="958" y="1229" on="0"/>
        <pt x="887" y="1245" on="0"/>
        <pt x="838" y="1245" on="1"/>
        <pt x="821" y="1245" on="0"/>
        <pt x="751" y="1235" on="0"/>
        <pt x="659" y="1209" on="0"/>
        <pt x="552" y="1164" on="0"/>
        <pt x="445" y="1091" on="0"/>
        <pt x="346" y="988" on="0"/>
        <pt x="270" y="849" on="0"/>
        <pt x="225" y="669" on="0"/>
        <pt x="225" y="555" on="1"/>
        <pt x="225" y="493" on="0"/>
        <pt x="245" y="392" on="0"/>
        <pt x="278" y="311" on="0"/>
        <pt x="322" y="248" on="0"/>
        <pt x="346" y="223" on="1"/>
        <pt x="361" y="215" on="0"/>
        <pt x="399" y="190" on="0"/>
        <pt x="464" y="167" on="0"/>
        <pt x="566" y="150" on="0"/>
        <pt x="645" y="150" on="1"/>
        <pt x="713" y="150" on="0"/>
        <pt x="836" y="182" on="0"/>
        <pt x="943" y="232" on="0"/>
        <pt x="1033" y="293" on="0"/>
        <pt x="1102" y="352" on="0"/>
        <pt x="1148" y="401" on="0"/>
        <pt x="1157" y="414" on="1"/>
        <pt x="1176" y="440" on="0"/>
        <pt x="1192" y="455" on="0"/>
        <pt x="1198" y="455" on="1"/>
        <pt x="1203" y="455" on="0"/>
        <pt x="1212" y="453" on="0"/>
        <pt x="1217" y="453" on="1"/>
        <pt x="1226" y="453" on="0"/>
        <pt x="1230" y="471" on="0"/>
        <pt x="1233" y="471" on="1"/>
        <pt x="1235" y="471" on="0"/>
        <pt x="1237" y="455" on="0"/>
        <pt x="1237" y="444" on="1"/>
        <pt x="1237" y="438" on="0"/>
        <pt x="1235" y="427" on="0"/>
        <pt x="1235" y="422" on="1"/>
        <pt x="1234" y="416" on="0"/>
        <pt x="1219" y="347" on="0"/>
        <pt x="1178" y="252" on="0"/>
        <pt x="1104" y="144" on="0"/>
        <pt x="987" y="52" on="0"/>
        <pt x="819" y="-8" on="0"/>
        <pt x="705" y="-8" on="1"/>
        <pt x="636" y="-8" on="0"/>
        <pt x="519" y="17" on="0"/>
        <pt x="426" y="54" on="0"/>
        <pt x="354" y="99" on="0"/>
        <pt x="330" y="119" on="1"/>
        <pt x="279" y="148" on="0"/>
        <pt x="185" y="238" on="0"/>
        <pt x="113" y="364" on="0"/>
        <pt x="70" y="531" on="0"/>
        <pt x="70" y="637" on="1"/>
        <pt x="70" y="743" on="0"/>
        <pt x="126" y="939" on="0"/>
        <pt x="227" y="1109" on="0"/>
        <pt x="367" y="1247" on="0"/>
        <pt x="535" y="1345" on="0"/>
        <pt x="726" y="1399" on="0"/>
      </contour>
    </TTGlyph>
    <TTGlyph name="Cacute" xMin="70" yMin="-8" xMax="1237" yMax="1827">
      <component glyphName="C" x="0" y="0" flags="0x204"/>
      <component glyphName="acute" x="389" y="559" flags="0x4"/>
    </TTGlyph>
    <TTGlyph name="Ccaron" xMin="70" yMin="-8" xMax="1237" yMax="1823">
      <component glyphName="C" x="0" y="0" flags="0x204"/>
      <component glyphName="caron" x="365" y="559" flags="0x4"/>
    </TTGlyph>
    <TTGlyph name="Ccedilla" xMin="70" yMin="-502" xMax="1237" yMax="1399">
      <contour>
        <pt x="1133" y="1280" on="1"/>
        <pt x="1158" y="1262" on="0"/>
        <pt x="1178" y="1227" on="1"/>
        <pt x="1196" y="1189" on="0"/>
        <pt x="1196" y="1155" on="1"/>
        <pt x="1196" y="1117" on="0"/>
        <pt x="1169" y="1053" on="0"/>
        <pt x="1127" y="1001" on="0"/>
        <pt x="1078" y="961" on="0"/>
        <pt x="1032" y="934" on="0"/>
        <pt x="998" y="920" on="0"/>
        <pt x="993" y="920" on="1"/>
        <pt x="988" y="920" on="0"/>
        <pt x="965" y="930" on="0"/>
        <pt x="954" y="937" on="1"/>
        <pt x="941" y="944" on="0"/>
        <pt x="926" y="954" on="1"/>
        <pt x="926" y="955" on="0"/>
        <pt x="964" y="977" on="0"/>
        <pt x="1011" y="1023" on="0"/>
        <pt x="1049" y="1098" on="0"/>
        <pt x="1049" y="1153" on="1"/>
        <pt x="1040" y="1171" on="0"/>
        <pt x="1008" y="1204" on="0"/>
        <pt x="958" y="1229" on="0"/>
        <pt x="887" y="1245" on="0"/>
        <pt x="838" y="1245" on="1"/>
        <pt x="821" y="1245" on="0"/>
        <pt x="751" y="1235" on="0"/>
        <pt x="659" y="1209" on="0"/>
        <pt x="552" y="1164" on="0"/>
        <pt x="445" y="1091" on="0"/>
        <pt x="346" y="988" on="0"/>
        <pt x="270" y="849" on="0"/>
        <pt x="225" y="669" on="0"/>
        <pt x="225" y="555" on="1"/>
        <pt x="225" y="493" on="0"/>
        <pt x="245" y="392" on="0"/>
        <pt x="278" y="311" on="0"/>
        <pt x="322" y="248" on="0"/>
        <pt x="346" y="223" on="1"/>
        <pt x="361" y="215" on="0"/>
        <pt x="399" y="190" on="0"/>
        <pt x="464" y="167" on="0"/>
        <pt x="566" y="150" on="0"/>
        <pt x="645" y="150" on="1"/>
        <pt x="713" y="150" on="0"/>
        <pt x="836" y="182" on="0"/>
        <pt x="943" y="232" on="0"/>
        <pt x="1033" y="293" on="0"/>
        <pt x="1102" y="352" on="0"/>
        <pt x="1148" y="401" on="0"/>
        <pt x="1157" y="414" on="1"/>
        <pt x="1176" y="440" on="0"/>
        <pt x="1192" y="455" on="0"/>
        <pt x="1198" y="455" on="1"/>
        <pt x="1203" y="455" on="0"/>
        <pt x="1212" y="453" on="0"/>
        <pt x="1217" y="453" on="1"/>
        <pt x="1226" y="453" on="0"/>
        <pt x="1230" y="471" on="0"/>
        <pt x="1233" y="471" on="1"/>
        <pt x="1235" y="471" on="0"/>
        <pt x="1237" y="455" on="0"/>
        <pt x="1237" y="444" on="1"/>
        <pt x="1237" y="438" on="0"/>
        <pt x="1235" y="427" on="0"/>
        <pt x="1235" y="422" on="1"/>
        <pt x="1234" y="416" on="0"/>
        <pt x="1219" y="347" on="0"/>
        <pt x="1178" y="252" on="0"/>
        <pt x="1105" y="145" on="0"/>
        <pt x="988" y="53" on="0"/>
        <pt x="822" y="-8" on="0"/>
        <pt x="709" y="-8" on="1"/>
        <pt x="678" y="-88" on="1"/>
        <pt x="790" y="-93" on="0"/>
        <pt x="889" y="-182" on="0"/>
        <pt x="889" y="-250" on="1"/>
        <pt x="889" y="-287" on="0"/>
        <pt x="856" y="-375" on="0"/>
        <pt x="785" y="-451" on="0"/>
        <pt x="676" y="-502" on="0"/>
        <pt x="600" y="-502" on="1"/>
        <pt x="565" y="-502" on="0"/>
        <pt x="488" y="-481" on="0"/>
        <pt x="444" y="-455" on="1"/>
        <pt x="438" y="-452" on="0"/>
        <pt x="438" y="-446" on="1"/>
        <pt x="438" y="-445" on="0"/>
        <pt x="451" y="-406" on="0"/>
        <pt x="470" y="-361" on="0"/>
        <pt x="491" y="-324" on="0"/>
        <pt x="498" y="-324" on="1"/>
        <pt x="500" y="-324" on="0"/>
        <pt x="502" y="-326" on="0"/>
        <pt x="504" y="-326" on="1"/>
        <pt x="527" y="-339" on="0"/>
        <pt x="576" y="-357" on="0"/>
        <pt x="622" y="-369" on="0"/>
        <pt x="663" y="-375" on="0"/>
        <pt x="678" y="-375" on="1"/>
        <pt x="731" y="-375" on="0"/>
        <pt x="788" y="-335" on="0"/>
        <pt x="788" y="-301" on="1"/>
        <pt x="788" y="-277" on="0"/>
        <pt x="772" y="-239" on="0"/>
        <pt x="733" y="-212" on="0"/>
        <pt x="667" y="-197" on="0"/>
        <pt x="616" y="-197" on="1"/>
        <pt x="608" y="-197" on="0"/>
        <pt x="585" y="-197" on="0"/>
        <pt x="564" y="-191" on="0"/>
        <pt x="552" y="-178" on="0"/>
        <pt x="557" y="-166" on="1"/>
        <pt x="569" y="-132" on="0"/>
        <pt x="599" y="-45" on="0"/>
        <pt x="616" y="-2" on="1"/>
        <pt x="565" y="5" on="0"/>
        <pt x="477" y="32" on="0"/>
        <pt x="406" y="65" on="0"/>
        <pt x="350" y="102" on="0"/>
        <pt x="330" y="119" on="1"/>
        <pt x="279" y="148" on="0"/>
        <pt x="185" y="238" on="0"/>
        <pt x="113" y="364" on="0"/>
        <pt x="70" y="531" on="0"/>
        <pt x="70" y="637" on="1"/>
        <pt x="70" y="743" on="0"/>
        <pt x="126" y="939" on="0"/>
        <pt x="227" y="1109" on="0"/>
        <pt x="367" y="1247" on="0"/>
        <pt x="535" y="1345" on="0"/>
        <pt x="726" y="1399" on="0"/>
        <pt x="827" y="1399" on="1"/>
        <pt x="863" y="1399" on="0"/>
        <pt x="952" y="1389" on="0"/>
        <pt x="1039" y="1362" on="0"/>
        <pt x="1113" y="1316" on="0"/>
      </contour>
    </TTGlyph>
    <TTGlyph name="Ccircumflex" xMin="70" yMin="-8" xMax="1237" yMax="1823">
      <component glyphName="C" x="0" y="0" flags="0x204"/>
      <component glyphName="circumflex" x="319" y="559" flags="0x4"/>
    </TTGlyph>
    <TTGlyph name="Cdotaccent" xMin="70" yMin="-8" xMax="1237" yMax="1790">
      <component glyphName="C" x="0" y="0" flags="0x204"/>
      <component glyphName="dotaccent" x="328" y="559" flags="0x4"/>
    </TTGlyph>
    <TTGlyph name="D" xMin="20" yMin="39" xMax="1268" yMax="1393">
      <contour>
        <pt x="399" y="1186" on="1"/>
        <pt x="399" y="1185" on="0"/>
        <pt x="398" y="1125" on="0"/>
        <pt x="397" y="1025" on="0"/>
        <pt x="396" y="893" on="0"/>
        <pt x="394" y="746" on="0"/>
        <pt x="393" y="592" on="0"/>
        <pt x="392" y="449" on="0"/>
        <pt x="391" y="325" on="0"/>
        <pt x="391" y="281" on="1"/>
        <pt x="391" y="221" on="1"/>
        <pt x="405" y="219" on="0"/>
        <pt x="432" y="219" on="0"/>
        <pt x="446" y="219" on="1"/>
        <pt x="488" y="219" on="0"/>
        <pt x="605" y="235" on="0"/>
        <pt x="740" y="288" on="0"/>
        <pt x="887" y="389" on="0"/>
        <pt x="958" y="475" on="1"/>
        <pt x="1043" y="577" on="0"/>
        <pt x="1116" y="781" on="0"/>
        <pt x="1116" y="883" on="1"/>
        <pt x="1116" y="969" on="0"/>
        <pt x="1080" y="1095" on="0"/>
        <pt x="1015" y="1182" on="0"/>
        <pt x="926" y="1236" on="0"/>
        <pt x="819" y="1266" on="0"/>
        <pt x="698" y="1276" on="0"/>
        <pt x="635" y="1276" on="1"/>
        <pt x="590" y="1276" on="0"/>
        <pt x="472" y="1254" on="0"/>
        <pt x="347" y="1220" on="0"/>
        <pt x="225" y="1182" on="0"/>
        <pt x="126" y="1148" on="0"/>
        <pt x="60" y="1126" on="0"/>
        <pt x="53" y="1126" on="1"/>
        <pt x="43" y="1136" on="0"/>
        <pt x="36" y="1145" on="1"/>
        <pt x="30" y="1152" on="0"/>
        <pt x="20" y="1164" on="0"/>
        <pt x="20" y="1165" on="1"/>
        <pt x="20" y="1167" on="0"/>
        <pt x="23" y="1170" on="1"/>
        <pt x="25" y="1172" on="0"/>
        <pt x="35" y="1178" on="0"/>
        <pt x="45" y="1180" on="1"/>
        <pt x="42" y="1186" on="0"/>
        <pt x="41" y="1190" on="0"/>
        <pt x="41" y="1192" on="1"/>
        <pt x="41" y="1195" on="0"/>
        <pt x="43" y="1201" on="0"/>
        <pt x="51" y="1204" on="1"/>
        <pt x="36" y="1211" on="0"/>
        <pt x="24" y="1222" on="0"/>
        <pt x="21" y="1228" on="0"/>
        <pt x="23" y="1230" on="0"/>
        <pt x="23" y="1229" on="1"/>
        <pt x="23" y="1232" on="0"/>
        <pt x="31" y="1234" on="0"/>
        <pt x="33" y="1239" on="1"/>
        <pt x="33" y="1240" on="0"/>
        <pt x="45" y="1264" on="0"/>
        <pt x="84" y="1296" on="0"/>
        <pt x="156" y="1330" on="0"/>
        <pt x="217" y="1343" on="1"/>
        <pt x="238" y="1348" on="0"/>
        <pt x="310" y="1365" on="0"/>
        <pt x="405" y="1381" on="0"/>
        <pt x="517" y="1393" on="0"/>
        <pt x="578" y="1393" on="1"/>
        <pt x="745" y="1393" on="0"/>
        <pt x="1003" y="1294" on="0"/>
        <pt x="1178" y="1128" on="0"/>
        <pt x="1268" y="910" on="0"/>
        <pt x="1268" y="791" on="1"/>
        <pt x="1268" y="721" on="0"/>
        <pt x="1230" y="573" on="0"/>
        <pt x="1159" y="429" on="0"/>
        <pt x="1059" y="295" on="0"/>
        <pt x="935" y="184" on="0"/>
        <pt x="792" y="100" on="0"/>
        <pt x="713" y="78" on="1"/>
        <pt x="634" y="56" on="0"/>
        <pt x="505" y="39" on="0"/>
        <pt x="451" y="39" on="1"/>
        <pt x="379" y="39" on="0"/>
        <pt x="289" y="56" on="0"/>
        <pt x="240" y="77" on="0"/>
        <pt x="223" y="97" on="0"/>
        <pt x="223" y="100" on="1"/>
        <pt x="217" y="106" on="0"/>
        <pt x="217" y="119" on="1"/>
        <pt x="218" y="143" on="0"/>
        <pt x="222" y="257" on="1"/>
        <pt x="224" y="305" on="0"/>
        <pt x="229" y="451" on="0"/>
        <pt x="236" y="658" on="0"/>
        <pt x="247" y="936" on="0"/>
        <pt x="254" y="1116" on="1"/>
        <pt x="254" y="1137" on="0"/>
        <pt x="277" y="1153" on="0"/>
        <pt x="311" y="1161" on="0"/>
        <pt x="350" y="1168" on="0"/>
        <pt x="365" y="1180" on="1"/>
        <pt x="371" y="1185" on="0"/>
        <pt x="386" y="1192" on="0"/>
        <pt x="391" y="1192" on="1"/>
        <pt x="399" y="1192" on="0"/>
      </contour>
    </TTGlyph>
    <TTGlyph name="Dcaron" xMin="20" yMin="39" xMax="1268" yMax="1817">
      <component glyphName="D" x="0" y="0" flags="0x204"/>
      <component glyphName="caron" x="190" y="553" flags="0x4"/>
    </TTGlyph>
    <TTGlyph name="Dcroat" xMin="20" yMin="39" xMax="1268" yMax="1393">
      <contour>
        <pt x="637" y="727" on="1"/>
        <pt x="637" y="723" on="0"/>
        <pt x="631" y="717" on="0"/>
        <pt x="624" y="707" on="0"/>
        <pt x="618" y="692" on="0"/>
        <pt x="618" y="680" on="1"/>
        <pt x="618" y="677" on="0"/>
        <pt x="621" y="673" on="0"/>
        <pt x="621" y="670" on="1"/>
        <pt x="621" y="667" on="0"/>
        <pt x="604" y="657" on="0"/>
        <pt x="573" y="657" on="1"/>
        <pt x="549" y="657" on="0"/>
        <pt x="465" y="662" on="0"/>
        <pt x="414" y="662" on="1"/>
        <pt x="393" y="662" on="1"/>
        <pt x="392" y="606" on="0"/>
        <pt x="391" y="497" on="0"/>
        <pt x="391" y="398" on="0"/>
        <pt x="391" y="313" on="0"/>
        <pt x="391" y="281" on="1"/>
        <pt x="391" y="221" on="1"/>
        <pt x="405" y="219" on="0"/>
        <pt x="432" y="219" on="0"/>
        <pt x="446" y="219" on="1"/>
        <pt x="488" y="219" on="0"/>
        <pt x="605" y="235" on="0"/>
        <pt x="740" y="288" on="0"/>
        <pt x="887" y="389" on="0"/>
        <pt x="958" y="475" on="1"/>
        <pt x="1043" y="577" on="0"/>
        <pt x="1116" y="781" on="0"/>
        <pt x="1116" y="883" on="1"/>
        <pt x="1116" y="969" on="0"/>
        <pt x="1079" y="1095" on="0"/>
        <pt x="1015" y="1182" on="0"/>
        <pt x="927" y="1236" on="0"/>
        <pt x="827" y="1266" on="0"/>
        <pt x="717" y="1276" on="0"/>
        <pt x="662" y="1276" on="1"/>
        <pt x="604" y="1276" on="0"/>
        <pt x="472" y="1254" on="0"/>
        <pt x="341" y="1220" on="0"/>
        <pt x="219" y="1182" on="0"/>
        <pt x="123" y="1148" on="0"/>
        <pt x="60" y="1126" on="0"/>
        <pt x="53" y="1126" on="1"/>
        <pt x="43" y="1136" on="0"/>
        <pt x="36" y="1145" on="1"/>
        <pt x="30" y="1152" on="0"/>
        <pt x="20" y="1164" on="0"/>
        <pt x="20" y="1165" on="1"/>
        <pt x="20" y="1167" on="0"/>
        <pt x="23" y="1170" on="1"/>
        <pt x="25" y="1172" on="0"/>
        <pt x="35" y="1178" on="0"/>
        <pt x="45" y="1180" on="1"/>
        <pt x="42" y="1186" on="0"/>
        <pt x="41" y="1190" on="0"/>
        <pt x="41" y="1192" on="1"/>
        <pt x="41" y="1195" on="0"/>
        <pt x="43" y="1201" on="0"/>
        <pt x="51" y="1204" on="1"/>
        <pt x="36" y="1211" on="0"/>
        <pt x="24" y="1222" on="0"/>
        <pt x="21" y="1228" on="0"/>
        <pt x="23" y="1230" on="0"/>
        <pt x="23" y="1229" on="1"/>
        <pt x="23" y="1232" on="0"/>
        <pt x="31" y="1234" on="0"/>
        <pt x="33" y="1239" on="1"/>
        <pt x="33" y="1240" on="0"/>
        <pt x="45" y="1264" on="0"/>
        <pt x="84" y="1296" on="0"/>
        <pt x="156" y="1330" on="0"/>
        <pt x="217" y="1343" on="1"/>
        <pt x="238" y="1348" on="0"/>
        <pt x="310" y="1365" on="0"/>
        <pt x="405" y="1381" on="0"/>
        <pt x="517" y="1393" on="0"/>
        <pt x="578" y="1393" on="1"/>
        <pt x="745" y="1393" on="0"/>
        <pt x="1003" y="1294" on="0"/>
        <pt x="1178" y="1128" on="0"/>
        <pt x="1268" y="910" on="0"/>
        <pt x="1268" y="791" on="1"/>
        <pt x="1268" y="721" on="0"/>
        <pt x="1230" y="573" on="0"/>
        <pt x="1159" y="429" on="0"/>
        <pt x="1059" y="295" on="0"/>
        <pt x="935" y="184" on="0"/>
        <pt x="792" y="100" on="0"/>
        <pt x="713" y="78" on="1"/>
        <pt x="634" y="56" on="0"/>
        <pt x="505" y="39" on="0"/>
        <pt x="451" y="39" on="1"/>
        <pt x="379" y="39" on="0"/>
        <pt x="289" y="56" on="0"/>
        <pt x="240" y="77" on="0"/>
        <pt x="223" y="97" on="0"/>
        <pt x="223" y="100" on="1"/>
        <pt x="217" y="106" on="0"/>
        <pt x="217" y="119" on="1"/>
        <pt x="217" y="139" on="0"/>
        <pt x="219" y="201" on="1"/>
        <pt x="220" y="228" on="0"/>
        <pt x="222" y="305" on="0"/>
        <pt x="227" y="414" on="0"/>
        <pt x="232" y="557" on="0"/>
        <pt x="236" y="649" on="1"/>
        <pt x="171" y="643" on="0"/>
        <pt x="66" y="631" on="0"/>
        <pt x="47" y="631" on="1"/>
        <pt x="42" y="631" on="0"/>
        <pt x="36" y="640" on="0"/>
        <pt x="33" y="654" on="0"/>
        <pt x="31" y="668" on="0"/>
        <pt x="31" y="674" on="1"/>
        <pt x="31" y="679" on="0"/>
        <pt x="39" y="691" on="0"/>
        <pt x="39" y="696" on="1"/>
        <pt x="39" y="698" on="0"/>
        <pt x="23" y="710" on="0"/>
        <pt x="23" y="719" on="1"/>
        <pt x="31" y="731" on="0"/>
        <pt x="57" y="742" on="1"/>
        <pt x="79" y="752" on="0"/>
        <pt x="165" y="772" on="0"/>
        <pt x="240" y="780" on="1"/>
        <pt x="254" y="1116" on="1"/>
        <pt x="254" y="1137" on="0"/>
        <pt x="277" y="1153" on="0"/>
        <pt x="311" y="1161" on="0"/>
        <pt x="350" y="1168" on="0"/>
        <pt x="365" y="1180" on="1"/>
        <pt x="371" y="1185" on="0"/>
        <pt x="386" y="1192" on="0"/>
        <pt x="391" y="1192" on="1"/>
        <pt x="399" y="1192" on="0"/>
        <pt x="399" y="1186" on="1"/>
        <pt x="399" y="1184" on="0"/>
        <pt x="398" y="1119" on="0"/>
        <pt x="396" y="1010" on="0"/>
        <pt x="394" y="868" on="0"/>
        <pt x="393" y="791" on="1"/>
        <pt x="422" y="791" on="0"/>
        <pt x="481" y="793" on="0"/>
        <pt x="516" y="793" on="1"/>
        <pt x="536" y="793" on="0"/>
        <pt x="577" y="792" on="0"/>
        <pt x="610" y="789" on="0"/>
        <pt x="631" y="782" on="0"/>
        <pt x="631" y="776" on="1"/>
        <pt x="631" y="771" on="0"/>
        <pt x="627" y="761" on="0"/>
        <pt x="627" y="752" on="1"/>
        <pt x="627" y="735" on="0"/>
        <pt x="637" y="730" on="0"/>
      </contour>
    </TTGlyph>
    <TTGlyph name="E" xMin="16" yMin="0" xMax="1155" yMax="1430">
      <contour>
        <pt x="1155" y="186" on="1"/>
        <pt x="1155" y="182" on="0"/>
        <pt x="1145" y="160" on="0"/>
        <pt x="1132" y="136" on="0"/>
        <pt x="1117" y="115" on="0"/>
        <pt x="1112" y="113" on="1"/>
        <pt x="1109" y="111" on="0"/>
        <pt x="1062" y="94" on="0"/>
        <pt x="984" y="71" on="0"/>
        <pt x="879" y="45" on="0"/>
        <pt x="756" y="22" on="0"/>
        <pt x="617" y="7" on="0"/>
        <pt x="545" y="6" on="1"/>
        <pt x="485" y="4" on="0"/>
        <pt x="381" y="0" on="0"/>
        <pt x="336" y="0" on="1"/>
        <pt x="311" y="0" on="0"/>
        <pt x="266" y="2" on="0"/>
        <pt x="246" y="4" on="1"/>
        <pt x="218" y="7" on="0"/>
        <pt x="192" y="11" on="1"/>
        <pt x="169" y="15" on="0"/>
        <pt x="120" y="27" on="0"/>
        <pt x="102" y="37" on="1"/>
        <pt x="97" y="38" on="0"/>
        <pt x="93" y="42" on="1"/>
        <pt x="85" y="48" on="0"/>
        <pt x="86" y="59" on="1"/>
        <pt x="77" y="64" on="0"/>
        <pt x="73" y="70" on="1"/>
        <pt x="71" y="73" on="0"/>
        <pt x="70" y="74" on="1"/>
        <pt x="70" y="76" on="0"/>
        <pt x="71" y="79" on="1"/>
        <pt x="72" y="83" on="0"/>
        <pt x="80" y="94" on="1"/>
        <pt x="73" y="95" on="0"/>
        <pt x="66" y="101" on="0"/>
        <pt x="64" y="105" on="1"/>
        <pt x="61" y="109" on="0"/>
        <pt x="61" y="115" on="1"/>
        <pt x="61" y="121" on="0"/>
        <pt x="63" y="127" on="1"/>
        <pt x="65" y="132" on="0"/>
        <pt x="72" y="145" on="0"/>
        <pt x="80" y="152" on="1"/>
        <pt x="80" y="165" on="0"/>
        <pt x="83" y="171" on="1"/>
        <pt x="84" y="175" on="0"/>
        <pt x="86" y="176" on="1"/>
        <pt x="87" y="179" on="0"/>
        <pt x="101" y="185" on="0"/>
        <pt x="119" y="189" on="0"/>
        <pt x="138" y="191" on="0"/>
        <pt x="145" y="190" on="1"/>
        <pt x="147" y="188" on="1"/>
        <pt x="149" y="254" on="0"/>
        <pt x="155" y="408" on="0"/>
        <pt x="158" y="474" on="1"/>
        <pt x="162" y="551" on="0"/>
        <pt x="166" y="627" on="1"/>
        <pt x="170" y="721" on="0"/>
        <pt x="178" y="825" on="1"/>
        <pt x="185" y="914" on="0"/>
        <pt x="205" y="1136" on="0"/>
        <pt x="221" y="1251" on="1"/>
        <pt x="106" y="1249" on="1"/>
        <pt x="95" y="1249" on="0"/>
        <pt x="85" y="1252" on="1"/>
        <pt x="77" y="1254" on="0"/>
        <pt x="59" y="1264" on="0"/>
        <pt x="55" y="1274" on="1"/>
        <pt x="39" y="1276" on="0"/>
        <pt x="24" y="1284" on="0"/>
        <pt x="20" y="1288" on="1"/>
        <pt x="16" y="1292" on="0"/>
        <pt x="16" y="1298" on="1"/>
        <pt x="18" y="1309" on="0"/>
        <pt x="28" y="1321" on="0"/>
        <pt x="43" y="1329" on="1"/>
        <pt x="60" y="1335" on="0"/>
        <pt x="75" y="1354" on="0"/>
        <pt x="84" y="1356" on="1"/>
        <pt x="88" y="1357" on="0"/>
        <pt x="174" y="1374" on="0"/>
        <pt x="306" y="1397" on="0"/>
        <pt x="470" y="1418" on="0"/>
        <pt x="551" y="1423" on="1"/>
        <pt x="620" y="1428" on="0"/>
        <pt x="757" y="1430" on="0"/>
        <pt x="817" y="1430" on="1"/>
        <pt x="899" y="1430" on="0"/>
        <pt x="1011" y="1426" on="0"/>
        <pt x="1022" y="1423" on="1"/>
        <pt x="1029" y="1421" on="0"/>
        <pt x="1036" y="1416" on="1"/>
        <pt x="1041" y="1411" on="0"/>
        <pt x="1053" y="1394" on="0"/>
        <pt x="1057" y="1380" on="1"/>
        <pt x="1065" y="1376" on="0"/>
        <pt x="1072" y="1369" on="0"/>
        <pt x="1074" y="1366" on="1"/>
        <pt x="1077" y="1360" on="1"/>
        <pt x="1077" y="1354" on="0"/>
        <pt x="1077" y="1337" on="0"/>
        <pt x="1075" y="1331" on="1"/>
        <pt x="1074" y="1329" on="0"/>
        <pt x="1071" y="1327" on="1"/>
        <pt x="1069" y="1325" on="0"/>
        <pt x="1062" y="1321" on="0"/>
        <pt x="1057" y="1319" on="1"/>
        <pt x="1058" y="1305" on="0"/>
        <pt x="1056" y="1289" on="0"/>
        <pt x="1054" y="1284" on="1"/>
        <pt x="1052" y="1279" on="0"/>
        <pt x="1049" y="1276" on="1"/>
        <pt x="1042" y="1271" on="0"/>
        <pt x="1009" y="1266" on="0"/>
        <pt x="965" y="1266" on="1"/>
        <pt x="346" y="1253" on="1"/>
        <pt x="343" y="1224" on="0"/>
        <pt x="338" y="1145" on="0"/>
        <pt x="333" y="1055" on="0"/>
        <pt x="328" y="961" on="0"/>
        <pt x="324" y="874" on="0"/>
        <pt x="320" y="800" on="0"/>
        <pt x="319" y="776" on="1"/>
        <pt x="357" y="787" on="0"/>
        <pt x="449" y="800" on="0"/>
        <pt x="489" y="804" on="1"/>
        <pt x="536" y="808" on="0"/>
        <pt x="582" y="811" on="1"/>
        <pt x="611" y="813" on="0"/>
        <pt x="665" y="813" on="0"/>
        <pt x="690" y="813" on="1"/>
        <pt x="790" y="813" on="0"/>
        <pt x="899" y="805" on="0"/>
        <pt x="907" y="803" on="1"/>
        <pt x="913" y="802" on="0"/>
        <pt x="927" y="788" on="0"/>
        <pt x="939" y="769" on="0"/>
        <pt x="948" y="746" on="0"/>
        <pt x="948" y="737" on="1"/>
        <pt x="948" y="720" on="0"/>
        <pt x="930" y="682" on="0"/>
        <pt x="924" y="670" on="1"/>
        <pt x="916" y="657" on="0"/>
        <pt x="890" y="633" on="0"/>
        <pt x="881" y="635" on="1"/>
        <pt x="878" y="635" on="0"/>
        <pt x="834" y="637" on="0"/>
        <pt x="769" y="640" on="0"/>
        <pt x="693" y="642" on="0"/>
        <pt x="621" y="644" on="0"/>
        <pt x="564" y="645" on="0"/>
        <pt x="551" y="645" on="1"/>
        <pt x="535" y="645" on="0"/>
        <pt x="504" y="642" on="1"/>
        <pt x="478" y="640" on="0"/>
        <pt x="386" y="630" on="0"/>
        <pt x="315" y="621" on="1"/>
        <pt x="313" y="580" on="0"/>
        <pt x="313" y="490" on="0"/>
        <pt x="313" y="440" on="1"/>
        <pt x="313" y="371" on="0"/>
        <pt x="317" y="236" on="0"/>
        <pt x="322" y="182" on="1"/>
        <pt x="430" y="182" on="1"/>
        <pt x="487" y="182" on="0"/>
        <pt x="599" y="185" on="0"/>
        <pt x="645" y="188" on="1"/>
        <pt x="712" y="193" on="0"/>
        <pt x="833" y="205" on="0"/>
        <pt x="929" y="215" on="0"/>
        <pt x="993" y="220" on="0"/>
        <pt x="1001" y="219" on="1"/>
        <pt x="1009" y="217" on="0"/>
        <pt x="1036" y="219" on="0"/>
        <pt x="1066" y="223" on="0"/>
        <pt x="1094" y="227" on="0"/>
        <pt x="1102" y="229" on="1"/>
        <pt x="1109" y="230" on="0"/>
        <pt x="1127" y="221" on="0"/>
        <pt x="1143" y="206" on="0"/>
        <pt x="1154" y="190" on="0"/>
      </contour>
    </TTGlyph>
    <TTGlyph name="Eacute" xMin="16" yMin="0" xMax="1155" yMax="1856">
      <component glyphName="E" x="0" y="0" flags="0x204"/>
      <component glyphName="acute" x="201" y="588" flags="0x4"/>
    </TTGlyph>
    <TTGlyph name="Ebreve" xMin="16" yMin="0" xMax="1155" yMax="1860">
      <component glyphName="E" x="0" y="0" flags="0x204"/>
      <component glyphName="breve" x="141" y="588" flags="0x4"/>
    </TTGlyph>
    <TTGlyph name="Ecaron" xMin="16" yMin="0" xMax="1155" yMax="1852">
      <component glyphName="E" x="0" y="0" flags="0x204"/>
      <component glyphName="caron" x="176" y="588" flags="0x4"/>
    </TTGlyph>
    <TTGlyph name="Ecircumflex" xMin="16" yMin="0" xMax="1155" yMax="1852">
      <component glyphName="E" x="0" y="0" flags="0x204"/>
      <component glyphName="circumflex" x="131" y="588" flags="0x4"/>
    </TTGlyph>
    <TTGlyph name="Edieresis" xMin="16" yMin="0" xMax="1155" yMax="1774">
      <component glyphName="E" x="0" y="0" flags="0x204"/>
      <component glyphName="dieresis" x="131" y="588" flags="0x4"/>
    </TTGlyph>
    <TTGlyph name="Edotaccent" xMin="16" yMin="0" xMax="1155" yMax="1819">
      <component glyphName="E" x="0" y="0" flags="0x204"/>
      <component glyphName="dotaccent" x="139" y="588" flags="0x4"/>
    </TTGlyph>
    <TTGlyph name="Egrave" xMin="16" yMin="0" xMax="1155" yMax="1850">
      <component glyphName="E" x="0" y="0" flags="0x204"/>
      <component glyphName="grave" x="35" y="588" flags="0x4"/>
    </TTGlyph>
    <TTGlyph name="Emacron" xMin="16" yMin="0" xMax="1155" yMax="1759">
      <component glyphName="E" x="0" y="0" flags="0x204"/>
      <component glyphName="macron" x="131" y="588" flags="0x4"/>
    </TTGlyph>
    <TTGlyph name="Eng" xMin="133" yMin="-502" xMax="1188" yMax="1498">
      <contour>
        <pt x="1174" y="481" on="1"/>
        <pt x="1174" y="374" on="0"/>
        <pt x="1161" y="155" on="0"/>
        <pt x="1132" y="-49" on="0"/>
        <pt x="1086" y="-226" on="0"/>
        <pt x="1053" y="-291" on="1"/>
        <pt x="1038" y="-321" on="0"/>
        <pt x="989" y="-394" on="0"/>
        <pt x="922" y="-459" on="0"/>
        <pt x="833" y="-502" on="0"/>
        <pt x="778" y="-502" on="1"/>
        <pt x="729" y="-502" on="0"/>
        <pt x="635" y="-460" on="0"/>
        <pt x="562" y="-391" on="0"/>
        <pt x="518" y="-302" on="0"/>
        <pt x="518" y="-254" on="1"/>
        <pt x="518" y="-172" on="0"/>
        <pt x="572" y="-71" on="0"/>
        <pt x="605" y="-45" on="1"/>
        <pt x="643" y="-14" on="0"/>
        <pt x="692" y="-2" on="1"/>
        <pt x="700" y="-2" on="0"/>
        <pt x="700" y="-8" on="0"/>
        <pt x="707" y="-10" on="1"/>
        <pt x="712" y="-12" on="0"/>
        <pt x="735" y="-10" on="0"/>
        <pt x="735" y="-12" on="1"/>
        <pt x="735" y="-14" on="0"/>
        <pt x="729" y="-16" on="0"/>
        <pt x="729" y="-18" on="1"/>
        <pt x="729" y="-20" on="0"/>
        <pt x="736" y="-21" on="0"/>
        <pt x="743" y="-22" on="0"/>
        <pt x="750" y="-24" on="0"/>
        <pt x="750" y="-27" on="1"/>
        <pt x="750" y="-29" on="1"/>
        <pt x="750" y="-37" on="0"/>
        <pt x="756" y="-37" on="1"/>
        <pt x="762" y="-37" on="0"/>
        <pt x="764" y="-36" on="1"/>
        <pt x="766" y="-36" on="0"/>
        <pt x="768" y="-35" on="1"/>
        <pt x="770" y="-35" on="1"/>
        <pt x="770" y="-37" on="0"/>
        <pt x="758" y="-43" on="0"/>
        <pt x="742" y="-53" on="0"/>
        <pt x="722" y="-69" on="0"/>
        <pt x="715" y="-80" on="1"/>
        <pt x="689" y="-117" on="0"/>
        <pt x="664" y="-202" on="0"/>
        <pt x="664" y="-244" on="1"/>
        <pt x="664" y="-273" on="0"/>
        <pt x="676" y="-323" on="0"/>
        <pt x="701" y="-360" on="0"/>
        <pt x="740" y="-381" on="0"/>
        <pt x="766" y="-381" on="1"/>
        <pt x="808" y="-381" on="0"/>
        <pt x="878" y="-324" on="0"/>
        <pt x="935" y="-228" on="0"/>
        <pt x="980" y="-105" on="0"/>
        <pt x="997" y="-39" on="1"/>
        <pt x="970" y="-6" on="0"/>
        <pt x="871" y="142" on="0"/>
        <pt x="747" y="342" on="0"/>
        <pt x="607" y="579" on="0"/>
        <pt x="470" y="823" on="0"/>
        <pt x="344" y="1057" on="0"/>
        <pt x="297" y="1155" on="1"/>
        <pt x="293" y="1113" on="0"/>
        <pt x="287" y="969" on="0"/>
        <pt x="282" y="792" on="0"/>
        <pt x="278" y="595" on="0"/>
        <pt x="275" y="405" on="0"/>
        <pt x="273" y="234" on="0"/>
        <pt x="272" y="172" on="1"/>
        <pt x="272" y="132" on="0"/>
        <pt x="269" y="99" on="0"/>
        <pt x="266" y="87" on="0"/>
        <pt x="263" y="82" on="0"/>
        <pt x="264" y="70" on="1"/>
        <pt x="264" y="38" on="0"/>
        <pt x="256" y="-15" on="0"/>
        <pt x="242" y="-18" on="1"/>
        <pt x="234" y="-22" on="0"/>
        <pt x="220" y="-9" on="0"/>
        <pt x="209" y="-12" on="1"/>
        <pt x="206" y="-12" on="0"/>
        <pt x="197" y="-23" on="0"/>
        <pt x="186" y="-23" on="1"/>
        <pt x="177" y="-23" on="0"/>
        <pt x="151" y="-7" on="0"/>
        <pt x="147" y="14" on="1"/>
        <pt x="143" y="51" on="1"/>
        <pt x="142" y="57" on="0"/>
        <pt x="139" y="61" on="0"/>
        <pt x="136" y="69" on="0"/>
        <pt x="134" y="88" on="0"/>
        <pt x="133" y="111" on="1"/>
        <pt x="133" y="117" on="0"/>
        <pt x="137" y="218" on="0"/>
        <pt x="144" y="379" on="0"/>
        <pt x="153" y="584" on="0"/>
        <pt x="164" y="802" on="0"/>
        <pt x="175" y="1019" on="0"/>
        <pt x="188" y="1203" on="0"/>
        <pt x="200" y="1339" on="0"/>
        <pt x="205" y="1368" on="1"/>
        <pt x="200" y="1380" on="0"/>
        <pt x="195" y="1401" on="0"/>
        <pt x="195" y="1409" on="1"/>
        <pt x="194" y="1415" on="0"/>
        <pt x="199" y="1419" on="0"/>
        <pt x="208" y="1422" on="0"/>
        <pt x="218" y="1426" on="0"/>
        <pt x="223" y="1432" on="1"/>
        <pt x="225" y="1435" on="0"/>
        <pt x="228" y="1458" on="0"/>
        <pt x="233" y="1458" on="1"/>
        <pt x="247" y="1458" on="0"/>
        <pt x="265" y="1471" on="0"/>
        <pt x="281" y="1473" on="1"/>
        <pt x="281" y="1490" on="0"/>
        <pt x="290" y="1495" on="1"/>
        <pt x="294" y="1498" on="0"/>
        <pt x="299" y="1497" on="1"/>
        <pt x="316" y="1495" on="0"/>
        <pt x="335" y="1472" on="0"/>
        <pt x="340" y="1462" on="1"/>
        <pt x="345" y="1450" on="0"/>
        <pt x="351" y="1438" on="0"/>
        <pt x="356" y="1427" on="1"/>
        <pt x="364" y="1414" on="0"/>
        <pt x="424" y="1308" on="0"/>
        <pt x="512" y="1149" on="0"/>
        <pt x="620" y="952" on="0"/>
        <pt x="735" y="744" on="0"/>
        <pt x="848" y="538" on="0"/>
        <pt x="946" y="362" on="0"/>
        <pt x="1021" y="228" on="0"/>
        <pt x="1040" y="197" on="1"/>
        <pt x="1043" y="221" on="0"/>
        <pt x="1045" y="266" on="0"/>
        <pt x="1047" y="285" on="1"/>
        <pt x="1051" y="375" on="0"/>
        <pt x="1059" y="575" on="0"/>
        <pt x="1064" y="788" on="0"/>
        <pt x="1067" y="1009" on="0"/>
        <pt x="1067" y="1118" on="1"/>
        <pt x="1067" y="1153" on="0"/>
        <pt x="1066" y="1211" on="0"/>
        <pt x="1064" y="1264" on="0"/>
        <pt x="1063" y="1315" on="0"/>
        <pt x="1063" y="1343" on="1"/>
        <pt x="1063" y="1370" on="0"/>
        <pt x="1070" y="1397" on="0"/>
        <pt x="1080" y="1407" on="0"/>
        <pt x="1089" y="1407" on="0"/>
        <pt x="1092" y="1407" on="1"/>
        <pt x="1097" y="1407" on="0"/>
        <pt x="1101" y="1405" on="0"/>
        <pt x="1104" y="1405" on="1"/>
        <pt x="1107" y="1405" on="0"/>
        <pt x="1108" y="1412" on="0"/>
        <pt x="1112" y="1420" on="0"/>
        <pt x="1123" y="1427" on="0"/>
        <pt x="1137" y="1427" on="1"/>
        <pt x="1140" y="1427" on="0"/>
        <pt x="1146" y="1425" on="0"/>
        <pt x="1149" y="1425" on="1"/>
        <pt x="1157" y="1425" on="0"/>
        <pt x="1169" y="1438" on="0"/>
        <pt x="1174" y="1438" on="1"/>
        <pt x="1177" y="1438" on="0"/>
        <pt x="1182" y="1430" on="0"/>
        <pt x="1186" y="1403" on="0"/>
        <pt x="1188" y="1351" on="0"/>
        <pt x="1188" y="1307" on="1"/>
        <pt x="1188" y="1244" on="0"/>
        <pt x="1188" y="1052" on="0"/>
        <pt x="1185" y="828" on="0"/>
        <pt x="1179" y="590" on="0"/>
      </contour>
    </TTGlyph>
    <TTGlyph name="Eogonek" xMin="16" yMin="-354" xMax="1155" yMax="1430">
      <contour>
        <pt x="1155" y="186" on="1"/>
        <pt x="1155" y="182" on="0"/>
        <pt x="1148" y="162" on="0"/>
        <pt x="1136" y="139" on="0"/>
        <pt x="1121" y="117" on="0"/>
        <pt x="1112" y="113" on="1"/>
        <pt x="1100" y="106" on="0"/>
        <pt x="1045" y="78" on="0"/>
        <pt x="977" y="38" on="0"/>
        <pt x="903" y="-12" on="0"/>
        <pt x="842" y="-69" on="0"/>
        <pt x="803" y="-132" on="0"/>
        <pt x="803" y="-164" on="1"/>
        <pt x="803" y="-180" on="0"/>
        <pt x="817" y="-204" on="0"/>
        <pt x="841" y="-219" on="0"/>
        <pt x="871" y="-227" on="0"/>
        <pt x="887" y="-227" on="1"/>
        <pt x="918" y="-227" on="0"/>
        <pt x="972" y="-215" on="0"/>
        <pt x="1018" y="-197" on="0"/>
        <pt x="1057" y="-176" on="0"/>
        <pt x="1073" y="-168" on="1"/>
        <pt x="1077" y="-167" on="0"/>
        <pt x="1094" y="-160" on="0"/>
        <pt x="1109" y="-168" on="0"/>
        <pt x="1117" y="-198" on="0"/>
        <pt x="1112" y="-233" on="1"/>
        <pt x="1110" y="-245" on="0"/>
        <pt x="1120" y="-255" on="0"/>
        <pt x="1132" y="-263" on="0"/>
        <pt x="1143" y="-270" on="0"/>
        <pt x="1143" y="-279" on="1"/>
        <pt x="1143" y="-290" on="0"/>
        <pt x="1128" y="-304" on="0"/>
        <pt x="1120" y="-309" on="1"/>
        <pt x="1082" y="-331" on="0"/>
        <pt x="965" y="-354" on="0"/>
        <pt x="893" y="-354" on="1"/>
        <pt x="846" y="-354" on="0"/>
        <pt x="765" y="-331" on="0"/>
        <pt x="705" y="-289" on="0"/>
        <pt x="670" y="-230" on="0"/>
        <pt x="670" y="-193" on="1"/>
        <pt x="670" y="-158" on="0"/>
        <pt x="696" y="-94" on="0"/>
        <pt x="743" y="-36" on="0"/>
        <pt x="806" y="16" on="0"/>
        <pt x="842" y="39" on="1"/>
        <pt x="776" y="25" on="0"/>
        <pt x="625" y="6" on="0"/>
        <pt x="545" y="6" on="1"/>
        <pt x="485" y="4" on="0"/>
        <pt x="381" y="0" on="0"/>
        <pt x="336" y="0" on="1"/>
        <pt x="311" y="0" on="0"/>
        <pt x="266" y="2" on="0"/>
        <pt x="246" y="4" on="1"/>
        <pt x="218" y="7" on="0"/>
        <pt x="192" y="11" on="1"/>
        <pt x="169" y="15" on="0"/>
        <pt x="120" y="27" on="0"/>
        <pt x="102" y="37" on="1"/>
        <pt x="97" y="38" on="0"/>
        <pt x="93" y="42" on="1"/>
        <pt x="85" y="48" on="0"/>
        <pt x="86" y="59" on="1"/>
        <pt x="77" y="64" on="0"/>
        <pt x="73" y="70" on="1"/>
        <pt x="71" y="73" on="0"/>
        <pt x="70" y="74" on="1"/>
        <pt x="70" y="76" on="0"/>
        <pt x="71" y="79" on="1"/>
        <pt x="72" y="83" on="0"/>
        <pt x="80" y="94" on="1"/>
        <pt x="73" y="95" on="0"/>
        <pt x="66" y="101" on="0"/>
        <pt x="64" y="105" on="1"/>
        <pt x="61" y="109" on="0"/>
        <pt x="61" y="115" on="1"/>
        <pt x="61" y="121" on="0"/>
        <pt x="63" y="127" on="1"/>
        <pt x="65" y="132" on="0"/>
        <pt x="72" y="145" on="0"/>
        <pt x="80" y="152" on="1"/>
        <pt x="80" y="165" on="0"/>
        <pt x="83" y="171" on="1"/>
        <pt x="84" y="175" on="0"/>
        <pt x="86" y="176" on="1"/>
        <pt x="87" y="179" on="0"/>
        <pt x="101" y="185" on="0"/>
        <pt x="119" y="189" on="0"/>
        <pt x="138" y="191" on="0"/>
        <pt x="145" y="190" on="1"/>
        <pt x="147" y="188" on="1"/>
        <pt x="149" y="254" on="0"/>
        <pt x="155" y="408" on="0"/>
        <pt x="158" y="474" on="1"/>
        <pt x="162" y="551" on="0"/>
        <pt x="166" y="627" on="1"/>
        <pt x="170" y="721" on="0"/>
        <pt x="178" y="825" on="1"/>
        <pt x="185" y="914" on="0"/>
        <pt x="205" y="1136" on="0"/>
        <pt x="221" y="1251" on="1"/>
        <pt x="106" y="1249" on="1"/>
        <pt x="95" y="1249" on="0"/>
        <pt x="85" y="1252" on="1"/>
        <pt x="77" y="1254" on="0"/>
        <pt x="59" y="1264" on="0"/>
        <pt x="55" y="1274" on="1"/>
        <pt x="39" y="1276" on="0"/>
        <pt x="24" y="1284" on="0"/>
        <pt x="20" y="1288" on="1"/>
        <pt x="16" y="1292" on="0"/>
        <pt x="16" y="1298" on="1"/>
        <pt x="18" y="1309" on="0"/>
        <pt x="28" y="1321" on="0"/>
        <pt x="43" y="1329" on="1"/>
        <pt x="60" y="1335" on="0"/>
        <pt x="75" y="1354" on="0"/>
        <pt x="84" y="1356" on="1"/>
        <pt x="88" y="1357" on="0"/>
        <pt x="174" y="1374" on="0"/>
        <pt x="306" y="1397" on="0"/>
        <pt x="470" y="1418" on="0"/>
        <pt x="551" y="1423" on="1"/>
        <pt x="620" y="1428" on="0"/>
        <pt x="757" y="1430" on="0"/>
        <pt x="817" y="1430" on="1"/>
        <pt x="899" y="1430" on="0"/>
        <pt x="1011" y="1426" on="0"/>
        <pt x="1022" y="1423" on="1"/>
        <pt x="1029" y="1421" on="0"/>
        <pt x="1036" y="1416" on="1"/>
        <pt x="1041" y="1411" on="0"/>
        <pt x="1053" y="1394" on="0"/>
        <pt x="1057" y="1380" on="1"/>
        <pt x="1065" y="1376" on="0"/>
        <pt x="1072" y="1369" on="0"/>
        <pt x="1074" y="1366" on="1"/>
        <pt x="1077" y="1360" on="1"/>
        <pt x="1077" y="1354" on="0"/>
        <pt x="1077" y="1337" on="0"/>
        <pt x="1075" y="1331" on="1"/>
        <pt x="1074" y="1329" on="0"/>
        <pt x="1071" y="1327" on="1"/>
        <pt x="1069" y="1325" on="0"/>
        <pt x="1062" y="1321" on="0"/>
        <pt x="1057" y="1319" on="1"/>
        <pt x="1058" y="1305" on="0"/>
        <pt x="1056" y="1289" on="0"/>
        <pt x="1054" y="1284" on="1"/>
        <pt x="1052" y="1279" on="0"/>
        <pt x="1049" y="1276" on="1"/>
        <pt x="1042" y="1271" on="0"/>
        <pt x="1009" y="1266" on="0"/>
        <pt x="965" y="1266" on="1"/>
        <pt x="346" y="1253" on="1"/>
        <pt x="343" y="1224" on="0"/>
        <pt x="338" y="1145" on="0"/>
        <pt x="333" y="1055" on="0"/>
        <pt x="328" y="961" on="0"/>
        <pt x="324" y="874" on="0"/>
        <pt x="320" y="800" on="0"/>
        <pt x="319" y="776" on="1"/>
        <pt x="357" y="787" on="0"/>
        <pt x="449" y="800" on="0"/>
        <pt x="489" y="804" on="1"/>
        <pt x="536" y="808" on="0"/>
        <pt x="582" y="811" on="1"/>
        <pt x="611" y="813" on="0"/>
        <pt x="665" y="813" on="0"/>
        <pt x="690" y="813" on="1"/>
        <pt x="790" y="813" on="0"/>
        <pt x="899" y="805" on="0"/>
        <pt x="907" y="803" on="1"/>
        <pt x="913" y="802" on="0"/>
        <pt x="927" y="788" on="0"/>
        <pt x="939" y="769" on="0"/>
        <pt x="948" y="746" on="0"/>
        <pt x="948" y="737" on="1"/>
        <pt x="948" y="720" on="0"/>
        <pt x="930" y="682" on="0"/>
        <pt x="924" y="670" on="1"/>
        <pt x="916" y="657" on="0"/>
        <pt x="890" y="633" on="0"/>
        <pt x="881" y="635" on="1"/>
        <pt x="878" y="635" on="0"/>
        <pt x="834" y="637" on="0"/>
        <pt x="769" y="640" on="0"/>
        <pt x="693" y="642" on="0"/>
        <pt x="621" y="644" on="0"/>
        <pt x="564" y="645" on="0"/>
        <pt x="551" y="645" on="1"/>
        <pt x="535" y="645" on="0"/>
        <pt x="504" y="642" on="1"/>
        <pt x="478" y="640" on="0"/>
        <pt x="386" y="630" on="0"/>
        <pt x="315" y="621" on="1"/>
        <pt x="313" y="580" on="0"/>
        <pt x="313" y="490" on="0"/>
        <pt x="313" y="440" on="1"/>
        <pt x="313" y="371" on="0"/>
        <pt x="317" y="236" on="0"/>
        <pt x="322" y="182" on="1"/>
        <pt x="430" y="182" on="1"/>
        <pt x="487" y="182" on="0"/>
        <pt x="599" y="185" on="0"/>
        <pt x="645" y="188" on="1"/>
        <pt x="712" y="193" on="0"/>
        <pt x="833" y="205" on="0"/>
        <pt x="929" y="215" on="0"/>
        <pt x="993" y="220" on="0"/>
        <pt x="1001" y="219" on="1"/>
        <pt x="1009" y="217" on="0"/>
        <pt x="1036" y="219" on="0"/>
        <pt x="1066" y="223" on="0"/>
        <pt x="1094" y="227" on="0"/>
        <pt x="1102" y="229" on="1"/>
        <pt x="1109" y="230" on="0"/>
        <pt x="1127" y="221" on="0"/>
        <pt x="1143" y="206" on="0"/>
        <pt x="1154" y="190" on="0"/>
      </contour>
    </TTGlyph>
    <TTGlyph name="Eth" xMin="20" yMin="39" xMax="1268" yMax="1393">
      <contour>
        <pt x="637" y="727" on="1"/>
        <pt x="637" y="723" on="0"/>
        <pt x="631" y="717" on="0"/>
        <pt x="624" y="707" on="0"/>
        <pt x="618" y="692" on="0"/>
        <pt x="618" y="680" on="1"/>
        <pt x="618" y="677" on="0"/>
        <pt x="621" y="673" on="0"/>
        <pt x="621" y="670" on="1"/>
        <pt x="621" y="667" on="0"/>
        <pt x="604" y="657" on="0"/>
        <pt x="573" y="657" on="1"/>
        <pt x="549" y="657" on="0"/>
        <pt x="465" y="662" on="0"/>
        <pt x="414" y="662" on="1"/>
        <pt x="393" y="662" on="1"/>
        <pt x="392" y="606" on="0"/>
        <pt x="391" y="497" on="0"/>
        <pt x="391" y="398" on="0"/>
        <pt x="391" y="313" on="0"/>
        <pt x="391" y="281" on="1"/>
        <pt x="391" y="221" on="1"/>
        <pt x="405" y="219" on="0"/>
        <pt x="432" y="219" on="0"/>
        <pt x="446" y="219" on="1"/>
        <pt x="488" y="219" on="0"/>
        <pt x="605" y="235" on="0"/>
        <pt x="740" y="288" on="0"/>
        <pt x="887" y="389" on="0"/>
        <pt x="958" y="475" on="1"/>
        <pt x="1043" y="577" on="0"/>
        <pt x="1116" y="781" on="0"/>
        <pt x="1116" y="883" on="1"/>
        <pt x="1116" y="969" on="0"/>
        <pt x="1079" y="1095" on="0"/>
        <pt x="1015" y="1182" on="0"/>
        <pt x="927" y="1236" on="0"/>
        <pt x="827" y="1266" on="0"/>
        <pt x="717" y="1276" on="0"/>
        <pt x="662" y="1276" on="1"/>
        <pt x="604" y="1276" on="0"/>
        <pt x="472" y="1254" on="0"/>
        <pt x="341" y="1220" on="0"/>
        <pt x="219" y="1182" on="0"/>
        <pt x="123" y="1148" on="0"/>
        <pt x="60" y="1126" on="0"/>
        <pt x="53" y="1126" on="1"/>
        <pt x="43" y="1136" on="0"/>
        <pt x="36" y="1145" on="1"/>
        <pt x="30" y="1152" on="0"/>
        <pt x="20" y="1164" on="0"/>
        <pt x="20" y="1165" on="1"/>
        <pt x="20" y="1167" on="0"/>
        <pt x="23" y="1170" on="1"/>
        <pt x="25" y="1172" on="0"/>
        <pt x="35" y="1178" on="0"/>
        <pt x="45" y="1180" on="1"/>
        <pt x="42" y="1186" on="0"/>
        <pt x="41" y="1190" on="0"/>
        <pt x="41" y="1192" on="1"/>
        <pt x="41" y="1195" on="0"/>
        <pt x="43" y="1201" on="0"/>
        <pt x="51" y="1204" on="1"/>
        <pt x="36" y="1211" on="0"/>
        <pt x="24" y="1222" on="0"/>
        <pt x="21" y="1228" on="0"/>
        <pt x="23" y="1230" on="0"/>
        <pt x="23" y="1229" on="1"/>
        <pt x="23" y="1232" on="0"/>
        <pt x="31" y="1234" on="0"/>
        <pt x="33" y="1239" on="1"/>
        <pt x="33" y="1240" on="0"/>
        <pt x="45" y="1264" on="0"/>
        <pt x="84" y="1296" on="0"/>
        <pt x="156" y="1330" on="0"/>
        <pt x="217" y="1343" on="1"/>
        <pt x="238" y="1348" on="0"/>
        <pt x="310" y="1365" on="0"/>
        <pt x="405" y="1381" on="0"/>
        <pt x="517" y="1393" on="0"/>
        <pt x="578" y="1393" on="1"/>
        <pt x="745" y="1393" on="0"/>
        <pt x="1003" y="1294" on="0"/>
        <pt x="1178" y="1128" on="0"/>
        <pt x="1268" y="910" on="0"/>
        <pt x="1268" y="791" on="1"/>
        <pt x="1268" y="721" on="0"/>
        <pt x="1230" y="573" on="0"/>
        <pt x="1159" y="429" on="0"/>
        <pt x="1059" y="295" on="0"/>
        <pt x="935" y="184" on="0"/>
        <pt x="792" y="100" on="0"/>
        <pt x="713" y="78" on="1"/>
        <pt x="634" y="56" on="0"/>
        <pt x="505" y="39" on="0"/>
        <pt x="451" y="39" on="1"/>
        <pt x="379" y="39" on="0"/>
        <pt x="289" y="56" on="0"/>
        <pt x="240" y="77" on="0"/>
        <pt x="223" y="97" on="0"/>
        <pt x="223" y="100" on="1"/>
        <pt x="217" y="106" on="0"/>
        <pt x="217" y="119" on="1"/>
        <pt x="217" y="139" on="0"/>
        <pt x="219" y="201" on="1"/>
        <pt x="220" y="228" on="0"/>
        <pt x="222" y="305" on="0"/>
        <pt x="227" y="414" on="0"/>
        <pt x="232" y="557" on="0"/>
        <pt x="236" y="649" on="1"/>
        <pt x="171" y="643" on="0"/>
        <pt x="66" y="631" on="0"/>
        <pt x="47" y="631" on="1"/>
        <pt x="42" y="631" on="0"/>
        <pt x="36" y="640" on="0"/>
        <pt x="33" y="654" on="0"/>
        <pt x="31" y="668" on="0"/>
        <pt x="31" y="674" on="1"/>
        <pt x="31" y="679" on="0"/>
        <pt x="39" y="691" on="0"/>
        <pt x="39" y="696" on="1"/>
        <pt x="39" y="698" on="0"/>
        <pt x="23" y="710" on="0"/>
        <pt x="23" y="719" on="1"/>
        <pt x="31" y="731" on="0"/>
        <pt x="57" y="742" on="1"/>
        <pt x="79" y="752" on="0"/>
        <pt x="165" y="772" on="0"/>
        <pt x="240" y="780" on="1"/>
        <pt x="254" y="1116" on="1"/>
        <pt x="254" y="1137" on="0"/>
        <pt x="277" y="1153" on="0"/>
        <pt x="311" y="1161" on="0"/>
        <pt x="350" y="1168" on="0"/>
        <pt x="365" y="1180" on="1"/>
        <pt x="371" y="1185" on="0"/>
        <pt x="386" y="1192" on="0"/>
        <pt x="391" y="1192" on="1"/>
        <pt x="399" y="1192" on="0"/>
        <pt x="399" y="1186" on="1"/>
        <pt x="399" y="1184" on="0"/>
        <pt x="398" y="1119" on="0"/>
        <pt x="396" y="1010" on="0"/>
        <pt x="394" y="868" on="0"/>
        <pt x="393" y="791" on="1"/>
        <pt x="422" y="791" on="0"/>
        <pt x="481" y="793" on="0"/>
        <pt x="516" y="793" on="1"/>
        <pt x="536" y="793" on="0"/>
        <pt x="577" y="792" on="0"/>
        <pt x="610" y="789" on="0"/>
        <pt x="631" y="782" on="0"/>
        <pt x="631" y="776" on="1"/>
        <pt x="631" y="771" on="0"/>
        <pt x="627" y="761" on="0"/>
        <pt x="627" y="752" on="1"/>
        <pt x="627" y="735" on="0"/>
        <pt x="637" y="730" on="0"/>
      </contour>
    </TTGlyph>
    <TTGlyph name="Euro" xMin="-12" yMin="-8" xMax="1106" yMax="1399">
      <contour>
        <pt x="516" y="764" on="1"/>
        <pt x="478" y="764" on="0"/>
        <pt x="417" y="765" on="0"/>
        <pt x="366" y="765" on="0"/>
        <pt x="324" y="765" on="0"/>
        <pt x="305" y="764" on="1"/>
        <pt x="300" y="742" on="0"/>
        <pt x="294" y="697" on="0"/>
        <pt x="291" y="674" on="1"/>
        <pt x="316" y="676" on="0"/>
        <pt x="368" y="678" on="0"/>
        <pt x="397" y="678" on="1"/>
        <pt x="422" y="678" on="0"/>
        <pt x="493" y="681" on="0"/>
        <pt x="559" y="664" on="0"/>
        <pt x="606" y="615" on="0"/>
        <pt x="606" y="563" on="1"/>
        <pt x="606" y="553" on="0"/>
        <pt x="594" y="553" on="1"/>
        <pt x="571" y="553" on="0"/>
        <pt x="512" y="559" on="0"/>
        <pt x="463" y="559" on="1"/>
        <pt x="412" y="559" on="0"/>
        <pt x="325" y="559" on="0"/>
        <pt x="287" y="557" on="1"/>
        <pt x="287" y="494" on="0"/>
        <pt x="302" y="392" on="0"/>
        <pt x="328" y="311" on="0"/>
        <pt x="363" y="248" on="0"/>
        <pt x="383" y="223" on="1"/>
        <pt x="395" y="215" on="0"/>
        <pt x="426" y="190" on="0"/>
        <pt x="477" y="167" on="0"/>
        <pt x="558" y="150" on="0"/>
        <pt x="621" y="150" on="1"/>
        <pt x="674" y="150" on="0"/>
        <pt x="772" y="182" on="0"/>
        <pt x="857" y="232" on="0"/>
        <pt x="928" y="293" on="0"/>
        <pt x="983" y="352" on="0"/>
        <pt x="1019" y="401" on="0"/>
        <pt x="1026" y="414" on="1"/>
        <pt x="1031" y="424" on="0"/>
        <pt x="1039" y="440" on="0"/>
        <pt x="1049" y="452" on="0"/>
        <pt x="1066" y="459" on="0"/>
        <pt x="1081" y="459" on="1"/>
        <pt x="1094" y="459" on="0"/>
        <pt x="1106" y="454" on="0"/>
        <pt x="1106" y="444" on="1"/>
        <pt x="1106" y="438" on="0"/>
        <pt x="1106" y="427" on="0"/>
        <pt x="1104" y="422" on="1"/>
        <pt x="1102" y="416" on="0"/>
        <pt x="1088" y="348" on="0"/>
        <pt x="1053" y="253" on="0"/>
        <pt x="993" y="144" on="0"/>
        <pt x="896" y="53" on="0"/>
        <pt x="757" y="-8" on="0"/>
        <pt x="662" y="-8" on="1"/>
        <pt x="604" y="-8" on="0"/>
        <pt x="507" y="17" on="0"/>
        <pt x="429" y="54" on="0"/>
        <pt x="369" y="99" on="0"/>
        <pt x="348" y="119" on="1"/>
        <pt x="310" y="145" on="0"/>
        <pt x="240" y="221" on="0"/>
        <pt x="182" y="326" on="0"/>
        <pt x="142" y="461" on="0"/>
        <pt x="135" y="547" on="1"/>
        <pt x="110" y="545" on="0"/>
        <pt x="65" y="538" on="0"/>
        <pt x="43" y="535" on="1"/>
        <pt x="41" y="535" on="0"/>
        <pt x="37" y="532" on="0"/>
        <pt x="35" y="532" on="1"/>
        <pt x="31" y="532" on="0"/>
        <pt x="22" y="548" on="0"/>
        <pt x="14" y="569" on="0"/>
        <pt x="8" y="591" on="0"/>
        <pt x="8" y="596" on="1"/>
        <pt x="8" y="604" on="0"/>
        <pt x="71" y="634" on="0"/>
        <pt x="131" y="649" on="1"/>
        <pt x="131" y="700" on="0"/>
        <pt x="137" y="750" on="1"/>
        <pt x="114" y="745" on="0"/>
        <pt x="57" y="736" on="0"/>
        <pt x="23" y="731" on="1"/>
        <pt x="19" y="731" on="0"/>
        <pt x="16" y="729" on="0"/>
        <pt x="14" y="729" on="1"/>
        <pt x="2" y="729" on="0"/>
        <pt x="2" y="739" on="1"/>
        <pt x="2" y="744" on="0"/>
        <pt x="10" y="758" on="0"/>
        <pt x="10" y="764" on="1"/>
        <pt x="10" y="768" on="0"/>
        <pt x="3" y="773" on="0"/>
        <pt x="-5" y="778" on="0"/>
        <pt x="-12" y="785" on="0"/>
        <pt x="-12" y="791" on="1"/>
        <pt x="-12" y="796" on="0"/>
        <pt x="5" y="813" on="0"/>
        <pt x="44" y="833" on="0"/>
        <pt x="110" y="852" on="0"/>
        <pt x="158" y="860" on="1"/>
        <pt x="189" y="978" on="0"/>
        <pt x="307" y="1177" on="0"/>
        <pt x="466" y="1319" on="0"/>
        <pt x="657" y="1399" on="0"/>
        <pt x="760" y="1399" on="1"/>
        <pt x="829" y="1399" on="0"/>
        <pt x="942" y="1355" on="0"/>
        <pt x="1021" y="1284" on="0"/>
        <pt x="1065" y="1197" on="0"/>
        <pt x="1065" y="1155" on="1"/>
        <pt x="1065" y="1117" on="0"/>
        <pt x="1038" y="1053" on="0"/>
        <pt x="996" y="1001" on="0"/>
        <pt x="947" y="961" on="0"/>
        <pt x="901" y="934" on="0"/>
        <pt x="867" y="920" on="0"/>
        <pt x="862" y="920" on="1"/>
        <pt x="857" y="920" on="0"/>
        <pt x="834" y="930" on="0"/>
        <pt x="823" y="937" on="1"/>
        <pt x="810" y="944" on="0"/>
        <pt x="795" y="954" on="1"/>
        <pt x="795" y="955" on="0"/>
        <pt x="833" y="977" on="0"/>
        <pt x="880" y="1023" on="0"/>
        <pt x="918" y="1098" on="0"/>
        <pt x="918" y="1153" on="1"/>
        <pt x="918" y="1191" on="0"/>
        <pt x="831" y="1245" on="0"/>
        <pt x="756" y="1245" on="1"/>
        <pt x="743" y="1245" on="0"/>
        <pt x="684" y="1234" on="0"/>
        <pt x="609" y="1205" on="0"/>
        <pt x="522" y="1154" on="0"/>
        <pt x="437" y="1072" on="0"/>
        <pt x="361" y="957" on="0"/>
        <pt x="334" y="879" on="1"/>
        <pt x="369" y="881" on="0"/>
        <pt x="446" y="883" on="0"/>
        <pt x="489" y="883" on="1"/>
        <pt x="517" y="883" on="0"/>
        <pt x="573" y="883" on="0"/>
        <pt x="602" y="881" on="1"/>
        <pt x="613" y="880" on="0"/>
        <pt x="642" y="855" on="0"/>
        <pt x="669" y="820" on="0"/>
        <pt x="688" y="782" on="0"/>
        <pt x="688" y="770" on="1"/>
        <pt x="688" y="760" on="0"/>
        <pt x="676" y="760" on="1"/>
        <pt x="654" y="760" on="0"/>
        <pt x="573" y="764" on="0"/>
      </contour>
    </TTGlyph>
    <TTGlyph name="F" xMin="75" yMin="-17" xMax="1051" yMax="1434">
      <contour>
        <pt x="889" y="725" on="1"/>
        <pt x="881" y="719" on="0"/>
        <pt x="863" y="705" on="0"/>
        <pt x="860" y="694" on="1"/>
        <pt x="858" y="683" on="0"/>
        <pt x="850" y="656" on="0"/>
        <pt x="836" y="651" on="1"/>
        <pt x="829" y="649" on="0"/>
        <pt x="771" y="644" on="0"/>
        <pt x="695" y="638" on="0"/>
        <pt x="612" y="634" on="0"/>
        <pt x="580" y="635" on="1"/>
        <pt x="554" y="635" on="0"/>
        <pt x="517" y="633" on="1"/>
        <pt x="485" y="631" on="0"/>
        <pt x="390" y="624" on="0"/>
        <pt x="326" y="616" on="1"/>
        <pt x="323" y="559" on="0"/>
        <pt x="321" y="436" on="0"/>
        <pt x="319" y="316" on="0"/>
        <pt x="319" y="207" on="0"/>
        <pt x="319" y="166" on="1"/>
        <pt x="319" y="72" on="1"/>
        <pt x="321" y="53" on="0"/>
        <pt x="306" y="8" on="0"/>
        <pt x="289" y="2" on="1"/>
        <pt x="273" y="-3" on="0"/>
        <pt x="252" y="-14" on="0"/>
        <pt x="240" y="-16" on="1"/>
        <pt x="234" y="-17" on="0"/>
        <pt x="213" y="-17" on="0"/>
        <pt x="192" y="-13" on="0"/>
        <pt x="175" y="-1" on="0"/>
        <pt x="172" y="10" on="1"/>
        <pt x="168" y="22" on="0"/>
        <pt x="159" y="45" on="0"/>
        <pt x="151" y="90" on="0"/>
        <pt x="143" y="168" on="0"/>
        <pt x="141" y="233" on="1"/>
        <pt x="139" y="285" on="0"/>
        <pt x="146" y="443" on="0"/>
        <pt x="159" y="623" on="0"/>
        <pt x="176" y="810" on="0"/>
        <pt x="192" y="972" on="0"/>
        <pt x="204" y="1094" on="0"/>
        <pt x="207" y="1120" on="1"/>
        <pt x="209" y="1140" on="0"/>
        <pt x="211" y="1161" on="1"/>
        <pt x="213" y="1179" on="0"/>
        <pt x="217" y="1221" on="0"/>
        <pt x="219" y="1241" on="1"/>
        <pt x="201" y="1241" on="0"/>
        <pt x="164" y="1241" on="0"/>
        <pt x="158" y="1243" on="1"/>
        <pt x="143" y="1245" on="0"/>
        <pt x="115" y="1257" on="0"/>
        <pt x="93" y="1272" on="0"/>
        <pt x="77" y="1288" on="0"/>
        <pt x="76" y="1296" on="1"/>
        <pt x="75" y="1302" on="0"/>
        <pt x="77" y="1307" on="1"/>
        <pt x="79" y="1312" on="0"/>
        <pt x="87" y="1319" on="0"/>
        <pt x="96" y="1321" on="1"/>
        <pt x="90" y="1338" on="0"/>
        <pt x="94" y="1345" on="1"/>
        <pt x="95" y="1349" on="0"/>
        <pt x="98" y="1350" on="1"/>
        <pt x="104" y="1352" on="0"/>
        <pt x="125" y="1359" on="0"/>
        <pt x="131" y="1364" on="1"/>
        <pt x="133" y="1367" on="0"/>
        <pt x="146" y="1375" on="0"/>
        <pt x="160" y="1382" on="0"/>
        <pt x="173" y="1388" on="0"/>
        <pt x="176" y="1389" on="1"/>
        <pt x="178" y="1390" on="0"/>
        <pt x="215" y="1397" on="0"/>
        <pt x="270" y="1406" on="0"/>
        <pt x="335" y="1416" on="0"/>
        <pt x="365" y="1419" on="1"/>
        <pt x="386" y="1421" on="0"/>
        <pt x="487" y="1426" on="0"/>
        <pt x="617" y="1431" on="0"/>
        <pt x="759" y="1434" on="0"/>
        <pt x="821" y="1434" on="1"/>
        <pt x="875" y="1434" on="0"/>
        <pt x="955" y="1431" on="0"/>
        <pt x="971" y="1427" on="1"/>
        <pt x="995" y="1422" on="0"/>
        <pt x="1024" y="1411" on="0"/>
        <pt x="1040" y="1401" on="0"/>
        <pt x="1045" y="1392" on="0"/>
        <pt x="1044" y="1391" on="1"/>
        <pt x="1044" y="1389" on="0"/>
        <pt x="1043" y="1386" on="1"/>
        <pt x="1041" y="1380" on="0"/>
        <pt x="1038" y="1376" on="1"/>
        <pt x="1048" y="1370" on="0"/>
        <pt x="1050" y="1364" on="1"/>
        <pt x="1051" y="1360" on="0"/>
        <pt x="1051" y="1358" on="1"/>
        <pt x="1050" y="1354" on="0"/>
        <pt x="1045" y="1336" on="0"/>
        <pt x="1041" y="1315" on="0"/>
        <pt x="1038" y="1294" on="0"/>
        <pt x="1040" y="1288" on="1"/>
        <pt x="1043" y="1276" on="0"/>
        <pt x="1045" y="1260" on="0"/>
        <pt x="1040" y="1255" on="1"/>
        <pt x="1038" y="1253" on="0"/>
        <pt x="1034" y="1253" on="1"/>
        <pt x="1029" y="1252" on="0"/>
        <pt x="1016" y="1255" on="1"/>
        <pt x="1017" y="1252" on="0"/>
        <pt x="1009" y="1250" on="1"/>
        <pt x="1005" y="1249" on="0"/>
        <pt x="1001" y="1249" on="1"/>
        <pt x="996" y="1249" on="0"/>
        <pt x="940" y="1252" on="0"/>
        <pt x="854" y="1257" on="0"/>
        <pt x="748" y="1260" on="0"/>
        <pt x="694" y="1260" on="1"/>
        <pt x="659" y="1260" on="0"/>
        <pt x="590" y="1257" on="0"/>
        <pt x="559" y="1255" on="1"/>
        <pt x="510" y="1252" on="0"/>
        <pt x="408" y="1247" on="0"/>
        <pt x="360" y="1245" on="1"/>
        <pt x="349" y="1090" on="0"/>
        <pt x="337" y="862" on="0"/>
        <pt x="334" y="791" on="1"/>
        <pt x="389" y="802" on="0"/>
        <pt x="483" y="813" on="0"/>
        <pt x="518" y="817" on="1"/>
        <pt x="558" y="821" on="0"/>
        <pt x="592" y="823" on="1"/>
        <pt x="636" y="824" on="0"/>
        <pt x="716" y="822" on="0"/>
        <pt x="781" y="818" on="0"/>
        <pt x="828" y="812" on="0"/>
        <pt x="838" y="809" on="1"/>
        <pt x="856" y="804" on="0"/>
        <pt x="874" y="786" on="0"/>
        <pt x="881" y="770" on="1"/>
        <pt x="887" y="755" on="0"/>
        <pt x="895" y="730" on="0"/>
      </contour>
    </TTGlyph>
    <TTGlyph name="G" xMin="68" yMin="-16" xMax="1449" yMax="1436">
      <contour>
        <pt x="805" y="1362" on="1"/>
        <pt x="772" y="1362" on="0"/>
        <pt x="669" y="1338" on="0"/>
        <pt x="553" y="1278" on="0"/>
        <pt x="437" y="1179" on="0"/>
        <pt x="344" y="1029" on="0"/>
        <pt x="285" y="824" on="0"/>
        <pt x="285" y="688" on="1"/>
        <pt x="285" y="578" on="0"/>
        <pt x="330" y="407" on="0"/>
        <pt x="406" y="279" on="0"/>
        <pt x="505" y="190" on="0"/>
        <pt x="614" y="135" on="0"/>
        <pt x="723" y="111" on="0"/>
        <pt x="772" y="111" on="1"/>
        <pt x="783" y="111" on="0"/>
        <pt x="804" y="111" on="0"/>
        <pt x="815" y="113" on="1"/>
        <pt x="836" y="119" on="0"/>
        <pt x="893" y="139" on="0"/>
        <pt x="955" y="173" on="0"/>
        <pt x="1015" y="223" on="0"/>
        <pt x="1064" y="294" on="0"/>
        <pt x="1096" y="386" on="0"/>
        <pt x="1098" y="446" on="1"/>
        <pt x="1099" y="501" on="0"/>
        <pt x="1072" y="562" on="0"/>
        <pt x="1057" y="578" on="1"/>
        <pt x="1001" y="571" on="1"/>
        <pt x="957" y="565" on="0"/>
        <pt x="865" y="543" on="0"/>
        <pt x="783" y="521" on="0"/>
        <pt x="717" y="505" on="0"/>
        <pt x="698" y="506" on="1"/>
        <pt x="683" y="507" on="0"/>
        <pt x="670" y="511" on="1"/>
        <pt x="658" y="514" on="0"/>
        <pt x="633" y="527" on="0"/>
        <pt x="625" y="539" on="1"/>
        <pt x="620" y="536" on="0"/>
        <pt x="614" y="536" on="0"/>
        <pt x="612" y="537" on="1"/>
        <pt x="609" y="538" on="0"/>
        <pt x="608" y="541" on="1"/>
        <pt x="607" y="544" on="0"/>
        <pt x="606" y="548" on="1"/>
        <pt x="604" y="558" on="0"/>
        <pt x="604" y="575" on="1"/>
        <pt x="599" y="575" on="0"/>
        <pt x="593" y="579" on="1"/>
        <pt x="590" y="581" on="0"/>
        <pt x="588" y="584" on="1"/>
        <pt x="583" y="592" on="0"/>
        <pt x="575" y="608" on="0"/>
        <pt x="580" y="614" on="1"/>
        <pt x="582" y="618" on="0"/>
        <pt x="612" y="635" on="0"/>
        <pt x="684" y="659" on="0"/>
        <pt x="807" y="690" on="0"/>
        <pt x="903" y="709" on="1"/>
        <pt x="1027" y="732" on="0"/>
        <pt x="1209" y="748" on="0"/>
        <pt x="1266" y="748" on="1"/>
        <pt x="1298" y="748" on="0"/>
        <pt x="1338" y="745" on="0"/>
        <pt x="1348" y="743" on="1"/>
        <pt x="1371" y="738" on="0"/>
        <pt x="1399" y="719" on="0"/>
        <pt x="1407" y="711" on="1"/>
        <pt x="1411" y="707" on="0"/>
        <pt x="1415" y="701" on="1"/>
        <pt x="1422" y="692" on="0"/>
        <pt x="1432" y="668" on="1"/>
        <pt x="1443" y="664" on="0"/>
        <pt x="1447" y="656" on="1"/>
        <pt x="1449" y="652" on="0"/>
        <pt x="1448" y="649" on="1"/>
        <pt x="1446" y="640" on="0"/>
        <pt x="1440" y="610" on="0"/>
        <pt x="1434" y="610" on="1"/>
        <pt x="1431" y="609" on="0"/>
        <pt x="1396" y="607" on="0"/>
        <pt x="1338" y="603" on="0"/>
        <pt x="1263" y="598" on="0"/>
        <pt x="1221" y="594" on="1"/>
        <pt x="1241" y="571" on="0"/>
        <pt x="1269" y="507" on="0"/>
        <pt x="1274" y="469" on="1"/>
        <pt x="1281" y="420" on="0"/>
        <pt x="1248" y="310" on="0"/>
        <pt x="1179" y="202" on="0"/>
        <pt x="1075" y="103" on="0"/>
        <pt x="946" y="28" on="0"/>
        <pt x="794" y="-16" on="0"/>
        <pt x="711" y="-16" on="1"/>
        <pt x="663" y="-16" on="0"/>
        <pt x="558" y="-2" on="0"/>
        <pt x="448" y="33" on="0"/>
        <pt x="335" y="91" on="0"/>
        <pt x="279" y="135" on="1"/>
        <pt x="172" y="218" on="0"/>
        <pt x="68" y="481" on="0"/>
        <pt x="70" y="672" on="1"/>
        <pt x="70" y="753" on="0"/>
        <pt x="123" y="927" on="0"/>
        <pt x="220" y="1094" on="0"/>
        <pt x="355" y="1245" on="0"/>
        <pt x="520" y="1361" on="0"/>
        <pt x="711" y="1432" on="0"/>
        <pt x="815" y="1436" on="1"/>
        <pt x="848" y="1436" on="0"/>
        <pt x="935" y="1426" on="0"/>
        <pt x="1028" y="1403" on="0"/>
        <pt x="1118" y="1367" on="0"/>
        <pt x="1193" y="1315" on="0"/>
        <pt x="1243" y="1246" on="0"/>
        <pt x="1249" y="1202" on="1"/>
        <pt x="1256" y="1151" on="0"/>
        <pt x="1229" y="1069" on="0"/>
        <pt x="1182" y="1013" on="0"/>
        <pt x="1128" y="984" on="0"/>
        <pt x="1108" y="985" on="1"/>
        <pt x="1094" y="976" on="0"/>
        <pt x="1074" y="968" on="0"/>
        <pt x="1066" y="967" on="1"/>
        <pt x="1057" y="965" on="0"/>
        <pt x="1051" y="967" on="1"/>
        <pt x="1044" y="970" on="0"/>
        <pt x="1040" y="975" on="1"/>
        <pt x="1036" y="980" on="0"/>
        <pt x="1033" y="993" on="0"/>
        <pt x="1038" y="1004" on="1"/>
        <pt x="1016" y="980" on="0"/>
        <pt x="987" y="958" on="0"/>
        <pt x="978" y="954" on="1"/>
        <pt x="967" y="950" on="0"/>
        <pt x="961" y="952" on="1"/>
        <pt x="952" y="958" on="0"/>
        <pt x="963" y="968" on="0"/>
        <pt x="989" y="988" on="0"/>
        <pt x="1023" y="1023" on="0"/>
        <pt x="1036" y="1053" on="1"/>
        <pt x="1042" y="1074" on="0"/>
        <pt x="1053" y="1128" on="0"/>
        <pt x="1053" y="1157" on="1"/>
        <pt x="1053" y="1212" on="0"/>
        <pt x="1013" y="1290" on="0"/>
        <pt x="946" y="1340" on="0"/>
        <pt x="856" y="1362" on="0"/>
      </contour>
    </TTGlyph>
    <TTGlyph name="Gbreve" xMin="68" yMin="-16" xMax="1449" yMax="1868">
      <component glyphName="G" x="0" y="0" flags="0x204"/>
      <component glyphName="breve" x="365" y="596" flags="0x4"/>
    </TTGlyph>
    <TTGlyph name="Gcircumflex" xMin="68" yMin="-16" xMax="1449" yMax="1860">
      <component glyphName="G" x="0" y="0" flags="0x204"/>
      <component glyphName="circumflex" x="354" y="596" flags="0x4"/>
    </TTGlyph>
    <TTGlyph name="Gcommaaccent" xMin="68" yMin="-469" xMax="1449" yMax="1436">
      <component glyphName="G" x="0" y="0" flags="0x204"/>
      <component glyphName="commaaccent" x="264" y="0" flags="0x4"/>
    </TTGlyph>
    <TTGlyph name="Gdotaccent" xMin="68" yMin="-16" xMax="1449" yMax="1827">
      <component glyphName="G" x="0" y="0" flags="0x204"/>
      <component glyphName="dotaccent" x="362" y="596" flags="0x4"/>
    </TTGlyph>
    <TTGlyph name="H" xMin="0" yMin="-17" xMax="1181" yMax="1456">
      <contour>
        <pt x="362" y="793" on="1"/>
        <pt x="432" y="801" on="0"/>
        <pt x="583" y="813" on="0"/>
        <pt x="649" y="813" on="1"/>
        <pt x="669" y="814" on="0"/>
        <pt x="695" y="815" on="1"/>
        <pt x="717" y="816" on="0"/>
        <pt x="776" y="817" on="0"/>
        <pt x="811" y="817" on="1"/>
        <pt x="848" y="817" on="0"/>
        <pt x="931" y="815" on="0"/>
        <pt x="973" y="813" on="1"/>
        <pt x="977" y="873" on="0"/>
        <pt x="985" y="1001" on="0"/>
        <pt x="992" y="1120" on="0"/>
        <pt x="997" y="1221" on="0"/>
        <pt x="999" y="1255" on="1"/>
        <pt x="999" y="1323" on="1"/>
        <pt x="999" y="1351" on="0"/>
        <pt x="999" y="1406" on="0"/>
        <pt x="1001" y="1423" on="1"/>
        <pt x="1008" y="1456" on="0"/>
        <pt x="1030" y="1456" on="1"/>
        <pt x="1043" y="1456" on="0"/>
        <pt x="1057" y="1450" on="0"/>
        <pt x="1075" y="1442" on="1"/>
        <pt x="1084" y="1439" on="0"/>
        <pt x="1105" y="1429" on="0"/>
        <pt x="1125" y="1418" on="0"/>
        <pt x="1141" y="1407" on="0"/>
        <pt x="1145" y="1403" on="1"/>
        <pt x="1149" y="1399" on="0"/>
        <pt x="1161" y="1380" on="0"/>
        <pt x="1173" y="1358" on="0"/>
        <pt x="1181" y="1335" on="0"/>
        <pt x="1180" y="1327" on="1"/>
        <pt x="1179" y="1319" on="0"/>
        <pt x="1171" y="1218" on="0"/>
        <pt x="1159" y="1053" on="0"/>
        <pt x="1145" y="835" on="0"/>
        <pt x="1139" y="711" on="1"/>
        <pt x="1130" y="511" on="0"/>
        <pt x="1130" y="379" on="1"/>
        <pt x="1130" y="280" on="0"/>
        <pt x="1137" y="158" on="0"/>
        <pt x="1143" y="133" on="1"/>
        <pt x="1152" y="91" on="0"/>
        <pt x="1160" y="55" on="0"/>
        <pt x="1155" y="49" on="1"/>
        <pt x="1153" y="47" on="0"/>
        <pt x="1149" y="45" on="1"/>
        <pt x="1139" y="41" on="0"/>
        <pt x="1116" y="37" on="1"/>
        <pt x="1112" y="26" on="0"/>
        <pt x="1104" y="13" on="0"/>
        <pt x="1100" y="9" on="1"/>
        <pt x="1096" y="5" on="0"/>
        <pt x="1092" y="2" on="1"/>
        <pt x="1082" y="-1" on="0"/>
        <pt x="1064" y="-7" on="0"/>
        <pt x="1059" y="-2" on="1"/>
        <pt x="1056" y="-1" on="0"/>
        <pt x="1054" y="1" on="1"/>
        <pt x="1050" y="3" on="0"/>
        <pt x="1047" y="12" on="1"/>
        <pt x="1037" y="8" on="0"/>
        <pt x="1029" y="12" on="1"/>
        <pt x="1025" y="14" on="0"/>
        <pt x="1022" y="16" on="1"/>
        <pt x="1014" y="23" on="0"/>
        <pt x="984" y="59" on="0"/>
        <pt x="979" y="90" on="1"/>
        <pt x="977" y="105" on="0"/>
        <pt x="968" y="140" on="0"/>
        <pt x="959" y="177" on="0"/>
        <pt x="950" y="212" on="0"/>
        <pt x="948" y="227" on="1"/>
        <pt x="945" y="241" on="0"/>
        <pt x="946" y="331" on="0"/>
        <pt x="951" y="451" on="0"/>
        <pt x="959" y="587" on="0"/>
        <pt x="963" y="647" on="1"/>
        <pt x="963" y="655" on="0"/>
        <pt x="963" y="673" on="0"/>
        <pt x="965" y="684" on="1"/>
        <pt x="920" y="686" on="0"/>
        <pt x="833" y="686" on="0"/>
        <pt x="793" y="686" on="1"/>
        <pt x="743" y="686" on="0"/>
        <pt x="661" y="685" on="0"/>
        <pt x="630" y="684" on="1"/>
        <pt x="594" y="683" on="0"/>
        <pt x="565" y="682" on="1"/>
        <pt x="459" y="682" on="0"/>
        <pt x="360" y="676" on="1"/>
        <pt x="359" y="661" on="0"/>
        <pt x="358" y="639" on="0"/>
        <pt x="358" y="631" on="1"/>
        <pt x="358" y="616" on="1"/>
        <pt x="356" y="518" on="0"/>
        <pt x="352" y="338" on="0"/>
        <pt x="350" y="196" on="0"/>
        <pt x="349" y="102" on="0"/>
        <pt x="350" y="90" on="1"/>
        <pt x="350" y="80" on="0"/>
        <pt x="349" y="69" on="1"/>
        <pt x="348" y="59" on="0"/>
        <pt x="343" y="32" on="0"/>
        <pt x="338" y="16" on="1"/>
        <pt x="328" y="15" on="0"/>
        <pt x="319" y="9" on="1"/>
        <pt x="315" y="6" on="0"/>
        <pt x="311" y="4" on="1"/>
        <pt x="302" y="-2" on="0"/>
        <pt x="287" y="-17" on="0"/>
        <pt x="281" y="-12" on="1"/>
        <pt x="273" y="-6" on="0"/>
        <pt x="250" y="-2" on="0"/>
        <pt x="233" y="-2" on="1"/>
        <pt x="225" y="-2" on="0"/>
        <pt x="207" y="8" on="0"/>
        <pt x="191" y="21" on="0"/>
        <pt x="179" y="37" on="0"/>
        <pt x="178" y="43" on="1"/>
        <pt x="176" y="49" on="0"/>
        <pt x="170" y="72" on="0"/>
        <pt x="165" y="97" on="0"/>
        <pt x="161" y="120" on="0"/>
        <pt x="160" y="125" on="1"/>
        <pt x="159" y="130" on="0"/>
        <pt x="161" y="220" on="0"/>
        <pt x="167" y="367" on="0"/>
        <pt x="175" y="558" on="0"/>
        <pt x="180" y="664" on="1"/>
        <pt x="142" y="660" on="0"/>
        <pt x="90" y="655" on="0"/>
        <pt x="84" y="653" on="1"/>
        <pt x="73" y="651" on="0"/>
        <pt x="60" y="646" on="0"/>
        <pt x="51" y="642" on="0"/>
        <pt x="43" y="641" on="0"/>
        <pt x="39" y="643" on="1"/>
        <pt x="33" y="643" on="0"/>
        <pt x="22" y="658" on="0"/>
        <pt x="20" y="668" on="1"/>
        <pt x="9" y="670" on="0"/>
        <pt x="2" y="681" on="0"/>
        <pt x="0" y="684" on="1"/>
        <pt x="0" y="692" on="0"/>
        <pt x="15" y="699" on="0"/>
        <pt x="31" y="715" on="1"/>
        <pt x="38" y="722" on="0"/>
        <pt x="65" y="735" on="0"/>
        <pt x="95" y="747" on="0"/>
        <pt x="124" y="756" on="0"/>
        <pt x="135" y="758" on="1"/>
        <pt x="184" y="766" on="1"/>
        <pt x="190" y="864" on="0"/>
        <pt x="202" y="1026" on="0"/>
        <pt x="212" y="1164" on="0"/>
        <pt x="219" y="1283" on="0"/>
        <pt x="219" y="1339" on="1"/>
        <pt x="219" y="1355" on="0"/>
        <pt x="217" y="1383" on="0"/>
        <pt x="217" y="1399" on="1"/>
        <pt x="217" y="1411" on="0"/>
        <pt x="230" y="1428" on="0"/>
        <pt x="240" y="1430" on="1"/>
        <pt x="252" y="1430" on="1"/>
        <pt x="263" y="1430" on="0"/>
        <pt x="293" y="1427" on="1"/>
        <pt x="297" y="1437" on="0"/>
        <pt x="302" y="1440" on="1"/>
        <pt x="305" y="1442" on="0"/>
        <pt x="307" y="1442" on="1"/>
        <pt x="315" y="1442" on="0"/>
        <pt x="326" y="1435" on="0"/>
        <pt x="328" y="1432" on="1"/>
        <pt x="328" y="1430" on="0"/>
        <pt x="329" y="1428" on="1"/>
        <pt x="330" y="1425" on="0"/>
        <pt x="332" y="1419" on="1"/>
        <pt x="340" y="1417" on="0"/>
        <pt x="348" y="1413" on="0"/>
        <pt x="351" y="1411" on="1"/>
        <pt x="354" y="1408" on="0"/>
        <pt x="356" y="1407" on="1"/>
        <pt x="359" y="1401" on="1"/>
        <pt x="362" y="1395" on="0"/>
        <pt x="365" y="1378" on="1"/>
        <pt x="372" y="1363" on="0"/>
        <pt x="374" y="1357" on="1"/>
        <pt x="375" y="1353" on="0"/>
        <pt x="375" y="1352" on="1"/>
        <pt x="375" y="1350" on="0"/>
        <pt x="376" y="1347" on="1"/>
        <pt x="376" y="1345" on="0"/>
        <pt x="377" y="1341" on="0"/>
        <pt x="377" y="1339" on="1"/>
      </contour>
    </TTGlyph>
    <TTGlyph name="Hbar" xMin="0" yMin="-17" xMax="1305" yMax="1456">
      <contour>
        <pt x="371" y="1108" on="1"/>
        <pt x="445" y="1114" on="0"/>
        <pt x="614" y="1122" on="0"/>
        <pt x="719" y="1122" on="1"/>
        <pt x="993" y="1122" on="1"/>
        <pt x="999" y="1255" on="1"/>
        <pt x="999" y="1323" on="1"/>
        <pt x="999" y="1351" on="0"/>
        <pt x="999" y="1406" on="0"/>
        <pt x="1001" y="1423" on="1"/>
        <pt x="1008" y="1456" on="0"/>
        <pt x="1030" y="1456" on="1"/>
        <pt x="1043" y="1456" on="0"/>
        <pt x="1057" y="1450" on="0"/>
        <pt x="1075" y="1442" on="1"/>
        <pt x="1084" y="1439" on="0"/>
        <pt x="1105" y="1429" on="0"/>
        <pt x="1125" y="1418" on="0"/>
        <pt x="1141" y="1407" on="0"/>
        <pt x="1145" y="1403" on="1"/>
        <pt x="1149" y="1399" on="0"/>
        <pt x="1161" y="1380" on="0"/>
        <pt x="1173" y="1358" on="0"/>
        <pt x="1181" y="1335" on="0"/>
        <pt x="1180" y="1327" on="1"/>
        <pt x="1178" y="1319" on="0"/>
        <pt x="1169" y="1208" on="0"/>
        <pt x="1163" y="1120" on="1"/>
        <pt x="1222" y="1118" on="0"/>
        <pt x="1298" y="1113" on="0"/>
        <pt x="1298" y="1110" on="1"/>
        <pt x="1298" y="1105" on="0"/>
        <pt x="1294" y="1095" on="0"/>
        <pt x="1294" y="1085" on="1"/>
        <pt x="1294" y="1079" on="0"/>
        <pt x="1298" y="1066" on="0"/>
        <pt x="1303" y="1063" on="1"/>
        <pt x="1305" y="1059" on="1"/>
        <pt x="1305" y="1057" on="0"/>
        <pt x="1299" y="1054" on="0"/>
        <pt x="1292" y="1045" on="0"/>
        <pt x="1286" y="1030" on="0"/>
        <pt x="1286" y="1018" on="1"/>
        <pt x="1286" y="1015" on="0"/>
        <pt x="1288" y="1011" on="0"/>
        <pt x="1288" y="1008" on="1"/>
        <pt x="1288" y="1005" on="0"/>
        <pt x="1272" y="995" on="0"/>
        <pt x="1241" y="995" on="1"/>
        <pt x="1155" y="995" on="1"/>
        <pt x="1150" y="932" on="0"/>
        <pt x="1142" y="788" on="0"/>
        <pt x="1139" y="711" on="1"/>
        <pt x="1130" y="511" on="0"/>
        <pt x="1130" y="379" on="1"/>
        <pt x="1130" y="280" on="0"/>
        <pt x="1137" y="158" on="0"/>
        <pt x="1143" y="133" on="1"/>
        <pt x="1152" y="91" on="0"/>
        <pt x="1160" y="55" on="0"/>
        <pt x="1155" y="49" on="1"/>
        <pt x="1153" y="47" on="0"/>
        <pt x="1149" y="45" on="1"/>
        <pt x="1139" y="41" on="0"/>
        <pt x="1116" y="37" on="1"/>
        <pt x="1112" y="26" on="0"/>
        <pt x="1104" y="13" on="0"/>
        <pt x="1100" y="9" on="1"/>
        <pt x="1096" y="5" on="0"/>
        <pt x="1092" y="2" on="1"/>
        <pt x="1082" y="-1" on="0"/>
        <pt x="1064" y="-7" on="0"/>
        <pt x="1059" y="-2" on="1"/>
        <pt x="1056" y="-1" on="0"/>
        <pt x="1054" y="1" on="1"/>
        <pt x="1050" y="3" on="0"/>
        <pt x="1047" y="12" on="1"/>
        <pt x="1037" y="8" on="0"/>
        <pt x="1029" y="12" on="1"/>
        <pt x="1025" y="14" on="0"/>
        <pt x="1022" y="16" on="1"/>
        <pt x="1014" y="23" on="0"/>
        <pt x="984" y="59" on="0"/>
        <pt x="979" y="90" on="1"/>
        <pt x="977" y="105" on="0"/>
        <pt x="968" y="140" on="0"/>
        <pt x="959" y="177" on="0"/>
        <pt x="950" y="212" on="0"/>
        <pt x="948" y="227" on="1"/>
        <pt x="945" y="241" on="0"/>
        <pt x="946" y="331" on="0"/>
        <pt x="951" y="451" on="0"/>
        <pt x="959" y="587" on="0"/>
        <pt x="963" y="647" on="1"/>
        <pt x="963" y="655" on="0"/>
        <pt x="963" y="673" on="0"/>
        <pt x="965" y="684" on="1"/>
        <pt x="920" y="686" on="0"/>
        <pt x="833" y="686" on="0"/>
        <pt x="793" y="686" on="1"/>
        <pt x="743" y="686" on="0"/>
        <pt x="661" y="685" on="0"/>
        <pt x="630" y="684" on="1"/>
        <pt x="594" y="683" on="0"/>
        <pt x="565" y="682" on="1"/>
        <pt x="459" y="682" on="0"/>
        <pt x="360" y="676" on="1"/>
        <pt x="359" y="661" on="0"/>
        <pt x="358" y="639" on="0"/>
        <pt x="358" y="631" on="1"/>
        <pt x="358" y="616" on="1"/>
        <pt x="356" y="518" on="0"/>
        <pt x="352" y="338" on="0"/>
        <pt x="350" y="196" on="0"/>
        <pt x="349" y="102" on="0"/>
        <pt x="350" y="90" on="1"/>
        <pt x="350" y="80" on="0"/>
        <pt x="349" y="69" on="1"/>
        <pt x="348" y="59" on="0"/>
        <pt x="343" y="32" on="0"/>
        <pt x="338" y="16" on="1"/>
        <pt x="328" y="15" on="0"/>
        <pt x="319" y="9" on="1"/>
        <pt x="315" y="6" on="0"/>
        <pt x="311" y="4" on="1"/>
        <pt x="302" y="-2" on="0"/>
        <pt x="287" y="-17" on="0"/>
        <pt x="281" y="-12" on="1"/>
        <pt x="273" y="-6" on="0"/>
        <pt x="250" y="-2" on="0"/>
        <pt x="233" y="-2" on="1"/>
        <pt x="225" y="-2" on="0"/>
        <pt x="207" y="8" on="0"/>
        <pt x="191" y="21" on="0"/>
        <pt x="179" y="37" on="0"/>
        <pt x="178" y="43" on="1"/>
        <pt x="176" y="49" on="0"/>
        <pt x="170" y="72" on="0"/>
        <pt x="165" y="97" on="0"/>
        <pt x="161" y="120" on="0"/>
        <pt x="160" y="125" on="1"/>
        <pt x="159" y="130" on="0"/>
        <pt x="161" y="220" on="0"/>
        <pt x="167" y="367" on="0"/>
        <pt x="175" y="558" on="0"/>
        <pt x="180" y="664" on="1"/>
        <pt x="142" y="660" on="0"/>
        <pt x="90" y="655" on="0"/>
        <pt x="84" y="653" on="1"/>
        <pt x="73" y="651" on="0"/>
        <pt x="60" y="646" on="0"/>
        <pt x="51" y="642" on="0"/>
        <pt x="43" y="641" on="0"/>
        <pt x="39" y="643" on="1"/>
        <pt x="33" y="643" on="0"/>
        <pt x="22" y="658" on="0"/>
        <pt x="20" y="668" on="1"/>
        <pt x="9" y="670" on="0"/>
        <pt x="2" y="681" on="0"/>
        <pt x="0" y="684" on="1"/>
        <pt x="0" y="692" on="0"/>
        <pt x="15" y="699" on="0"/>
        <pt x="31" y="715" on="1"/>
        <pt x="38" y="722" on="0"/>
        <pt x="65" y="735" on="0"/>
        <pt x="95" y="747" on="0"/>
        <pt x="124" y="756" on="0"/>
        <pt x="135" y="758" on="1"/>
        <pt x="184" y="766" on="1"/>
        <pt x="187" y="825" on="0"/>
        <pt x="196" y="929" on="0"/>
        <pt x="199" y="977" on="1"/>
        <pt x="35" y="969" on="1"/>
        <pt x="30" y="969" on="0"/>
        <pt x="24" y="978" on="0"/>
        <pt x="20" y="992" on="0"/>
        <pt x="18" y="1006" on="0"/>
        <pt x="18" y="1012" on="1"/>
        <pt x="18" y="1017" on="0"/>
        <pt x="27" y="1029" on="0"/>
        <pt x="27" y="1034" on="1"/>
        <pt x="27" y="1036" on="0"/>
        <pt x="10" y="1047" on="0"/>
        <pt x="10" y="1057" on="1"/>
        <pt x="32" y="1062" on="0"/>
        <pt x="62" y="1068" on="1"/>
        <pt x="114" y="1079" on="0"/>
        <pt x="207" y="1092" on="1"/>
        <pt x="212" y="1161" on="0"/>
        <pt x="219" y="1282" on="0"/>
        <pt x="219" y="1339" on="1"/>
        <pt x="219" y="1355" on="0"/>
        <pt x="217" y="1383" on="0"/>
        <pt x="217" y="1399" on="1"/>
        <pt x="217" y="1411" on="0"/>
        <pt x="230" y="1428" on="0"/>
        <pt x="240" y="1430" on="1"/>
        <pt x="252" y="1430" on="1"/>
        <pt x="263" y="1430" on="0"/>
        <pt x="293" y="1427" on="1"/>
        <pt x="297" y="1437" on="0"/>
        <pt x="302" y="1440" on="1"/>
        <pt x="305" y="1442" on="0"/>
        <pt x="307" y="1442" on="1"/>
        <pt x="315" y="1442" on="0"/>
        <pt x="326" y="1435" on="0"/>
        <pt x="328" y="1432" on="1"/>
        <pt x="328" y="1430" on="0"/>
        <pt x="329" y="1428" on="1"/>
        <pt x="330" y="1425" on="0"/>
        <pt x="332" y="1419" on="1"/>
        <pt x="340" y="1417" on="0"/>
        <pt x="348" y="1413" on="0"/>
        <pt x="351" y="1411" on="1"/>
        <pt x="354" y="1408" on="0"/>
        <pt x="356" y="1407" on="1"/>
        <pt x="359" y="1401" on="1"/>
        <pt x="362" y="1395" on="0"/>
        <pt x="365" y="1378" on="1"/>
        <pt x="372" y="1363" on="0"/>
        <pt x="374" y="1357" on="1"/>
        <pt x="375" y="1353" on="0"/>
        <pt x="375" y="1352" on="1"/>
        <pt x="375" y="1350" on="0"/>
        <pt x="376" y="1347" on="1"/>
        <pt x="376" y="1345" on="0"/>
        <pt x="377" y="1341" on="0"/>
        <pt x="377" y="1339" on="1"/>
      </contour>
      <contour>
        <pt x="985" y="997" on="1"/>
        <pt x="898" y="999" on="0"/>
        <pt x="707" y="999" on="0"/>
        <pt x="616" y="999" on="1"/>
        <pt x="598" y="999" on="0"/>
        <pt x="545" y="997" on="0"/>
        <pt x="481" y="994" on="0"/>
        <pt x="407" y="989" on="0"/>
        <pt x="369" y="987" on="1"/>
        <pt x="362" y="793" on="1"/>
        <pt x="432" y="801" on="0"/>
        <pt x="583" y="813" on="0"/>
        <pt x="649" y="813" on="1"/>
        <pt x="669" y="814" on="0"/>
        <pt x="695" y="815" on="1"/>
        <pt x="717" y="816" on="0"/>
        <pt x="776" y="817" on="0"/>
        <pt x="811" y="817" on="1"/>
        <pt x="848" y="817" on="0"/>
        <pt x="931" y="815" on="0"/>
        <pt x="973" y="813" on="1"/>
      </contour>
    </TTGlyph>
    <TTGlyph name="Hcircumflex" xMin="0" yMin="-17" xMax="1181" yMax="1866">
      <component glyphName="H" x="0" y="0" flags="0x204"/>
      <component glyphName="circumflex" x="215" y="602" flags="0x4"/>
    </TTGlyph>
    <TTGlyph name="I" xMin="170" yMin="-13" xMax="367" yMax="1442">
      <contour>
        <pt x="367" y="1397" on="1"/>
        <pt x="367" y="1216" on="0"/>
        <pt x="353" y="843" on="0"/>
        <pt x="350" y="659" on="1"/>
        <pt x="349" y="575" on="0"/>
        <pt x="354" y="410" on="0"/>
        <pt x="361" y="261" on="0"/>
        <pt x="367" y="138" on="0"/>
        <pt x="367" y="96" on="1"/>
        <pt x="367" y="67" on="0"/>
        <pt x="363" y="32" on="0"/>
        <pt x="358" y="29" on="1"/>
        <pt x="353" y="24" on="0"/>
        <pt x="345" y="22" on="0"/>
        <pt x="337" y="22" on="0"/>
        <pt x="328" y="23" on="0"/>
        <pt x="322" y="20" on="1"/>
        <pt x="315" y="17" on="0"/>
        <pt x="311" y="10" on="0"/>
        <pt x="307" y="2" on="0"/>
        <pt x="299" y="-6" on="0"/>
        <pt x="289" y="-10" on="1"/>
        <pt x="276" y="-13" on="0"/>
        <pt x="253" y="6" on="0"/>
        <pt x="242" y="12" on="1"/>
        <pt x="225" y="22" on="0"/>
        <pt x="204" y="35" on="0"/>
        <pt x="195" y="49" on="1"/>
        <pt x="188" y="61" on="0"/>
        <pt x="178" y="110" on="0"/>
        <pt x="172" y="177" on="0"/>
        <pt x="170" y="259" on="0"/>
        <pt x="170" y="303" on="1"/>
        <pt x="170" y="353" on="0"/>
        <pt x="172" y="454" on="0"/>
        <pt x="175" y="546" on="0"/>
        <pt x="177" y="620" on="0"/>
        <pt x="178" y="643" on="1"/>
        <pt x="180" y="715" on="0"/>
        <pt x="187" y="873" on="0"/>
        <pt x="194" y="1030" on="0"/>
        <pt x="202" y="1176" on="0"/>
        <pt x="210" y="1297" on="0"/>
        <pt x="217" y="1382" on="0"/>
        <pt x="221" y="1399" on="1"/>
        <pt x="227" y="1420" on="0"/>
        <pt x="242" y="1423" on="1"/>
        <pt x="249" y="1426" on="0"/>
        <pt x="258" y="1418" on="0"/>
        <pt x="264" y="1427" on="1"/>
        <pt x="266" y="1432" on="0"/>
        <pt x="274" y="1434" on="0"/>
        <pt x="282" y="1434" on="0"/>
        <pt x="290" y="1434" on="0"/>
        <pt x="293" y="1436" on="1"/>
        <pt x="299" y="1442" on="0"/>
        <pt x="312" y="1435" on="0"/>
        <pt x="315" y="1432" on="1"/>
        <pt x="318" y="1425" on="0"/>
        <pt x="328" y="1418" on="0"/>
        <pt x="334" y="1423" on="1"/>
        <pt x="337" y="1426" on="0"/>
        <pt x="348" y="1426" on="0"/>
        <pt x="350" y="1421" on="1"/>
        <pt x="353" y="1416" on="0"/>
        <pt x="367" y="1406" on="0"/>
      </contour>
    </TTGlyph>
    <TTGlyph name="IJ" xMin="170" yMin="-137" xMax="1239" yMax="1569">
      <component glyphName="I" x="0" y="0" flags="0x4"/>
      <component glyphName="J" x="526" y="0" flags="0x4"/>
    </TTGlyph>
    <TTGlyph name="Iacute" xMin="170" yMin="-13" xMax="547" yMax="1868">
      <component glyphName="I" x="0" y="0" flags="0x204"/>
      <component glyphName="acute" x="-91" y="600" flags="0x4"/>
    </TTGlyph>
    <TTGlyph name="Ibreve" xMin="30" yMin="-13" xMax="588" yMax="1872">
      <component glyphName="I" x="0" y="0" flags="0x204"/>
      <component glyphName="breve" x="-151" y="600" flags="0x4"/>
    </TTGlyph>
    <TTGlyph name="Icircumflex" xMin="21" yMin="-13" xMax="576" yMax="1864">
      <component glyphName="I" x="0" y="0" flags="0x204"/>
      <component glyphName="circumflex" x="-161" y="600" flags="0x4"/>
    </TTGlyph>
    <TTGlyph name="Idieresis" xMin="64" yMin="-13" xMax="533" yMax="1786">
      <component glyphName="I" x="0" y="0" flags="0x204"/>
      <component glyphName="dieresis" x="-161" y="600" flags="0x4"/>
    </TTGlyph>
    <TTGlyph name="Idotaccent" xMin="170" yMin="-13" xMax="416" yMax="1831">
      <component glyphName="I" x="0" y="0" flags="0x204"/>
      <component glyphName="dotaccent" x="-153" y="600" flags="0x4"/>
    </TTGlyph>
    <TTGlyph name="Igrave" xMin="30" yMin="-13" xMax="376" yMax="1862">
      <component glyphName="I" x="0" y="0" flags="0x204"/>
      <component glyphName="grave" x="-257" y="600" flags="0x4"/>
    </TTGlyph>
    <TTGlyph name="Imacron" xMin="15" yMin="-13" xMax="587" yMax="1771">
      <component glyphName="I" x="0" y="0" flags="0x204"/>
      <component glyphName="macron" x="-161" y="600" flags="0x4"/>
    </TTGlyph>
    <TTGlyph name="Iogonek" xMin="-4" yMin="-420" xMax="469" yMax="1442">
      <contour>
        <pt x="367" y="1397" on="1"/>
        <pt x="367" y="1216" on="0"/>
        <pt x="353" y="843" on="0"/>
        <pt x="350" y="659" on="1"/>
        <pt x="349" y="575" on="0"/>
        <pt x="354" y="410" on="0"/>
        <pt x="361" y="261" on="0"/>
        <pt x="367" y="138" on="0"/>
        <pt x="367" y="96" on="1"/>
        <pt x="367" y="67" on="0"/>
        <pt x="362" y="44" on="0"/>
        <pt x="354" y="39" on="1"/>
        <pt x="342" y="31" on="0"/>
        <pt x="302" y="8" on="0"/>
        <pt x="276" y="-10" on="1"/>
        <pt x="207" y="-61" on="0"/>
        <pt x="129" y="-175" on="0"/>
        <pt x="129" y="-229" on="1"/>
        <pt x="129" y="-261" on="0"/>
        <pt x="181" y="-293" on="0"/>
        <pt x="213" y="-293" on="1"/>
        <pt x="244" y="-293" on="0"/>
        <pt x="298" y="-281" on="0"/>
        <pt x="344" y="-263" on="0"/>
        <pt x="383" y="-242" on="0"/>
        <pt x="399" y="-233" on="1"/>
        <pt x="403" y="-232" on="0"/>
        <pt x="421" y="-225" on="0"/>
        <pt x="436" y="-233" on="0"/>
        <pt x="444" y="-264" on="0"/>
        <pt x="438" y="-299" on="1"/>
        <pt x="436" y="-311" on="0"/>
        <pt x="446" y="-321" on="0"/>
        <pt x="458" y="-328" on="0"/>
        <pt x="469" y="-336" on="0"/>
        <pt x="469" y="-344" on="1"/>
        <pt x="469" y="-355" on="0"/>
        <pt x="454" y="-370" on="0"/>
        <pt x="446" y="-375" on="1"/>
        <pt x="408" y="-396" on="0"/>
        <pt x="291" y="-420" on="0"/>
        <pt x="219" y="-420" on="1"/>
        <pt x="172" y="-420" on="0"/>
        <pt x="91" y="-397" on="0"/>
        <pt x="31" y="-355" on="0"/>
        <pt x="-4" y="-295" on="0"/>
        <pt x="-4" y="-258" on="1"/>
        <pt x="-4" y="-212" on="0"/>
        <pt x="26" y="-138" on="0"/>
        <pt x="82" y="-72" on="0"/>
        <pt x="162" y="-9" on="0"/>
        <pt x="213" y="27" on="1"/>
        <pt x="208" y="32" on="0"/>
        <pt x="200" y="41" on="0"/>
        <pt x="195" y="49" on="1"/>
        <pt x="188" y="61" on="0"/>
        <pt x="178" y="110" on="0"/>
        <pt x="172" y="177" on="0"/>
        <pt x="170" y="259" on="0"/>
        <pt x="170" y="303" on="1"/>
        <pt x="170" y="353" on="0"/>
        <pt x="172" y="454" on="0"/>
        <pt x="175" y="546" on="0"/>
        <pt x="177" y="620" on="0"/>
        <pt x="178" y="643" on="1"/>
        <pt x="180" y="715" on="0"/>
        <pt x="187" y="873" on="0"/>
        <pt x="194" y="1030" on="0"/>
        <pt x="202" y="1176" on="0"/>
        <pt x="210" y="1297" on="0"/>
        <pt x="217" y="1382" on="0"/>
        <pt x="221" y="1399" on="1"/>
        <pt x="227" y="1420" on="0"/>
        <pt x="242" y="1423" on="1"/>
        <pt x="249" y="1426" on="0"/>
        <pt x="258" y="1418" on="0"/>
        <pt x="264" y="1427" on="1"/>
        <pt x="266" y="1432" on="0"/>
        <pt x="274" y="1434" on="0"/>
        <pt x="282" y="1434" on="0"/>
        <pt x="290" y="1434" on="0"/>
        <pt x="293" y="1436" on="1"/>
        <pt x="299" y="1442" on="0"/>
        <pt x="312" y="1435" on="0"/>
        <pt x="315" y="1432" on="1"/>
        <pt x="318" y="1425" on="0"/>
        <pt x="328" y="1418" on="0"/>
        <pt x="334" y="1423" on="1"/>
        <pt x="337" y="1426" on="0"/>
        <pt x="348" y="1426" on="0"/>
        <pt x="350" y="1421" on="1"/>
        <pt x="353" y="1416" on="0"/>
        <pt x="367" y="1406" on="0"/>
      </contour>
    </TTGlyph>
    <TTGlyph name="Itilde" xMin="25" yMin="-13" xMax="578" yMax="1849">
      <component glyphName="I" x="0" y="0" flags="0x204"/>
      <component glyphName="tilde" x="-161" y="600" flags="0x4"/>
    </TTGlyph>
    <TTGlyph name="J" xMin="-1" yMin="-137" xMax="713" yMax="1569">
      <contour>
        <pt x="678" y="1446" on="1"/>
        <pt x="683" y="1411" on="0"/>
        <pt x="695" y="1289" on="0"/>
        <pt x="706" y="1133" on="0"/>
        <pt x="713" y="949" on="0"/>
        <pt x="713" y="852" on="1"/>
        <pt x="713" y="744" on="0"/>
        <pt x="702" y="525" on="0"/>
        <pt x="677" y="322" on="0"/>
        <pt x="633" y="145" on="0"/>
        <pt x="600" y="80" on="1"/>
        <pt x="583" y="47" on="0"/>
        <pt x="521" y="-35" on="0"/>
        <pt x="431" y="-101" on="0"/>
        <pt x="313" y="-137" on="0"/>
        <pt x="240" y="-125" on="1"/>
        <pt x="188" y="-116" on="0"/>
        <pt x="101" y="-56" on="0"/>
        <pt x="37" y="31" on="0"/>
        <pt x="1" y="136" on="0"/>
        <pt x="0" y="188" on="1"/>
        <pt x="-1" y="247" on="0"/>
        <pt x="25" y="348" on="0"/>
        <pt x="62" y="426" on="0"/>
        <pt x="104" y="478" on="0"/>
        <pt x="119" y="489" on="1"/>
        <pt x="137" y="502" on="0"/>
        <pt x="152" y="506" on="0"/>
        <pt x="160" y="508" on="1"/>
        <pt x="170" y="510" on="0"/>
        <pt x="179" y="509" on="0"/>
        <pt x="182" y="506" on="0"/>
        <pt x="184" y="501" on="0"/>
        <pt x="188" y="500" on="1"/>
        <pt x="193" y="498" on="0"/>
        <pt x="205" y="498" on="0"/>
        <pt x="214" y="498" on="0"/>
        <pt x="217" y="495" on="0"/>
        <pt x="213" y="489" on="1"/>
        <pt x="211" y="486" on="0"/>
        <pt x="216" y="484" on="0"/>
        <pt x="225" y="483" on="0"/>
        <pt x="232" y="479" on="0"/>
        <pt x="231" y="475" on="1"/>
        <pt x="229" y="472" on="0"/>
        <pt x="235" y="461" on="0"/>
        <pt x="240" y="463" on="1"/>
        <pt x="253" y="466" on="0"/>
        <pt x="251" y="463" on="0"/>
        <pt x="233" y="448" on="0"/>
        <pt x="207" y="422" on="0"/>
        <pt x="197" y="403" on="1"/>
        <pt x="171" y="352" on="0"/>
        <pt x="145" y="236" on="0"/>
        <pt x="145" y="180" on="1"/>
        <pt x="145" y="143" on="0"/>
        <pt x="156" y="78" on="0"/>
        <pt x="178" y="28" on="0"/>
        <pt x="211" y="-3" on="0"/>
        <pt x="233" y="-6" on="1"/>
        <pt x="284" y="-13" on="0"/>
        <pt x="366" y="54" on="0"/>
        <pt x="430" y="170" on="0"/>
        <pt x="478" y="320" on="0"/>
        <pt x="510" y="471" on="0"/>
        <pt x="527" y="610" on="0"/>
        <pt x="530" y="657" on="1"/>
        <pt x="534" y="723" on="0"/>
        <pt x="537" y="855" on="0"/>
        <pt x="537" y="920" on="1"/>
        <pt x="537" y="1036" on="0"/>
        <pt x="529" y="1247" on="0"/>
        <pt x="518" y="1413" on="0"/>
        <pt x="506" y="1520" on="0"/>
        <pt x="502" y="1532" on="1"/>
        <pt x="500" y="1537" on="0"/>
        <pt x="503" y="1543" on="0"/>
        <pt x="512" y="1546" on="0"/>
        <pt x="523" y="1544" on="0"/>
        <pt x="528" y="1542" on="1"/>
        <pt x="535" y="1540" on="0"/>
        <pt x="537" y="1553" on="0"/>
        <pt x="543" y="1556" on="1"/>
        <pt x="548" y="1558" on="0"/>
        <pt x="558" y="1550" on="0"/>
        <pt x="561" y="1550" on="1"/>
        <pt x="566" y="1550" on="0"/>
        <pt x="573" y="1558" on="0"/>
        <pt x="578" y="1556" on="1"/>
        <pt x="581" y="1554" on="0"/>
        <pt x="588" y="1550" on="0"/>
        <pt x="596" y="1552" on="1"/>
        <pt x="599" y="1553" on="0"/>
        <pt x="603" y="1560" on="0"/>
        <pt x="608" y="1567" on="0"/>
        <pt x="613" y="1569" on="0"/>
        <pt x="618" y="1565" on="1"/>
        <pt x="625" y="1557" on="0"/>
        <pt x="632" y="1556" on="0"/>
        <pt x="635" y="1561" on="0"/>
        <pt x="637" y="1568" on="0"/>
        <pt x="639" y="1567" on="1"/>
        <pt x="652" y="1561" on="0"/>
        <pt x="663" y="1553" on="0"/>
        <pt x="668" y="1531" on="0"/>
        <pt x="672" y="1487" on="0"/>
      </contour>
    </TTGlyph>
    <TTGlyph name="Jcircumflex" xMin="-1" yMin="-137" xMax="864" yMax="1975">
      <component glyphName="J" x="0" y="0" flags="0x204"/>
      <component glyphName="circumflex" x="127" y="711" flags="0x4"/>
    </TTGlyph>
    <TTGlyph name="K" xMin="54" yMin="-43" xMax="1424" yMax="1423">
      <contour>
        <pt x="393" y="1352" on="1"/>
        <pt x="391" y="1342" on="0"/>
        <pt x="384" y="1213" on="0"/>
        <pt x="379" y="1110" on="1"/>
        <pt x="374" y="998" on="0"/>
        <pt x="356" y="823" on="0"/>
        <pt x="350" y="752" on="1"/>
        <pt x="389" y="779" on="0"/>
        <pt x="485" y="870" on="0"/>
        <pt x="586" y="977" on="0"/>
        <pt x="685" y="1089" on="0"/>
        <pt x="767" y="1187" on="0"/>
        <pt x="827" y="1261" on="0"/>
        <pt x="838" y="1276" on="1"/>
        <pt x="860" y="1304" on="0"/>
        <pt x="911" y="1353" on="0"/>
        <pt x="957" y="1392" on="0"/>
        <pt x="996" y="1417" on="0"/>
        <pt x="1006" y="1421" on="1"/>
        <pt x="1013" y="1423" on="0"/>
        <pt x="1018" y="1422" on="1"/>
        <pt x="1023" y="1421" on="0"/>
        <pt x="1030" y="1414" on="0"/>
        <pt x="1030" y="1405" on="1"/>
        <pt x="1037" y="1400" on="0"/>
        <pt x="1031" y="1394" on="0"/>
        <pt x="1034" y="1391" on="1"/>
        <pt x="1037" y="1387" on="0"/>
        <pt x="1043" y="1379" on="0"/>
        <pt x="1038" y="1370" on="1"/>
        <pt x="1030" y="1352" on="0"/>
        <pt x="1012" y="1324" on="0"/>
        <pt x="980" y="1284" on="0"/>
        <pt x="925" y="1222" on="0"/>
        <pt x="879" y="1171" on="1"/>
        <pt x="834" y="1123" on="0"/>
        <pt x="716" y="985" on="0"/>
        <pt x="581" y="837" on="0"/>
        <pt x="433" y="693" on="0"/>
        <pt x="358" y="639" on="1"/>
        <pt x="387" y="633" on="0"/>
        <pt x="460" y="609" on="0"/>
        <pt x="545" y="567" on="0"/>
        <pt x="642" y="505" on="0"/>
        <pt x="696" y="461" on="1"/>
        <pt x="758" y="409" on="0"/>
        <pt x="876" y="305" on="0"/>
        <pt x="996" y="222" on="0"/>
        <pt x="1122" y="170" on="0"/>
        <pt x="1192" y="170" on="1"/>
        <pt x="1238" y="170" on="0"/>
        <pt x="1339" y="196" on="0"/>
        <pt x="1395" y="227" on="1"/>
        <pt x="1408" y="234" on="0"/>
        <pt x="1421" y="236" on="0"/>
        <pt x="1424" y="232" on="0"/>
        <pt x="1420" y="223" on="0"/>
        <pt x="1417" y="219" on="1"/>
        <pt x="1415" y="217" on="0"/>
        <pt x="1405" y="210" on="0"/>
        <pt x="1392" y="201" on="0"/>
        <pt x="1380" y="190" on="0"/>
        <pt x="1376" y="184" on="1"/>
        <pt x="1373" y="182" on="0"/>
        <pt x="1379" y="181" on="0"/>
        <pt x="1384" y="178" on="0"/>
        <pt x="1382" y="171" on="0"/>
        <pt x="1370" y="164" on="1"/>
        <pt x="1364" y="160" on="0"/>
        <pt x="1356" y="147" on="0"/>
        <pt x="1349" y="134" on="0"/>
        <pt x="1339" y="121" on="0"/>
        <pt x="1331" y="117" on="1"/>
        <pt x="1313" y="107" on="0"/>
        <pt x="1294" y="76" on="0"/>
        <pt x="1288" y="70" on="1"/>
        <pt x="1280" y="61" on="0"/>
        <pt x="1226" y="29" on="0"/>
        <pt x="1151" y="0" on="0"/>
        <pt x="1061" y="-17" on="0"/>
        <pt x="1016" y="-10" on="1"/>
        <pt x="948" y="1" on="0"/>
        <pt x="827" y="83" on="0"/>
        <pt x="714" y="194" on="0"/>
        <pt x="608" y="322" on="0"/>
        <pt x="504" y="436" on="0"/>
        <pt x="399" y="523" on="0"/>
        <pt x="344" y="539" on="1"/>
        <pt x="344" y="499" on="0"/>
        <pt x="347" y="397" on="0"/>
        <pt x="350" y="288" on="0"/>
        <pt x="353" y="183" on="0"/>
        <pt x="356" y="97" on="0"/>
        <pt x="359" y="39" on="0"/>
        <pt x="360" y="33" on="1"/>
        <pt x="364" y="8" on="0"/>
        <pt x="356" y="-3" on="0"/>
        <pt x="344" y="-6" on="1"/>
        <pt x="339" y="-8" on="0"/>
        <pt x="328" y="-3" on="0"/>
        <pt x="322" y="-8" on="1"/>
        <pt x="319" y="-11" on="0"/>
        <pt x="317" y="-19" on="0"/>
        <pt x="313" y="-28" on="0"/>
        <pt x="304" y="-36" on="0"/>
        <pt x="293" y="-39" on="1"/>
        <pt x="288" y="-41" on="0"/>
        <pt x="277" y="-41" on="0"/>
        <pt x="270" y="-41" on="1"/>
        <pt x="262" y="-43" on="0"/>
        <pt x="237" y="-28" on="0"/>
        <pt x="227" y="-20" on="1"/>
        <pt x="222" y="-15" on="0"/>
        <pt x="212" y="2" on="0"/>
        <pt x="207" y="10" on="1"/>
        <pt x="202" y="16" on="0"/>
        <pt x="189" y="22" on="0"/>
        <pt x="186" y="35" on="1"/>
        <pt x="175" y="81" on="0"/>
        <pt x="168" y="217" on="0"/>
        <pt x="168" y="289" on="1"/>
        <pt x="168" y="331" on="0"/>
        <pt x="170" y="414" on="0"/>
        <pt x="173" y="489" on="0"/>
        <pt x="176" y="553" on="0"/>
        <pt x="178" y="575" on="1"/>
        <pt x="135" y="580" on="1"/>
        <pt x="117" y="580" on="0"/>
        <pt x="101" y="584" on="0"/>
        <pt x="92" y="591" on="0"/>
        <pt x="84" y="601" on="0"/>
        <pt x="76" y="606" on="1"/>
        <pt x="60" y="617" on="0"/>
        <pt x="54" y="638" on="0"/>
        <pt x="76" y="655" on="1"/>
        <pt x="91" y="668" on="0"/>
        <pt x="143" y="679" on="0"/>
        <pt x="186" y="690" on="1"/>
        <pt x="188" y="738" on="0"/>
        <pt x="193" y="858" on="0"/>
        <pt x="201" y="987" on="0"/>
        <pt x="210" y="1118" on="0"/>
        <pt x="220" y="1236" on="0"/>
        <pt x="232" y="1334" on="0"/>
        <pt x="238" y="1366" on="1"/>
        <pt x="240" y="1380" on="0"/>
        <pt x="247" y="1392" on="0"/>
        <pt x="252" y="1395" on="1"/>
        <pt x="258" y="1396" on="0"/>
        <pt x="268" y="1386" on="0"/>
        <pt x="276" y="1391" on="1"/>
        <pt x="282" y="1394" on="0"/>
        <pt x="290" y="1399" on="0"/>
        <pt x="295" y="1400" on="0"/>
        <pt x="299" y="1394" on="0"/>
        <pt x="303" y="1386" on="1"/>
        <pt x="304" y="1385" on="0"/>
        <pt x="307" y="1387" on="0"/>
        <pt x="309" y="1389" on="1"/>
        <pt x="313" y="1393" on="1"/>
        <pt x="320" y="1396" on="0"/>
        <pt x="342" y="1399" on="0"/>
        <pt x="344" y="1391" on="1"/>
        <pt x="345" y="1384" on="0"/>
        <pt x="349" y="1387" on="0"/>
        <pt x="356" y="1395" on="0"/>
        <pt x="366" y="1403" on="0"/>
        <pt x="373" y="1401" on="1"/>
        <pt x="387" y="1396" on="0"/>
        <pt x="401" y="1373" on="0"/>
      </contour>
    </TTGlyph>
    <TTGlyph name="Kcommaaccent" xMin="54" yMin="-469" xMax="1424" yMax="1423">
      <component glyphName="K" x="0" y="0" flags="0x204"/>
      <component glyphName="commaaccent" x="174" y="0" flags="0x4"/>
    </TTGlyph>
    <TTGlyph name="L" xMin="36" yMin="-36" xMax="1109" yMax="1427">
      <contour>
        <pt x="1102" y="141" on="1"/>
        <pt x="1107" y="134" on="0"/>
        <pt x="1109" y="128" on="0"/>
        <pt x="1106" y="125" on="0"/>
        <pt x="1100" y="123" on="0"/>
        <pt x="1098" y="121" on="1"/>
        <pt x="1093" y="118" on="0"/>
        <pt x="1098" y="112" on="0"/>
        <pt x="1092" y="104" on="1"/>
        <pt x="1088" y="101" on="0"/>
        <pt x="1094" y="94" on="0"/>
        <pt x="1092" y="92" on="1"/>
        <pt x="1077" y="69" on="0"/>
        <pt x="1069" y="63" on="1"/>
        <pt x="1061" y="63" on="0"/>
        <pt x="1055" y="61" on="1"/>
        <pt x="1052" y="60" on="0"/>
        <pt x="1051" y="59" on="1"/>
        <pt x="1048" y="56" on="0"/>
        <pt x="1042" y="47" on="0"/>
        <pt x="1038" y="40" on="0"/>
        <pt x="1033" y="37" on="0"/>
        <pt x="1030" y="41" on="1"/>
        <pt x="1027" y="46" on="0"/>
        <pt x="1018" y="46" on="0"/>
        <pt x="1016" y="43" on="1"/>
        <pt x="1014" y="41" on="0"/>
        <pt x="1008" y="36" on="0"/>
        <pt x="1007" y="31" on="0"/>
        <pt x="1013" y="26" on="0"/>
        <pt x="1024" y="23" on="1"/>
        <pt x="1049" y="16" on="0"/>
        <pt x="1018" y="3" on="0"/>
        <pt x="975" y="6" on="1"/>
        <pt x="934" y="9" on="0"/>
        <pt x="860" y="14" on="0"/>
        <pt x="787" y="17" on="0"/>
        <pt x="711" y="19" on="0"/>
        <pt x="668" y="18" on="1"/>
        <pt x="611" y="17" on="0"/>
        <pt x="484" y="9" on="0"/>
        <pt x="359" y="-1" on="0"/>
        <pt x="244" y="-12" on="0"/>
        <pt x="152" y="-22" on="0"/>
        <pt x="89" y="-31" on="0"/>
        <pt x="80" y="-33" on="1"/>
        <pt x="71" y="-36" on="0"/>
        <pt x="64" y="-35" on="0"/>
        <pt x="61" y="-25" on="0"/>
        <pt x="59" y="-5" on="0"/>
        <pt x="55" y="12" on="1"/>
        <pt x="52" y="22" on="0"/>
        <pt x="41" y="43" on="0"/>
        <pt x="39" y="49" on="1"/>
        <pt x="36" y="65" on="0"/>
        <pt x="38" y="78" on="0"/>
        <pt x="49" y="80" on="1"/>
        <pt x="172" y="113" on="1"/>
        <pt x="161" y="182" on="0"/>
        <pt x="152" y="367" on="0"/>
        <pt x="152" y="475" on="1"/>
        <pt x="152" y="568" on="0"/>
        <pt x="160" y="763" on="0"/>
        <pt x="168" y="862" on="1"/>
        <pt x="188" y="1112" on="0"/>
        <pt x="215" y="1379" on="0"/>
        <pt x="227" y="1401" on="1"/>
        <pt x="230" y="1406" on="0"/>
        <pt x="234" y="1415" on="0"/>
        <pt x="238" y="1415" on="1"/>
        <pt x="244" y="1418" on="0"/>
        <pt x="250" y="1410" on="0"/>
        <pt x="258" y="1413" on="1"/>
        <pt x="260" y="1413" on="0"/>
        <pt x="263" y="1418" on="0"/>
        <pt x="266" y="1421" on="1"/>
        <pt x="268" y="1422" on="1"/>
        <pt x="270" y="1424" on="0"/>
        <pt x="276" y="1427" on="1"/>
        <pt x="291" y="1422" on="0"/>
        <pt x="298" y="1418" on="1"/>
        <pt x="302" y="1416" on="0"/>
        <pt x="303" y="1415" on="1"/>
        <pt x="309" y="1412" on="0"/>
        <pt x="321" y="1397" on="0"/>
        <pt x="326" y="1403" on="1"/>
        <pt x="328" y="1405" on="1"/>
        <pt x="330" y="1407" on="0"/>
        <pt x="334" y="1407" on="1"/>
        <pt x="337" y="1405" on="0"/>
        <pt x="343" y="1401" on="0"/>
        <pt x="345" y="1399" on="1"/>
        <pt x="348" y="1396" on="0"/>
        <pt x="350" y="1395" on="1"/>
        <pt x="355" y="1392" on="0"/>
        <pt x="363" y="1382" on="0"/>
        <pt x="367" y="1368" on="1"/>
        <pt x="371" y="1350" on="0"/>
        <pt x="366" y="1238" on="0"/>
        <pt x="355" y="1074" on="0"/>
        <pt x="343" y="870" on="0"/>
        <pt x="342" y="760" on="1"/>
        <pt x="341" y="709" on="0"/>
        <pt x="337" y="592" on="0"/>
        <pt x="333" y="469" on="0"/>
        <pt x="330" y="349" on="0"/>
        <pt x="330" y="295" on="1"/>
        <pt x="330" y="252" on="0"/>
        <pt x="331" y="177" on="0"/>
        <pt x="336" y="150" on="1"/>
        <pt x="445" y="173" on="0"/>
        <pt x="716" y="209" on="0"/>
        <pt x="870" y="209" on="1"/>
        <pt x="926" y="209" on="0"/>
        <pt x="1001" y="198" on="0"/>
        <pt x="1026" y="188" on="1"/>
        <pt x="1032" y="186" on="0"/>
        <pt x="1054" y="175" on="0"/>
        <pt x="1078" y="161" on="0"/>
        <pt x="1098" y="147" on="0"/>
      </contour>
    </TTGlyph>
    <TTGlyph name="Lacute" xMin="36" yMin="-36" xMax="1109" yMax="1870">
      <component glyphName="L" x="0" y="0" flags="0x204"/>
      <component glyphName="acute" x="72" y="602" flags="0x4"/>
    </TTGlyph>
    <TTGlyph name="Lcaron" xMin="36" yMin="-36" xMax="1109" yMax="1471">
      <component glyphName="L" x="0" y="0" flags="0x204"/>
      <component glyphName="commaaccent" x="338" y="1612" flags="0x4"/>
    </TTGlyph>
    <TTGlyph name="Lcommaaccent" xMin="36" yMin="-469" xMax="1109" yMax="1427">
      <component glyphName="L" x="0" y="0" flags="0x204"/>
      <component glyphName="commaaccent" x="84" y="0" flags="0x4"/>
    </TTGlyph>
    <TTGlyph name="Ldot" xMin="36" yMin="-36" xMax="1109" yMax="1427">
      <component glyphName="L" x="0" y="0" flags="0x204"/>
      <component glyphName="periodcentered" x="633" y="-28" flags="0x4"/>
    </TTGlyph>
    <TTGlyph name="Lslash" xMin="-49" yMin="-36" xMax="1109" yMax="1427">
      <contour>
        <pt x="1102" y="141" on="1"/>
        <pt x="1107" y="134" on="0"/>
        <pt x="1109" y="128" on="0"/>
        <pt x="1106" y="125" on="0"/>
        <pt x="1100" y="123" on="0"/>
        <pt x="1098" y="121" on="1"/>
        <pt x="1093" y="118" on="0"/>
        <pt x="1098" y="112" on="0"/>
        <pt x="1092" y="104" on="1"/>
        <pt x="1088" y="101" on="0"/>
        <pt x="1094" y="94" on="0"/>
        <pt x="1092" y="92" on="1"/>
        <pt x="1077" y="69" on="0"/>
        <pt x="1069" y="63" on="1"/>
        <pt x="1061" y="63" on="0"/>
        <pt x="1055" y="61" on="1"/>
        <pt x="1052" y="60" on="0"/>
        <pt x="1051" y="59" on="1"/>
        <pt x="1048" y="56" on="0"/>
        <pt x="1042" y="47" on="0"/>
        <pt x="1038" y="40" on="0"/>
        <pt x="1033" y="37" on="0"/>
        <pt x="1030" y="41" on="1"/>
        <pt x="1027" y="46" on="0"/>
        <pt x="1018" y="46" on="0"/>
        <pt x="1016" y="43" on="1"/>
        <pt x="1014" y="41" on="0"/>
        <pt x="1008" y="36" on="0"/>
        <pt x="1007" y="31" on="0"/>
        <pt x="1013" y="26" on="0"/>
        <pt x="1024" y="23" on="1"/>
        <pt x="1049" y="16" on="0"/>
        <pt x="1018" y="3" on="0"/>
        <pt x="975" y="6" on="1"/>
        <pt x="934" y="9" on="0"/>
        <pt x="860" y="14" on="0"/>
        <pt x="787" y="17" on="0"/>
        <pt x="711" y="19" on="0"/>
        <pt x="668" y="18" on="1"/>
        <pt x="611" y="17" on="0"/>
        <pt x="484" y="9" on="0"/>
        <pt x="359" y="-1" on="0"/>
        <pt x="244" y="-12" on="0"/>
        <pt x="152" y="-22" on="0"/>
        <pt x="89" y="-31" on="0"/>
        <pt x="80" y="-33" on="1"/>
        <pt x="71" y="-36" on="0"/>
        <pt x="64" y="-35" on="0"/>
        <pt x="61" y="-25" on="0"/>
        <pt x="59" y="-5" on="0"/>
        <pt x="55" y="12" on="1"/>
        <pt x="52" y="22" on="0"/>
        <pt x="41" y="43" on="0"/>
        <pt x="39" y="49" on="1"/>
        <pt x="36" y="65" on="0"/>
        <pt x="38" y="78" on="0"/>
        <pt x="49" y="80" on="1"/>
        <pt x="172" y="113" on="1"/>
        <pt x="161" y="182" on="0"/>
        <pt x="152" y="367" on="0"/>
        <pt x="152" y="473" on="1"/>
        <pt x="10" y="393" on="1"/>
        <pt x="1" y="390" on="0"/>
        <pt x="-18" y="417" on="0"/>
        <pt x="-23" y="426" on="1"/>
        <pt x="-25" y="431" on="0"/>
        <pt x="-23" y="446" on="0"/>
        <pt x="-25" y="451" on="1"/>
        <pt x="-25" y="453" on="0"/>
        <pt x="-44" y="456" on="0"/>
        <pt x="-49" y="465" on="1"/>
        <pt x="-29" y="483" on="0"/>
        <pt x="1" y="505" on="1"/>
        <pt x="27" y="524" on="0"/>
        <pt x="103" y="575" on="0"/>
        <pt x="154" y="606" on="1"/>
        <pt x="156" y="669" on="0"/>
        <pt x="162" y="797" on="0"/>
        <pt x="168" y="862" on="1"/>
        <pt x="188" y="1112" on="0"/>
        <pt x="215" y="1379" on="0"/>
        <pt x="227" y="1401" on="1"/>
        <pt x="230" y="1406" on="0"/>
        <pt x="234" y="1415" on="0"/>
        <pt x="238" y="1415" on="1"/>
        <pt x="244" y="1418" on="0"/>
        <pt x="250" y="1410" on="0"/>
        <pt x="258" y="1413" on="1"/>
        <pt x="260" y="1413" on="0"/>
        <pt x="263" y="1418" on="0"/>
        <pt x="266" y="1421" on="1"/>
        <pt x="268" y="1422" on="1"/>
        <pt x="270" y="1424" on="0"/>
        <pt x="276" y="1427" on="1"/>
        <pt x="291" y="1422" on="0"/>
        <pt x="298" y="1418" on="1"/>
        <pt x="302" y="1416" on="0"/>
        <pt x="303" y="1415" on="1"/>
        <pt x="309" y="1412" on="0"/>
        <pt x="321" y="1397" on="0"/>
        <pt x="326" y="1403" on="1"/>
        <pt x="328" y="1405" on="1"/>
        <pt x="330" y="1407" on="0"/>
        <pt x="334" y="1407" on="1"/>
        <pt x="337" y="1405" on="0"/>
        <pt x="343" y="1401" on="0"/>
        <pt x="345" y="1399" on="1"/>
        <pt x="348" y="1396" on="0"/>
        <pt x="350" y="1395" on="1"/>
        <pt x="355" y="1392" on="0"/>
        <pt x="363" y="1382" on="0"/>
        <pt x="367" y="1368" on="1"/>
        <pt x="371" y="1350" on="0"/>
        <pt x="366" y="1238" on="0"/>
        <pt x="355" y="1074" on="0"/>
        <pt x="343" y="870" on="0"/>
        <pt x="342" y="760" on="1"/>
        <pt x="342" y="747" on="0"/>
        <pt x="340" y="723" on="0"/>
        <pt x="340" y="711" on="1"/>
        <pt x="350" y="715" on="1"/>
        <pt x="358" y="719" on="0"/>
        <pt x="400" y="741" on="0"/>
        <pt x="454" y="770" on="0"/>
        <pt x="514" y="802" on="0"/>
        <pt x="564" y="826" on="0"/>
        <pt x="597" y="839" on="0"/>
        <pt x="598" y="836" on="1"/>
        <pt x="604" y="811" on="1"/>
        <pt x="607" y="806" on="0"/>
        <pt x="616" y="795" on="0"/>
        <pt x="621" y="795" on="1"/>
        <pt x="625" y="793" on="0"/>
        <pt x="625" y="791" on="1"/>
        <pt x="626" y="790" on="0"/>
        <pt x="622" y="784" on="0"/>
        <pt x="619" y="773" on="0"/>
        <pt x="620" y="757" on="0"/>
        <pt x="625" y="745" on="1"/>
        <pt x="631" y="737" on="1"/>
        <pt x="633" y="734" on="0"/>
        <pt x="622" y="721" on="0"/>
        <pt x="594" y="707" on="1"/>
        <pt x="587" y="704" on="0"/>
        <pt x="545" y="681" on="0"/>
        <pt x="478" y="647" on="0"/>
        <pt x="390" y="601" on="0"/>
        <pt x="336" y="575" on="1"/>
        <pt x="334" y="503" on="0"/>
        <pt x="330" y="358" on="0"/>
        <pt x="330" y="295" on="1"/>
        <pt x="330" y="252" on="0"/>
        <pt x="331" y="177" on="0"/>
        <pt x="336" y="150" on="1"/>
        <pt x="445" y="173" on="0"/>
        <pt x="716" y="209" on="0"/>
        <pt x="870" y="209" on="1"/>
        <pt x="926" y="209" on="0"/>
        <pt x="1001" y="198" on="0"/>
        <pt x="1026" y="188" on="1"/>
        <pt x="1032" y="186" on="0"/>
        <pt x="1054" y="175" on="0"/>
        <pt x="1078" y="161" on="0"/>
        <pt x="1098" y="147" on="0"/>
      </contour>
    </TTGlyph>
    <TTGlyph name="M" xMin="40" yMin="-56" xMax="1492" yMax="1460">
      <contour>
        <pt x="1491" y="37" on="1"/>
        <pt x="1489" y="29" on="0"/>
        <pt x="1490" y="14" on="0"/>
        <pt x="1487" y="8" on="0"/>
        <pt x="1475" y="17" on="0"/>
        <pt x="1460" y="33" on="1"/>
        <pt x="1434" y="41" on="1"/>
        <pt x="1423" y="30" on="1"/>
        <pt x="1420" y="27" on="0"/>
        <pt x="1417" y="25" on="1"/>
        <pt x="1409" y="18" on="0"/>
        <pt x="1396" y="29" on="0"/>
        <pt x="1386" y="37" on="1"/>
        <pt x="1378" y="44" on="0"/>
        <pt x="1371" y="48" on="0"/>
        <pt x="1370" y="45" on="0"/>
        <pt x="1371" y="34" on="0"/>
        <pt x="1370" y="27" on="1"/>
        <pt x="1370" y="24" on="0"/>
        <pt x="1360" y="9" on="0"/>
        <pt x="1360" y="6" on="1"/>
        <pt x="1358" y="-3" on="0"/>
        <pt x="1350" y="3" on="0"/>
        <pt x="1346" y="2" on="1"/>
        <pt x="1344" y="2" on="0"/>
        <pt x="1340" y="4" on="1"/>
        <pt x="1337" y="6" on="0"/>
        <pt x="1328" y="14" on="0"/>
        <pt x="1323" y="23" on="1"/>
        <pt x="1319" y="33" on="0"/>
        <pt x="1313" y="46" on="0"/>
        <pt x="1307" y="60" on="0"/>
        <pt x="1300" y="80" on="0"/>
        <pt x="1296" y="96" on="1"/>
        <pt x="1293" y="112" on="0"/>
        <pt x="1283" y="198" on="0"/>
        <pt x="1271" y="319" on="0"/>
        <pt x="1256" y="469" on="0"/>
        <pt x="1241" y="633" on="0"/>
        <pt x="1225" y="802" on="0"/>
        <pt x="1211" y="961" on="0"/>
        <pt x="1199" y="1103" on="0"/>
        <pt x="1194" y="1157" on="1"/>
        <pt x="784" y="135" on="1"/>
        <pt x="772" y="106" on="0"/>
        <pt x="740" y="59" on="0"/>
        <pt x="707" y="30" on="0"/>
        <pt x="676" y="20" on="0"/>
        <pt x="666" y="27" on="1"/>
        <pt x="651" y="37" on="0"/>
        <pt x="632" y="66" on="0"/>
        <pt x="619" y="99" on="0"/>
        <pt x="609" y="135" on="0"/>
        <pt x="602" y="154" on="1"/>
        <pt x="592" y="183" on="0"/>
        <pt x="561" y="311" on="0"/>
        <pt x="521" y="482" on="0"/>
        <pt x="477" y="685" on="0"/>
        <pt x="431" y="894" on="0"/>
        <pt x="388" y="1095" on="0"/>
        <pt x="369" y="1180" on="1"/>
        <pt x="364" y="1145" on="0"/>
        <pt x="342" y="1012" on="0"/>
        <pt x="313" y="841" on="0"/>
        <pt x="279" y="645" on="0"/>
        <pt x="246" y="449" on="0"/>
        <pt x="215" y="265" on="0"/>
        <pt x="190" y="117" on="0"/>
        <pt x="173" y="20" on="0"/>
        <pt x="172" y="8" on="1"/>
        <pt x="172" y="-1" on="0"/>
        <pt x="168" y="-11" on="1"/>
        <pt x="165" y="-19" on="0"/>
        <pt x="154" y="-38" on="0"/>
        <pt x="145" y="-47" on="1"/>
        <pt x="137" y="-50" on="0"/>
        <pt x="121" y="-56" on="0"/>
        <pt x="115" y="-53" on="1"/>
        <pt x="108" y="-50" on="0"/>
        <pt x="106" y="-35" on="0"/>
        <pt x="96" y="-29" on="1"/>
        <pt x="90" y="-24" on="0"/>
        <pt x="76" y="-19" on="0"/>
        <pt x="70" y="-8" on="1"/>
        <pt x="70" y="-1" on="0"/>
        <pt x="68" y="3" on="1"/>
        <pt x="67" y="5" on="0"/>
        <pt x="66" y="6" on="1"/>
        <pt x="65" y="7" on="0"/>
        <pt x="63" y="10" on="1"/>
        <pt x="61" y="13" on="0"/>
        <pt x="51" y="23" on="1"/>
        <pt x="45" y="35" on="0"/>
        <pt x="40" y="64" on="0"/>
        <pt x="45" y="86" on="1"/>
        <pt x="47" y="93" on="0"/>
        <pt x="59" y="152" on="0"/>
        <pt x="76" y="237" on="0"/>
        <pt x="96" y="340" on="0"/>
        <pt x="116" y="446" on="0"/>
        <pt x="133" y="544" on="0"/>
        <pt x="139" y="582" on="1"/>
        <pt x="145" y="615" on="0"/>
        <pt x="172" y="736" on="0"/>
        <pt x="208" y="884" on="0"/>
        <pt x="249" y="1046" on="0"/>
        <pt x="287" y="1197" on="0"/>
        <pt x="318" y="1324" on="0"/>
        <pt x="326" y="1362" on="1"/>
        <pt x="324" y="1367" on="0"/>
        <pt x="322" y="1377" on="0"/>
        <pt x="322" y="1382" on="1"/>
        <pt x="318" y="1392" on="0"/>
        <pt x="329" y="1394" on="0"/>
        <pt x="332" y="1397" on="1"/>
        <pt x="332" y="1399" on="0"/>
        <pt x="334" y="1401" on="0"/>
        <pt x="334" y="1403" on="1"/>
        <pt x="334" y="1409" on="0"/>
        <pt x="336" y="1409" on="1"/>
        <pt x="336" y="1422" on="0"/>
        <pt x="344" y="1430" on="0"/>
        <pt x="353" y="1432" on="0"/>
        <pt x="361" y="1432" on="0"/>
        <pt x="362" y="1438" on="1"/>
        <pt x="364" y="1451" on="0"/>
        <pt x="369" y="1460" on="0"/>
        <pt x="376" y="1459" on="0"/>
        <pt x="388" y="1452" on="0"/>
        <pt x="397" y="1448" on="1"/>
        <pt x="402" y="1446" on="0"/>
        <pt x="409" y="1447" on="0"/>
        <pt x="417" y="1446" on="0"/>
        <pt x="428" y="1442" on="0"/>
        <pt x="436" y="1436" on="1"/>
        <pt x="442" y="1431" on="0"/>
        <pt x="451" y="1431" on="0"/>
        <pt x="458" y="1437" on="0"/>
        <pt x="463" y="1445" on="0"/>
        <pt x="465" y="1448" on="1"/>
        <pt x="468" y="1453" on="0"/>
        <pt x="480" y="1453" on="0"/>
        <pt x="485" y="1448" on="1"/>
        <pt x="491" y="1440" on="0"/>
        <pt x="498" y="1434" on="0"/>
        <pt x="501" y="1431" on="0"/>
        <pt x="501" y="1430" on="0"/>
        <pt x="502" y="1427" on="1"/>
        <pt x="517" y="1382" on="0"/>
        <pt x="540" y="1284" on="0"/>
        <pt x="565" y="1158" on="0"/>
        <pt x="599" y="993" on="0"/>
        <pt x="625" y="881" on="1"/>
        <pt x="668" y="691" on="0"/>
        <pt x="732" y="432" on="0"/>
        <pt x="754" y="367" on="1"/>
        <pt x="774" y="413" on="0"/>
        <pt x="831" y="545" on="0"/>
        <pt x="895" y="700" on="0"/>
        <pt x="965" y="867" on="0"/>
        <pt x="1033" y="1031" on="0"/>
        <pt x="1096" y="1181" on="0"/>
        <pt x="1145" y="1301" on="0"/>
        <pt x="1179" y="1383" on="0"/>
        <pt x="1184" y="1395" on="1"/>
        <pt x="1190" y="1409" on="0"/>
        <pt x="1197" y="1427" on="0"/>
        <pt x="1202" y="1432" on="1"/>
        <pt x="1205" y="1440" on="0"/>
        <pt x="1216" y="1447" on="0"/>
        <pt x="1223" y="1444" on="1"/>
        <pt x="1225" y="1442" on="0"/>
        <pt x="1228" y="1441" on="1"/>
        <pt x="1230" y="1439" on="0"/>
        <pt x="1235" y="1438" on="0"/>
        <pt x="1237" y="1436" on="1"/>
        <pt x="1238" y="1441" on="0"/>
        <pt x="1244" y="1442" on="0"/>
        <pt x="1248" y="1442" on="1"/>
        <pt x="1252" y="1441" on="0"/>
        <pt x="1257" y="1440" on="1"/>
        <pt x="1260" y="1440" on="1"/>
        <pt x="1264" y="1440" on="1"/>
        <pt x="1267" y="1442" on="0"/>
        <pt x="1273" y="1445" on="0"/>
        <pt x="1276" y="1442" on="1"/>
        <pt x="1285" y="1437" on="0"/>
        <pt x="1292" y="1446" on="0"/>
        <pt x="1300" y="1446" on="1"/>
        <pt x="1305" y="1446" on="0"/>
        <pt x="1309" y="1447" on="1"/>
        <pt x="1312" y="1448" on="0"/>
        <pt x="1318" y="1451" on="0"/>
        <pt x="1319" y="1454" on="1"/>
        <pt x="1323" y="1454" on="0"/>
        <pt x="1328" y="1452" on="0"/>
        <pt x="1330" y="1451" on="1"/>
        <pt x="1333" y="1448" on="1"/>
        <pt x="1336" y="1444" on="0"/>
        <pt x="1348" y="1383" on="0"/>
        <pt x="1363" y="1294" on="0"/>
        <pt x="1378" y="1190" on="0"/>
        <pt x="1384" y="1143" on="1"/>
        <pt x="1386" y="1127" on="0"/>
        <pt x="1398" y="1018" on="0"/>
        <pt x="1414" y="861" on="0"/>
        <pt x="1434" y="669" on="0"/>
        <pt x="1454" y="473" on="0"/>
        <pt x="1472" y="286" on="0"/>
        <pt x="1485" y="138" on="0"/>
        <pt x="1492" y="43" on="0"/>
      </contour>
    </TTGlyph>
    <TTGlyph name="N" xMin="133" yMin="-23" xMax="1188" yMax="1498">
      <contour>
        <pt x="1186" y="1403" on="1"/>
        <pt x="1188" y="1385" on="0"/>
        <pt x="1188" y="1272" on="0"/>
        <pt x="1185" y="1108" on="0"/>
        <pt x="1180" y="906" on="0"/>
        <pt x="1172" y="689" on="0"/>
        <pt x="1163" y="470" on="0"/>
        <pt x="1153" y="274" on="0"/>
        <pt x="1141" y="113" on="0"/>
        <pt x="1135" y="63" on="1"/>
        <pt x="1135" y="57" on="0"/>
        <pt x="1124" y="48" on="0"/>
        <pt x="1118" y="37" on="1"/>
        <pt x="1112" y="27" on="0"/>
        <pt x="1100" y="25" on="0"/>
        <pt x="1092" y="27" on="0"/>
        <pt x="1088" y="25" on="0"/>
        <pt x="1090" y="16" on="1"/>
        <pt x="1092" y="10" on="0"/>
        <pt x="1075" y="3" on="0"/>
        <pt x="1069" y="8" on="1"/>
        <pt x="1061" y="14" on="0"/>
        <pt x="1039" y="31" on="0"/>
        <pt x="1036" y="31" on="1"/>
        <pt x="1030" y="32" on="0"/>
        <pt x="1034" y="20" on="0"/>
        <pt x="1041" y="6" on="0"/>
        <pt x="1044" y="-7" on="0"/>
        <pt x="1036" y="-8" on="1"/>
        <pt x="1021" y="-10" on="0"/>
        <pt x="982" y="8" on="0"/>
        <pt x="965" y="20" on="1"/>
        <pt x="951" y="31" on="0"/>
        <pt x="895" y="107" on="0"/>
        <pt x="818" y="224" on="0"/>
        <pt x="725" y="374" on="0"/>
        <pt x="625" y="544" on="0"/>
        <pt x="521" y="726" on="0"/>
        <pt x="423" y="907" on="0"/>
        <pt x="333" y="1079" on="0"/>
        <pt x="297" y="1153" on="1"/>
        <pt x="293" y="1111" on="0"/>
        <pt x="287" y="966" on="0"/>
        <pt x="282" y="789" on="0"/>
        <pt x="278" y="593" on="0"/>
        <pt x="275" y="403" on="0"/>
        <pt x="273" y="233" on="0"/>
        <pt x="272" y="172" on="1"/>
        <pt x="272" y="132" on="0"/>
        <pt x="269" y="99" on="0"/>
        <pt x="266" y="87" on="0"/>
        <pt x="263" y="82" on="0"/>
        <pt x="264" y="70" on="1"/>
        <pt x="264" y="38" on="0"/>
        <pt x="256" y="-15" on="0"/>
        <pt x="242" y="-18" on="1"/>
        <pt x="234" y="-22" on="0"/>
        <pt x="220" y="-9" on="0"/>
        <pt x="209" y="-12" on="1"/>
        <pt x="206" y="-12" on="0"/>
        <pt x="197" y="-23" on="0"/>
        <pt x="186" y="-23" on="1"/>
        <pt x="177" y="-23" on="0"/>
        <pt x="151" y="-7" on="0"/>
        <pt x="147" y="14" on="1"/>
        <pt x="143" y="51" on="1"/>
        <pt x="142" y="57" on="0"/>
        <pt x="139" y="61" on="0"/>
        <pt x="136" y="69" on="0"/>
        <pt x="134" y="88" on="0"/>
        <pt x="133" y="111" on="1"/>
        <pt x="133" y="117" on="0"/>
        <pt x="137" y="218" on="0"/>
        <pt x="144" y="378" on="0"/>
        <pt x="153" y="582" on="0"/>
        <pt x="164" y="800" on="0"/>
        <pt x="175" y="1016" on="0"/>
        <pt x="188" y="1200" on="0"/>
        <pt x="200" y="1337" on="0"/>
        <pt x="205" y="1366" on="1"/>
        <pt x="200" y="1378" on="0"/>
        <pt x="195" y="1400" on="0"/>
        <pt x="195" y="1409" on="1"/>
        <pt x="194" y="1415" on="0"/>
        <pt x="199" y="1419" on="0"/>
        <pt x="208" y="1422" on="0"/>
        <pt x="218" y="1426" on="0"/>
        <pt x="223" y="1432" on="1"/>
        <pt x="225" y="1435" on="0"/>
        <pt x="228" y="1458" on="0"/>
        <pt x="233" y="1458" on="1"/>
        <pt x="247" y="1458" on="0"/>
        <pt x="265" y="1471" on="0"/>
        <pt x="281" y="1473" on="1"/>
        <pt x="281" y="1490" on="0"/>
        <pt x="290" y="1495" on="1"/>
        <pt x="294" y="1498" on="0"/>
        <pt x="299" y="1497" on="1"/>
        <pt x="316" y="1495" on="0"/>
        <pt x="335" y="1472" on="0"/>
        <pt x="340" y="1462" on="1"/>
        <pt x="345" y="1450" on="0"/>
        <pt x="351" y="1438" on="0"/>
        <pt x="356" y="1427" on="1"/>
        <pt x="363" y="1416" on="0"/>
        <pt x="404" y="1344" on="0"/>
        <pt x="464" y="1236" on="0"/>
        <pt x="540" y="1101" on="0"/>
        <pt x="623" y="950" on="0"/>
        <pt x="711" y="793" on="0"/>
        <pt x="795" y="643" on="0"/>
        <pt x="871" y="507" on="0"/>
        <pt x="933" y="398" on="0"/>
        <pt x="975" y="325" on="0"/>
        <pt x="983" y="313" on="1"/>
        <pt x="1003" y="284" on="0"/>
        <pt x="1019" y="277" on="0"/>
        <pt x="1030" y="299" on="1"/>
        <pt x="1035" y="309" on="0"/>
        <pt x="1044" y="382" on="0"/>
        <pt x="1053" y="494" on="0"/>
        <pt x="1060" y="636" on="0"/>
        <pt x="1066" y="792" on="0"/>
        <pt x="1070" y="956" on="0"/>
        <pt x="1071" y="1110" on="0"/>
        <pt x="1070" y="1246" on="0"/>
        <pt x="1067" y="1298" on="1"/>
        <pt x="1066" y="1326" on="0"/>
        <pt x="1066" y="1348" on="1"/>
        <pt x="1066" y="1367" on="0"/>
        <pt x="1070" y="1399" on="0"/>
        <pt x="1075" y="1399" on="1"/>
        <pt x="1082" y="1404" on="0"/>
        <pt x="1093" y="1407" on="0"/>
        <pt x="1100" y="1406" on="0"/>
        <pt x="1106" y="1404" on="0"/>
        <pt x="1108" y="1405" on="1"/>
        <pt x="1110" y="1406" on="0"/>
        <pt x="1110" y="1410" on="0"/>
        <pt x="1111" y="1416" on="0"/>
        <pt x="1115" y="1423" on="0"/>
        <pt x="1122" y="1425" on="1"/>
        <pt x="1130" y="1428" on="0"/>
        <pt x="1139" y="1429" on="0"/>
        <pt x="1145" y="1427" on="0"/>
        <pt x="1149" y="1425" on="0"/>
        <pt x="1153" y="1427" on="1"/>
        <pt x="1161" y="1431" on="0"/>
        <pt x="1171" y="1438" on="0"/>
        <pt x="1179" y="1436" on="0"/>
        <pt x="1184" y="1421" on="0"/>
      </contour>
    </TTGlyph>
    <TTGlyph name="Nacute" xMin="133" yMin="-23" xMax="1188" yMax="1866">
      <component glyphName="N" x="0" y="0" flags="0x204"/>
      <component glyphName="acute" x="334" y="598" flags="0x4"/>
    </TTGlyph>
    <TTGlyph name="Ncaron" xMin="133" yMin="-23" xMax="1188" yMax="1862">
      <component glyphName="N" x="0" y="0" flags="0x204"/>
      <component glyphName="caron" x="309" y="598" flags="0x4"/>
    </TTGlyph>
    <TTGlyph name="Ncommaaccent" xMin="133" yMin="-469" xMax="1188" yMax="1498">
      <component glyphName="N" x="0" y="0" flags="0x204"/>
      <component glyphName="commaaccent" x="199" y="0" flags="0x4"/>
    </TTGlyph>
    <TTGlyph name="Ntilde" xMin="133" yMin="-23" xMax="1188" yMax="1847">
      <component glyphName="N" x="0" y="0" flags="0x204"/>
      <component glyphName="tilde" x="264" y="598" flags="0x4"/>
    </TTGlyph>
    <TTGlyph name="O" xMin="72" yMin="10" xMax="1340" yMax="1425">
      <contour>
        <pt x="1339" y="860" on="1"/>
        <pt x="1340" y="849" on="0"/>
        <pt x="1340" y="829" on="0"/>
        <pt x="1340" y="818" on="1"/>
        <pt x="1340" y="710" on="0"/>
        <pt x="1281" y="482" on="0"/>
        <pt x="1173" y="277" on="0"/>
        <pt x="1019" y="110" on="0"/>
        <pt x="924" y="63" on="1"/>
        <pt x="868" y="36" on="0"/>
        <pt x="738" y="10" on="0"/>
        <pt x="672" y="10" on="1"/>
        <pt x="624" y="10" on="0"/>
        <pt x="531" y="24" on="0"/>
        <pt x="489" y="35" on="1"/>
        <pt x="395" y="62" on="0"/>
        <pt x="246" y="175" on="0"/>
        <pt x="140" y="323" on="0"/>
        <pt x="79" y="494" on="0"/>
        <pt x="74" y="578" on="1"/>
        <pt x="73" y="590" on="0"/>
        <pt x="72" y="614" on="0"/>
        <pt x="72" y="626" on="1"/>
        <pt x="72" y="719" on="0"/>
        <pt x="118" y="904" on="0"/>
        <pt x="197" y="1073" on="0"/>
        <pt x="302" y="1221" on="0"/>
        <pt x="421" y="1333" on="0"/>
        <pt x="546" y="1404" on="0"/>
        <pt x="606" y="1413" on="1"/>
        <pt x="614" y="1414" on="0"/>
        <pt x="619" y="1415" on="0"/>
        <pt x="621" y="1415" on="0"/>
        <pt x="623" y="1414" on="0"/>
        <pt x="627" y="1415" on="1"/>
        <pt x="650" y="1417" on="0"/>
        <pt x="670" y="1415" on="0"/>
        <pt x="672" y="1413" on="1"/>
        <pt x="674" y="1410" on="0"/>
        <pt x="669" y="1408" on="0"/>
        <pt x="664" y="1405" on="1"/>
        <pt x="662" y="1405" on="0"/>
        <pt x="657" y="1403" on="0"/>
        <pt x="659" y="1401" on="1"/>
        <pt x="661" y="1396" on="0"/>
        <pt x="649" y="1388" on="0"/>
        <pt x="647" y="1386" on="1"/>
        <pt x="645" y="1384" on="0"/>
        <pt x="647" y="1382" on="0"/>
        <pt x="648" y="1382" on="0"/>
        <pt x="647" y="1380" on="0"/>
        <pt x="643" y="1378" on="1"/>
        <pt x="631" y="1370" on="0"/>
        <pt x="604" y="1357" on="0"/>
        <pt x="590" y="1348" on="1"/>
        <pt x="518" y="1296" on="0"/>
        <pt x="408" y="1132" on="0"/>
        <pt x="334" y="934" on="0"/>
        <pt x="296" y="715" on="0"/>
        <pt x="296" y="608" on="1"/>
        <pt x="296" y="594" on="0"/>
        <pt x="296" y="567" on="0"/>
        <pt x="297" y="553" on="1"/>
        <pt x="299" y="510" on="0"/>
        <pt x="323" y="408" on="0"/>
        <pt x="364" y="307" on="0"/>
        <pt x="423" y="213" on="0"/>
        <pt x="499" y="140" on="0"/>
        <pt x="593" y="95" on="0"/>
        <pt x="649" y="94" on="1"/>
        <pt x="733" y="91" on="0"/>
        <pt x="867" y="151" on="0"/>
        <pt x="970" y="252" on="0"/>
        <pt x="1044" y="383" on="0"/>
        <pt x="1093" y="522" on="0"/>
        <pt x="1121" y="657" on="0"/>
        <pt x="1126" y="711" on="1"/>
        <pt x="1128" y="732" on="0"/>
        <pt x="1130" y="775" on="0"/>
        <pt x="1130" y="795" on="1"/>
        <pt x="1130" y="923" on="0"/>
        <pt x="1063" y="1123" on="0"/>
        <pt x="952" y="1261" on="0"/>
        <pt x="808" y="1336" on="0"/>
        <pt x="731" y="1339" on="1"/>
        <pt x="723" y="1340" on="0"/>
        <pt x="701" y="1339" on="0"/>
        <pt x="678" y="1339" on="0"/>
        <pt x="661" y="1338" on="0"/>
        <pt x="659" y="1339" on="1"/>
        <pt x="646" y="1345" on="0"/>
        <pt x="643" y="1348" on="1"/>
        <pt x="641" y="1350" on="1"/>
        <pt x="641" y="1358" on="0"/>
        <pt x="645" y="1362" on="1"/>
        <pt x="655" y="1367" on="1"/>
        <pt x="660" y="1369" on="0"/>
        <pt x="669" y="1374" on="0"/>
        <pt x="672" y="1376" on="1"/>
        <pt x="674" y="1379" on="0"/>
        <pt x="668" y="1382" on="0"/>
        <pt x="668" y="1389" on="1"/>
        <pt x="666" y="1394" on="0"/>
        <pt x="676" y="1403" on="0"/>
        <pt x="678" y="1403" on="1"/>
        <pt x="687" y="1406" on="0"/>
        <pt x="694" y="1407" on="0"/>
        <pt x="700" y="1407" on="1"/>
        <pt x="710" y="1408" on="0"/>
        <pt x="723" y="1411" on="0"/>
        <pt x="734" y="1415" on="0"/>
        <pt x="748" y="1418" on="0"/>
        <pt x="760" y="1419" on="1"/>
        <pt x="769" y="1421" on="0"/>
        <pt x="791" y="1421" on="0"/>
        <pt x="813" y="1423" on="1"/>
        <pt x="899" y="1425" on="0"/>
        <pt x="1042" y="1382" on="0"/>
        <pt x="1157" y="1302" on="0"/>
        <pt x="1243" y="1193" on="0"/>
        <pt x="1302" y="1066" on="0"/>
        <pt x="1335" y="928" on="0"/>
      </contour>
    </TTGlyph>
    <TTGlyph name="OE" xMin="67" yMin="0" xMax="2157" yMax="1430">
      <contour>
        <pt x="2157" y="186" on="1"/>
        <pt x="2157" y="182" on="0"/>
        <pt x="2147" y="160" on="0"/>
        <pt x="2134" y="136" on="0"/>
        <pt x="2119" y="115" on="0"/>
        <pt x="2114" y="113" on="1"/>
        <pt x="2110" y="111" on="0"/>
        <pt x="2063" y="94" on="0"/>
        <pt x="1985" y="71" on="0"/>
        <pt x="1880" y="45" on="0"/>
        <pt x="1757" y="22" on="0"/>
        <pt x="1618" y="7" on="0"/>
        <pt x="1546" y="6" on="1"/>
        <pt x="1495" y="4" on="0"/>
        <pt x="1406" y="0" on="0"/>
        <pt x="1368" y="0" on="1"/>
        <pt x="1346" y="0" on="0"/>
        <pt x="1307" y="2" on="0"/>
        <pt x="1290" y="4" on="1"/>
        <pt x="1254" y="7" on="0"/>
        <pt x="1221" y="11" on="1"/>
        <pt x="1193" y="15" on="0"/>
        <pt x="1137" y="27" on="0"/>
        <pt x="1122" y="37" on="1"/>
        <pt x="1118" y="38" on="0"/>
        <pt x="1114" y="42" on="1"/>
        <pt x="1107" y="48" on="0"/>
        <pt x="1108" y="59" on="1"/>
        <pt x="1100" y="65" on="0"/>
        <pt x="1096" y="70" on="1"/>
        <pt x="1094" y="73" on="0"/>
        <pt x="1094" y="74" on="1"/>
        <pt x="1094" y="76" on="0"/>
        <pt x="1095" y="79" on="1"/>
        <pt x="1096" y="83" on="0"/>
        <pt x="1104" y="94" on="1"/>
        <pt x="1094" y="95" on="0"/>
        <pt x="1090" y="105" on="1"/>
        <pt x="1087" y="109" on="0"/>
        <pt x="1087" y="115" on="1"/>
        <pt x="1086" y="121" on="0"/>
        <pt x="1088" y="127" on="1"/>
        <pt x="1090" y="132" on="0"/>
        <pt x="1096" y="145" on="0"/>
        <pt x="1104" y="152" on="1"/>
        <pt x="1104" y="165" on="0"/>
        <pt x="1107" y="171" on="1"/>
        <pt x="1108" y="175" on="0"/>
        <pt x="1110" y="176" on="1"/>
        <pt x="1112" y="181" on="0"/>
        <pt x="1137" y="188" on="0"/>
        <pt x="1149" y="190" on="1"/>
        <pt x="1153" y="287" on="1"/>
        <pt x="1110" y="214" on="0"/>
        <pt x="996" y="99" on="0"/>
        <pt x="924" y="63" on="1"/>
        <pt x="868" y="36" on="0"/>
        <pt x="738" y="10" on="0"/>
        <pt x="672" y="10" on="1"/>
        <pt x="624" y="10" on="0"/>
        <pt x="531" y="24" on="0"/>
        <pt x="489" y="35" on="1"/>
        <pt x="395" y="62" on="0"/>
        <pt x="246" y="175" on="0"/>
        <pt x="140" y="323" on="0"/>
        <pt x="79" y="494" on="0"/>
        <pt x="74" y="578" on="1"/>
        <pt x="67" y="675" on="0"/>
        <pt x="106" y="870" on="0"/>
        <pt x="183" y="1049" on="0"/>
        <pt x="290" y="1207" on="0"/>
        <pt x="413" y="1328" on="0"/>
        <pt x="544" y="1404" on="0"/>
        <pt x="606" y="1413" on="1"/>
        <pt x="614" y="1414" on="0"/>
        <pt x="619" y="1415" on="0"/>
        <pt x="621" y="1415" on="0"/>
        <pt x="623" y="1414" on="0"/>
        <pt x="627" y="1415" on="1"/>
        <pt x="650" y="1417" on="0"/>
        <pt x="670" y="1415" on="0"/>
        <pt x="672" y="1413" on="1"/>
        <pt x="674" y="1410" on="0"/>
        <pt x="669" y="1408" on="0"/>
        <pt x="664" y="1405" on="1"/>
        <pt x="662" y="1405" on="0"/>
        <pt x="657" y="1403" on="0"/>
        <pt x="659" y="1401" on="1"/>
        <pt x="661" y="1396" on="0"/>
        <pt x="649" y="1388" on="0"/>
        <pt x="647" y="1386" on="1"/>
        <pt x="645" y="1384" on="0"/>
        <pt x="647" y="1382" on="0"/>
        <pt x="648" y="1382" on="0"/>
        <pt x="647" y="1380" on="0"/>
        <pt x="643" y="1378" on="1"/>
        <pt x="631" y="1370" on="0"/>
        <pt x="604" y="1357" on="0"/>
        <pt x="590" y="1348" on="1"/>
        <pt x="513" y="1292" on="0"/>
        <pt x="398" y="1114" on="0"/>
        <pt x="324" y="900" on="0"/>
        <pt x="292" y="665" on="0"/>
        <pt x="297" y="553" on="1"/>
        <pt x="299" y="510" on="0"/>
        <pt x="323" y="408" on="0"/>
        <pt x="364" y="307" on="0"/>
        <pt x="423" y="213" on="0"/>
        <pt x="499" y="140" on="0"/>
        <pt x="593" y="95" on="0"/>
        <pt x="649" y="94" on="1"/>
        <pt x="733" y="91" on="0"/>
        <pt x="867" y="151" on="0"/>
        <pt x="970" y="252" on="0"/>
        <pt x="1044" y="383" on="0"/>
        <pt x="1093" y="522" on="0"/>
        <pt x="1121" y="657" on="0"/>
        <pt x="1126" y="711" on="1"/>
        <pt x="1128" y="732" on="0"/>
        <pt x="1130" y="775" on="0"/>
        <pt x="1130" y="795" on="1"/>
        <pt x="1130" y="923" on="0"/>
        <pt x="1063" y="1123" on="0"/>
        <pt x="952" y="1261" on="0"/>
        <pt x="808" y="1336" on="0"/>
        <pt x="731" y="1339" on="1"/>
        <pt x="723" y="1340" on="0"/>
        <pt x="701" y="1339" on="0"/>
        <pt x="678" y="1339" on="0"/>
        <pt x="661" y="1338" on="0"/>
        <pt x="659" y="1339" on="1"/>
        <pt x="646" y="1345" on="0"/>
        <pt x="643" y="1348" on="1"/>
        <pt x="641" y="1350" on="1"/>
        <pt x="641" y="1358" on="0"/>
        <pt x="645" y="1362" on="1"/>
        <pt x="655" y="1367" on="1"/>
        <pt x="660" y="1369" on="0"/>
        <pt x="669" y="1374" on="0"/>
        <pt x="672" y="1376" on="1"/>
        <pt x="674" y="1379" on="0"/>
        <pt x="668" y="1382" on="0"/>
        <pt x="668" y="1389" on="1"/>
        <pt x="666" y="1394" on="0"/>
        <pt x="676" y="1403" on="0"/>
        <pt x="678" y="1403" on="1"/>
        <pt x="687" y="1406" on="0"/>
        <pt x="694" y="1407" on="0"/>
        <pt x="700" y="1407" on="1"/>
        <pt x="710" y="1408" on="0"/>
        <pt x="723" y="1411" on="0"/>
        <pt x="734" y="1415" on="0"/>
        <pt x="748" y="1418" on="0"/>
        <pt x="760" y="1419" on="1"/>
        <pt x="769" y="1421" on="0"/>
        <pt x="791" y="1421" on="0"/>
        <pt x="813" y="1423" on="1"/>
        <pt x="892" y="1424" on="0"/>
        <pt x="1018" y="1387" on="0"/>
        <pt x="1115" y="1318" on="0"/>
        <pt x="1186" y="1223" on="0"/>
        <pt x="1210" y="1167" on="1"/>
        <pt x="1213" y="1189" on="0"/>
        <pt x="1219" y="1229" on="0"/>
        <pt x="1221" y="1249" on="1"/>
        <pt x="1213" y="1251" on="0"/>
        <pt x="1191" y="1260" on="0"/>
        <pt x="1186" y="1274" on="1"/>
        <pt x="1172" y="1276" on="0"/>
        <pt x="1159" y="1284" on="0"/>
        <pt x="1156" y="1288" on="1"/>
        <pt x="1152" y="1292" on="0"/>
        <pt x="1153" y="1298" on="1"/>
        <pt x="1155" y="1309" on="0"/>
        <pt x="1161" y="1321" on="0"/>
        <pt x="1174" y="1329" on="1"/>
        <pt x="1186" y="1335" on="0"/>
        <pt x="1196" y="1354" on="0"/>
        <pt x="1204" y="1356" on="1"/>
        <pt x="1206" y="1357" on="0"/>
        <pt x="1270" y="1374" on="0"/>
        <pt x="1369" y="1397" on="0"/>
        <pt x="1492" y="1418" on="0"/>
        <pt x="1552" y="1423" on="1"/>
        <pt x="1622" y="1428" on="0"/>
        <pt x="1759" y="1430" on="0"/>
        <pt x="1819" y="1430" on="1"/>
        <pt x="1859" y="1430" on="0"/>
        <pt x="1929" y="1429" on="0"/>
        <pt x="1983" y="1427" on="0"/>
        <pt x="2018" y="1424" on="0"/>
        <pt x="2023" y="1423" on="1"/>
        <pt x="2030" y="1421" on="0"/>
        <pt x="2037" y="1416" on="1"/>
        <pt x="2042" y="1411" on="0"/>
        <pt x="2054" y="1394" on="0"/>
        <pt x="2058" y="1380" on="1"/>
        <pt x="2066" y="1376" on="0"/>
        <pt x="2074" y="1369" on="0"/>
        <pt x="2076" y="1366" on="1"/>
        <pt x="2079" y="1362" on="0"/>
        <pt x="2079" y="1360" on="1"/>
        <pt x="2079" y="1354" on="0"/>
        <pt x="2079" y="1337" on="0"/>
        <pt x="2077" y="1331" on="1"/>
        <pt x="2076" y="1329" on="0"/>
        <pt x="2073" y="1327" on="1"/>
        <pt x="2066" y="1323" on="0"/>
        <pt x="2058" y="1319" on="1"/>
        <pt x="2059" y="1305" on="0"/>
        <pt x="2057" y="1289" on="0"/>
        <pt x="2055" y="1284" on="1"/>
        <pt x="2053" y="1279" on="0"/>
        <pt x="2050" y="1276" on="1"/>
        <pt x="2044" y="1271" on="0"/>
        <pt x="2010" y="1266" on="0"/>
        <pt x="1966" y="1266" on="1"/>
        <pt x="1348" y="1251" on="1"/>
        <pt x="1345" y="1222" on="0"/>
        <pt x="1340" y="1142" on="0"/>
        <pt x="1334" y="1053" on="0"/>
        <pt x="1329" y="959" on="0"/>
        <pt x="1325" y="873" on="0"/>
        <pt x="1322" y="800" on="0"/>
        <pt x="1321" y="776" on="1"/>
        <pt x="1359" y="787" on="0"/>
        <pt x="1450" y="800" on="0"/>
        <pt x="1490" y="804" on="1"/>
        <pt x="1537" y="808" on="0"/>
        <pt x="1583" y="811" on="1"/>
        <pt x="1612" y="813" on="0"/>
        <pt x="1667" y="813" on="0"/>
        <pt x="1692" y="813" on="1"/>
        <pt x="1792" y="813" on="0"/>
        <pt x="1901" y="805" on="0"/>
        <pt x="1909" y="803" on="1"/>
        <pt x="1914" y="802" on="0"/>
        <pt x="1928" y="788" on="0"/>
        <pt x="1941" y="769" on="0"/>
        <pt x="1950" y="746" on="0"/>
        <pt x="1950" y="737" on="1"/>
        <pt x="1950" y="720" on="0"/>
        <pt x="1931" y="682" on="0"/>
        <pt x="1925" y="670" on="1"/>
        <pt x="1921" y="664" on="0"/>
        <pt x="1910" y="651" on="0"/>
        <pt x="1898" y="640" on="0"/>
        <pt x="1886" y="634" on="0"/>
        <pt x="1882" y="635" on="1"/>
        <pt x="1880" y="635" on="0"/>
        <pt x="1836" y="637" on="0"/>
        <pt x="1771" y="640" on="0"/>
        <pt x="1694" y="642" on="0"/>
        <pt x="1623" y="644" on="0"/>
        <pt x="1565" y="645" on="0"/>
        <pt x="1552" y="645" on="1"/>
        <pt x="1536" y="645" on="0"/>
        <pt x="1505" y="642" on="1"/>
        <pt x="1479" y="640" on="0"/>
        <pt x="1388" y="630" on="0"/>
        <pt x="1317" y="621" on="1"/>
        <pt x="1315" y="580" on="0"/>
        <pt x="1315" y="490" on="0"/>
        <pt x="1315" y="440" on="1"/>
        <pt x="1315" y="371" on="0"/>
        <pt x="1318" y="236" on="0"/>
        <pt x="1323" y="182" on="1"/>
        <pt x="1458" y="182" on="1"/>
        <pt x="1508" y="182" on="0"/>
        <pt x="1606" y="185" on="0"/>
        <pt x="1647" y="188" on="1"/>
        <pt x="1714" y="193" on="0"/>
        <pt x="1835" y="205" on="0"/>
        <pt x="1931" y="215" on="0"/>
        <pt x="1994" y="220" on="0"/>
        <pt x="2003" y="219" on="1"/>
        <pt x="2010" y="217" on="0"/>
        <pt x="2038" y="219" on="0"/>
        <pt x="2068" y="223" on="0"/>
        <pt x="2095" y="227" on="0"/>
        <pt x="2103" y="229" on="1"/>
        <pt x="2111" y="230" on="0"/>
        <pt x="2129" y="221" on="0"/>
        <pt x="2145" y="206" on="0"/>
        <pt x="2156" y="190" on="0"/>
      </contour>
    </TTGlyph>
    <TTGlyph name="Oacute" xMin="72" yMin="10" xMax="1340" yMax="1850">
      <component glyphName="O" x="0" y="0" flags="0x204"/>
      <component glyphName="acute" x="383" y="582" flags="0x4"/>
    </TTGlyph>
    <TTGlyph name="Obreve" xMin="72" yMin="10" xMax="1340" yMax="1854">
      <component glyphName="O" x="0" y="0" flags="0x204"/>
      <component glyphName="breve" x="324" y="582" flags="0x4"/>
    </TTGlyph>
    <TTGlyph name="Ocircumflex" xMin="72" yMin="10" xMax="1340" yMax="1846">
      <component glyphName="O" x="0" y="0" flags="0x204"/>
      <component glyphName="circumflex" x="313" y="582" flags="0x4"/>
    </TTGlyph>
    <TTGlyph name="Odieresis" xMin="72" yMin="10" xMax="1340" yMax="1768">
      <component glyphName="O" x="0" y="0" flags="0x204"/>
      <component glyphName="dieresis" x="313" y="582" flags="0x4"/>
    </TTGlyph>
    <TTGlyph name="Ograve" xMin="72" yMin="10" xMax="1340" yMax="1844">
      <component glyphName="O" x="0" y="0" flags="0x204"/>
      <component glyphName="grave" x="217" y="582" flags="0x4"/>
    </TTGlyph>
    <TTGlyph name="Ohungarumlaut" xMin="72" yMin="10" xMax="1340" yMax="1850">
      <component glyphName="O" x="0" y="0" flags="0x204"/>
      <component glyphName="hungarumlaut" x="283" y="582" flags="0x4"/>
    </TTGlyph>
    <TTGlyph name="Omacron" xMin="72" yMin="10" xMax="1340" yMax="1753">
      <component glyphName="O" x="0" y="0" flags="0x204"/>
      <component glyphName="macron" x="313" y="582" flags="0x4"/>
    </TTGlyph>
    <TTGlyph name="Oslash" xMin="67" yMin="-85" xMax="1343" yMax="1516">
      <contour>
        <pt x="1155" y="1290" on="1"/>
        <pt x="1198" y="1249" on="0"/>
        <pt x="1264" y="1149" on="0"/>
        <pt x="1309" y="1038" on="0"/>
        <pt x="1335" y="919" on="0"/>
        <pt x="1339" y="860" on="1"/>
        <pt x="1343" y="786" on="0"/>
        <pt x="1322" y="628" on="0"/>
        <pt x="1274" y="473" on="0"/>
        <pt x="1201" y="326" on="0"/>
        <pt x="1106" y="198" on="0"/>
        <pt x="990" y="96" on="0"/>
        <pt x="924" y="63" on="1"/>
        <pt x="868" y="36" on="0"/>
        <pt x="738" y="10" on="0"/>
        <pt x="672" y="10" on="1"/>
        <pt x="624" y="10" on="0"/>
        <pt x="531" y="24" on="0"/>
        <pt x="489" y="35" on="1"/>
        <pt x="447" y="46" on="0"/>
        <pt x="374" y="81" on="0"/>
        <pt x="340" y="104" on="1"/>
        <pt x="309" y="61" on="0"/>
        <pt x="249" y="-21" on="0"/>
        <pt x="223" y="-59" on="1"/>
        <pt x="212" y="-78" on="0"/>
        <pt x="176" y="-85" on="0"/>
        <pt x="168" y="-76" on="1"/>
        <pt x="165" y="-70" on="0"/>
        <pt x="152" y="-53" on="0"/>
        <pt x="141" y="-35" on="0"/>
        <pt x="137" y="-15" on="0"/>
        <pt x="143" y="-6" on="1"/>
        <pt x="172" y="37" on="0"/>
        <pt x="231" y="125" on="0"/>
        <pt x="262" y="168" on="1"/>
        <pt x="175" y="252" on="0"/>
        <pt x="80" y="468" on="0"/>
        <pt x="74" y="578" on="1"/>
        <pt x="67" y="675" on="0"/>
        <pt x="106" y="870" on="0"/>
        <pt x="183" y="1049" on="0"/>
        <pt x="290" y="1207" on="0"/>
        <pt x="413" y="1328" on="0"/>
        <pt x="544" y="1404" on="0"/>
        <pt x="606" y="1413" on="1"/>
        <pt x="614" y="1414" on="0"/>
        <pt x="619" y="1415" on="0"/>
        <pt x="621" y="1415" on="0"/>
        <pt x="623" y="1414" on="0"/>
        <pt x="627" y="1415" on="1"/>
        <pt x="650" y="1417" on="0"/>
        <pt x="670" y="1415" on="0"/>
        <pt x="672" y="1413" on="1"/>
        <pt x="674" y="1410" on="0"/>
        <pt x="669" y="1408" on="0"/>
        <pt x="664" y="1405" on="1"/>
        <pt x="662" y="1405" on="0"/>
        <pt x="657" y="1403" on="0"/>
        <pt x="659" y="1401" on="1"/>
        <pt x="661" y="1396" on="0"/>
        <pt x="649" y="1388" on="0"/>
        <pt x="647" y="1386" on="1"/>
        <pt x="645" y="1384" on="0"/>
        <pt x="647" y="1382" on="0"/>
        <pt x="648" y="1382" on="0"/>
        <pt x="647" y="1380" on="0"/>
        <pt x="643" y="1378" on="1"/>
        <pt x="631" y="1370" on="0"/>
        <pt x="604" y="1357" on="0"/>
        <pt x="590" y="1348" on="1"/>
        <pt x="513" y="1292" on="0"/>
        <pt x="398" y="1114" on="0"/>
        <pt x="324" y="900" on="0"/>
        <pt x="292" y="665" on="0"/>
        <pt x="297" y="553" on="1"/>
        <pt x="300" y="499" on="0"/>
        <pt x="333" y="373" on="0"/>
        <pt x="362" y="313" on="1"/>
        <pt x="437" y="423" on="0"/>
        <pt x="588" y="644" on="0"/>
        <pt x="741" y="869" on="0"/>
        <pt x="899" y="1101" on="0"/>
        <pt x="981" y="1223" on="1"/>
        <pt x="927" y="1277" on="0"/>
        <pt x="799" y="1336" on="0"/>
        <pt x="731" y="1339" on="1"/>
        <pt x="723" y="1340" on="0"/>
        <pt x="701" y="1339" on="0"/>
        <pt x="678" y="1339" on="0"/>
        <pt x="661" y="1338" on="0"/>
        <pt x="659" y="1339" on="1"/>
        <pt x="646" y="1345" on="0"/>
        <pt x="643" y="1348" on="1"/>
        <pt x="641" y="1350" on="1"/>
        <pt x="641" y="1358" on="0"/>
        <pt x="645" y="1362" on="1"/>
        <pt x="655" y="1367" on="1"/>
        <pt x="660" y="1369" on="0"/>
        <pt x="669" y="1374" on="0"/>
        <pt x="672" y="1376" on="1"/>
        <pt x="674" y="1379" on="0"/>
        <pt x="668" y="1382" on="0"/>
        <pt x="668" y="1389" on="1"/>
        <pt x="666" y="1394" on="0"/>
        <pt x="676" y="1403" on="0"/>
        <pt x="678" y="1403" on="1"/>
        <pt x="687" y="1406" on="0"/>
        <pt x="694" y="1407" on="0"/>
        <pt x="700" y="1407" on="1"/>
        <pt x="710" y="1408" on="0"/>
        <pt x="723" y="1411" on="0"/>
        <pt x="734" y="1415" on="0"/>
        <pt x="748" y="1418" on="0"/>
        <pt x="760" y="1419" on="1"/>
        <pt x="769" y="1421" on="0"/>
        <pt x="790" y="1423" on="0"/>
        <pt x="813" y="1423" on="1"/>
        <pt x="888" y="1423" on="0"/>
        <pt x="1017" y="1387" on="0"/>
        <pt x="1071" y="1356" on="1"/>
        <pt x="1159" y="1487" on="1"/>
        <pt x="1176" y="1512" on="0"/>
        <pt x="1201" y="1516" on="0"/>
        <pt x="1212" y="1509" on="1"/>
        <pt x="1223" y="1503" on="0"/>
        <pt x="1231" y="1503" on="0"/>
        <pt x="1243" y="1499" on="1"/>
        <pt x="1248" y="1496" on="0"/>
        <pt x="1258" y="1488" on="0"/>
        <pt x="1262" y="1474" on="0"/>
        <pt x="1257" y="1452" on="0"/>
        <pt x="1247" y="1436" on="1"/>
      </contour>
      <contour>
        <pt x="1130" y="795" on="1"/>
        <pt x="1130" y="897" on="0"/>
        <pt x="1087" y="1063" on="0"/>
        <pt x="1049" y="1128" on="1"/>
        <pt x="976" y="1018" on="0"/>
        <pt x="818" y="786" on="0"/>
        <pt x="657" y="553" on="0"/>
        <pt x="497" y="325" on="0"/>
        <pt x="422" y="219" on="1"/>
        <pt x="464" y="165" on="0"/>
        <pt x="577" y="96" on="0"/>
        <pt x="649" y="94" on="1"/>
        <pt x="733" y="91" on="0"/>
        <pt x="867" y="151" on="0"/>
        <pt x="970" y="252" on="0"/>
        <pt x="1044" y="383" on="0"/>
        <pt x="1093" y="522" on="0"/>
        <pt x="1121" y="657" on="0"/>
        <pt x="1126" y="711" on="1"/>
        <pt x="1128" y="732" on="0"/>
        <pt x="1130" y="775" on="0"/>
      </contour>
    </TTGlyph>
    <TTGlyph name="Oslashacute" xMin="67" yMin="-85" xMax="1343" yMax="1852">
      <component glyphName="Oslash" x="0" y="0" flags="0x204"/>
      <component glyphName="acute" x="375" y="584" flags="0x4"/>
    </TTGlyph>
    <TTGlyph name="Otilde" xMin="72" yMin="10" xMax="1340" yMax="1831">
      <component glyphName="O" x="0" y="0" flags="0x204"/>
      <component glyphName="tilde" x="313" y="582" flags="0x4"/>
    </TTGlyph>
    <TTGlyph name="P" xMin="-10" yMin="-24" xMax="1157" yMax="1499">
      <contour>
        <pt x="1157" y="1085" on="1"/>
        <pt x="1157" y="1028" on="0"/>
        <pt x="1121" y="912" on="0"/>
        <pt x="1052" y="804" on="0"/>
        <pt x="955" y="708" on="0"/>
        <pt x="836" y="635" on="0"/>
        <pt x="698" y="589" on="0"/>
        <pt x="623" y="584" on="1"/>
        <pt x="609" y="582" on="0"/>
        <pt x="582" y="587" on="0"/>
        <pt x="571" y="590" on="1"/>
        <pt x="563" y="593" on="0"/>
        <pt x="534" y="605" on="0"/>
        <pt x="530" y="608" on="1"/>
        <pt x="524" y="614" on="0"/>
        <pt x="503" y="639" on="0"/>
        <pt x="498" y="647" on="1"/>
        <pt x="495" y="652" on="0"/>
        <pt x="496" y="675" on="0"/>
        <pt x="496" y="690" on="1"/>
        <pt x="496" y="704" on="0"/>
        <pt x="495" y="735" on="0"/>
        <pt x="498" y="737" on="1"/>
        <pt x="500" y="739" on="0"/>
        <pt x="515" y="728" on="0"/>
        <pt x="537" y="725" on="1"/>
        <pt x="546" y="723" on="0"/>
        <pt x="569" y="725" on="0"/>
        <pt x="580" y="727" on="1"/>
        <pt x="615" y="730" on="0"/>
        <pt x="707" y="764" on="0"/>
        <pt x="804" y="820" on="0"/>
        <pt x="898" y="895" on="0"/>
        <pt x="971" y="981" on="0"/>
        <pt x="1016" y="1077" on="0"/>
        <pt x="1016" y="1126" on="1"/>
        <pt x="1016" y="1164" on="0"/>
        <pt x="986" y="1235" on="0"/>
        <pt x="954" y="1270" on="1"/>
        <pt x="934" y="1293" on="0"/>
        <pt x="818" y="1319" on="0"/>
        <pt x="737" y="1319" on="1"/>
        <pt x="668" y="1319" on="0"/>
        <pt x="510" y="1297" on="0"/>
        <pt x="432" y="1272" on="1"/>
        <pt x="365" y="1250" on="0"/>
        <pt x="271" y="1217" on="0"/>
        <pt x="204" y="1191" on="0"/>
        <pt x="161" y="1173" on="0"/>
        <pt x="129" y="1160" on="0"/>
        <pt x="103" y="1149" on="0"/>
        <pt x="88" y="1145" on="1"/>
        <pt x="74" y="1140" on="0"/>
        <pt x="58" y="1139" on="0"/>
        <pt x="53" y="1139" on="1"/>
        <pt x="45" y="1141" on="0"/>
        <pt x="38" y="1146" on="0"/>
        <pt x="33" y="1149" on="1"/>
        <pt x="29" y="1152" on="0"/>
        <pt x="21" y="1151" on="0"/>
        <pt x="14" y="1149" on="0"/>
        <pt x="6" y="1151" on="0"/>
        <pt x="2" y="1157" on="1"/>
        <pt x="-4" y="1168" on="0"/>
        <pt x="-9" y="1181" on="0"/>
        <pt x="-10" y="1190" on="0"/>
        <pt x="-8" y="1198" on="0"/>
        <pt x="-6" y="1204" on="1"/>
        <pt x="-5" y="1210" on="0"/>
        <pt x="-7" y="1220" on="0"/>
        <pt x="-8" y="1228" on="0"/>
        <pt x="-5" y="1237" on="0"/>
        <pt x="2" y="1243" on="1"/>
        <pt x="16" y="1254" on="0"/>
        <pt x="80" y="1300" on="0"/>
        <pt x="175" y="1355" on="0"/>
        <pt x="298" y="1413" on="0"/>
        <pt x="443" y="1462" on="0"/>
        <pt x="608" y="1495" on="0"/>
        <pt x="698" y="1497" on="1"/>
        <pt x="788" y="1499" on="0"/>
        <pt x="925" y="1456" on="0"/>
        <pt x="1027" y="1385" on="0"/>
        <pt x="1096" y="1294" on="0"/>
        <pt x="1138" y="1202" on="0"/>
        <pt x="1156" y="1116" on="0"/>
      </contour>
      <contour>
        <pt x="471" y="1219" on="1"/>
        <pt x="470" y="1214" on="0"/>
        <pt x="465" y="1156" on="0"/>
        <pt x="458" y="1065" on="0"/>
        <pt x="450" y="949" on="0"/>
        <pt x="442" y="823" on="0"/>
        <pt x="435" y="694" on="0"/>
        <pt x="434" y="635" on="1"/>
        <pt x="432" y="575" on="0"/>
        <pt x="430" y="448" on="0"/>
        <pt x="430" y="383" on="1"/>
        <pt x="430" y="308" on="0"/>
        <pt x="437" y="162" on="0"/>
        <pt x="446" y="94" on="1"/>
        <pt x="450" y="71" on="0"/>
        <pt x="436" y="45" on="0"/>
        <pt x="436" y="35" on="1"/>
        <pt x="436" y="32" on="0"/>
        <pt x="442" y="27" on="0"/>
        <pt x="440" y="25" on="1"/>
        <pt x="437" y="20" on="0"/>
        <pt x="422" y="22" on="0"/>
        <pt x="416" y="27" on="1"/>
        <pt x="413" y="30" on="0"/>
        <pt x="409" y="39" on="0"/>
        <pt x="405" y="45" on="0"/>
        <pt x="399" y="46" on="0"/>
        <pt x="393" y="41" on="1"/>
        <pt x="388" y="36" on="0"/>
        <pt x="375" y="18" on="0"/>
        <pt x="361" y="-1" on="0"/>
        <pt x="347" y="-16" on="0"/>
        <pt x="340" y="-18" on="1"/>
        <pt x="334" y="-20" on="0"/>
        <pt x="317" y="-24" on="0"/>
        <pt x="315" y="-16" on="1"/>
        <pt x="313" y="-12" on="0"/>
        <pt x="309" y="-10" on="0"/>
        <pt x="303" y="-7" on="0"/>
        <pt x="298" y="-2" on="0"/>
        <pt x="297" y="6" on="1"/>
        <pt x="292" y="23" on="0"/>
        <pt x="279" y="40" on="0"/>
        <pt x="279" y="51" on="1"/>
        <pt x="277" y="68" on="0"/>
        <pt x="262" y="230" on="0"/>
        <pt x="262" y="373" on="1"/>
        <pt x="262" y="430" on="0"/>
        <pt x="265" y="564" on="0"/>
        <pt x="270" y="639" on="1"/>
        <pt x="275" y="706" on="0"/>
        <pt x="289" y="862" on="0"/>
        <pt x="304" y="1012" on="0"/>
        <pt x="316" y="1142" on="0"/>
        <pt x="319" y="1184" on="1"/>
        <pt x="320" y="1191" on="0"/>
        <pt x="328" y="1195" on="0"/>
        <pt x="342" y="1197" on="0"/>
        <pt x="364" y="1200" on="0"/>
        <pt x="379" y="1206" on="1"/>
        <pt x="391" y="1212" on="0"/>
        <pt x="424" y="1224" on="0"/>
        <pt x="453" y="1231" on="0"/>
        <pt x="472" y="1229" on="0"/>
      </contour>
    </TTGlyph>
    <TTGlyph name="Q" xMin="80" yMin="-281" xMax="1362" yMax="1399">
      <contour>
        <pt x="1362" y="-23" on="1"/>
        <pt x="1357" y="-52" on="0"/>
        <pt x="1337" y="-88" on="0"/>
        <pt x="1316" y="-114" on="0"/>
        <pt x="1298" y="-133" on="0"/>
        <pt x="1294" y="-145" on="1"/>
        <pt x="1284" y="-177" on="0"/>
        <pt x="1232" y="-227" on="0"/>
        <pt x="1166" y="-262" on="0"/>
        <pt x="1094" y="-281" on="0"/>
        <pt x="1065" y="-281" on="1"/>
        <pt x="1011" y="-281" on="0"/>
        <pt x="920" y="-239" on="0"/>
        <pt x="841" y="-159" on="0"/>
        <pt x="769" y="-46" on="0"/>
        <pt x="733" y="25" on="1"/>
        <pt x="691" y="11" on="0"/>
        <pt x="621" y="0" on="0"/>
        <pt x="598" y="0" on="1"/>
        <pt x="579" y="0" on="0"/>
        <pt x="512" y="9" on="0"/>
        <pt x="428" y="36" on="0"/>
        <pt x="334" y="83" on="0"/>
        <pt x="289" y="121" on="1"/>
        <pt x="270" y="104" on="0"/>
        <pt x="231" y="64" on="0"/>
        <pt x="198" y="28" on="0"/>
        <pt x="173" y="3" on="0"/>
        <pt x="168" y="2" on="1"/>
        <pt x="172" y="2" on="0"/>
        <pt x="165" y="2" on="0"/>
        <pt x="153" y="4" on="0"/>
        <pt x="141" y="8" on="0"/>
        <pt x="141" y="12" on="1"/>
        <pt x="141" y="20" on="0"/>
        <pt x="162" y="50" on="0"/>
        <pt x="195" y="89" on="0"/>
        <pt x="236" y="132" on="0"/>
        <pt x="256" y="152" on="1"/>
        <pt x="221" y="186" on="0"/>
        <pt x="157" y="278" on="0"/>
        <pt x="109" y="395" on="0"/>
        <pt x="80" y="539" on="0"/>
        <pt x="80" y="627" on="1"/>
        <pt x="80" y="776" on="0"/>
        <pt x="142" y="1007" on="0"/>
        <pt x="238" y="1178" on="0"/>
        <pt x="353" y="1295" on="0"/>
        <pt x="458" y="1367" on="0"/>
        <pt x="538" y="1398" on="0"/>
        <pt x="551" y="1399" on="1"/>
        <pt x="553" y="1398" on="0"/>
        <pt x="572" y="1398" on="0"/>
        <pt x="593" y="1395" on="0"/>
        <pt x="610" y="1385" on="0"/>
        <pt x="610" y="1374" on="1"/>
        <pt x="621" y="1380" on="0"/>
        <pt x="650" y="1389" on="0"/>
        <pt x="678" y="1389" on="1"/>
        <pt x="716" y="1389" on="0"/>
        <pt x="821" y="1373" on="0"/>
        <pt x="935" y="1327" on="0"/>
        <pt x="1048" y="1242" on="0"/>
        <pt x="1137" y="1102" on="0"/>
        <pt x="1192" y="901" on="0"/>
        <pt x="1192" y="762" on="1"/>
        <pt x="1192" y="620" on="0"/>
        <pt x="1137" y="402" on="0"/>
        <pt x="1047" y="239" on="0"/>
        <pt x="932" y="127" on="0"/>
        <pt x="872" y="90" on="1"/>
        <pt x="890" y="55" on="0"/>
        <pt x="944" y="-24" on="0"/>
        <pt x="1013" y="-91" on="0"/>
        <pt x="1097" y="-135" on="0"/>
        <pt x="1145" y="-135" on="1"/>
        <pt x="1197" y="-135" on="0"/>
        <pt x="1315" y="-84" on="0"/>
      </contour>
      <contour>
        <pt x="532" y="1290" on="1"/>
        <pt x="481" y="1258" on="0"/>
        <pt x="386" y="1148" on="0"/>
        <pt x="313" y="984" on="0"/>
        <pt x="270" y="761" on="0"/>
        <pt x="270" y="616" on="1"/>
        <pt x="270" y="502" on="0"/>
        <pt x="331" y="314" on="0"/>
        <pt x="379" y="246" on="1"/>
        <pt x="424" y="274" on="0"/>
        <pt x="516" y="305" on="0"/>
        <pt x="571" y="305" on="1"/>
        <pt x="649" y="305" on="0"/>
        <pt x="770" y="244" on="0"/>
        <pt x="813" y="188" on="1"/>
        <pt x="858" y="231" on="0"/>
        <pt x="931" y="366" on="0"/>
        <pt x="981" y="527" on="0"/>
        <pt x="1008" y="704" on="0"/>
        <pt x="1008" y="788" on="1"/>
        <pt x="1008" y="901" on="0"/>
        <pt x="959" y="1094" on="0"/>
        <pt x="871" y="1235" on="0"/>
        <pt x="749" y="1315" on="0"/>
        <pt x="676" y="1315" on="1"/>
        <pt x="656" y="1315" on="0"/>
        <pt x="623" y="1304" on="0"/>
        <pt x="598" y="1291" on="0"/>
        <pt x="580" y="1280" on="0"/>
        <pt x="575" y="1280" on="1"/>
        <pt x="566" y="1280" on="0"/>
        <pt x="557" y="1286" on="1"/>
      </contour>
      <contour>
        <pt x="410" y="205" on="1"/>
        <pt x="426" y="185" on="0"/>
        <pt x="466" y="148" on="0"/>
        <pt x="513" y="119" on="0"/>
        <pt x="567" y="102" on="0"/>
        <pt x="598" y="102" on="1"/>
        <pt x="636" y="102" on="0"/>
        <pt x="678" y="113" on="1"/>
        <pt x="627" y="185" on="0"/>
        <pt x="545" y="244" on="0"/>
        <pt x="510" y="244" on="1"/>
        <pt x="495" y="244" on="0"/>
        <pt x="463" y="234" on="0"/>
        <pt x="434" y="221" on="0"/>
        <pt x="413" y="208" on="0"/>
      </contour>
    </TTGlyph>
</ttFont>
